<svg id="Layer_1" data-name="Layer 1" xmlns="http://www.w3.org/2000/svg" viewBox="0 0 15.67 47.22"><defs><style>.cls-1{fill:#231f20;}</style></defs><path class="cls-1" d="M160.23,58.85a1.9,1.9,0,0,0-2.57.68,44.25,44.25,0,0,0-2.73,10.8c-1,6.33-1.68,12.72-2.24,19.11-.06.68-.1,1.36-.16,2-.52-2.29-1-4.58-1.46-6.89a118.77,118.77,0,0,1-1.83-24.11c0-2.41-3.7-2.41-3.75,0a123.14,123.14,0,0,0,1.91,24.77c1.16,6.38,2.85,12.64,4.23,19a1.54,1.54,0,0,0,.38,1h0a.86.86,0,0,0,.13.14,1.85,1.85,0,0,0,2.17.21l.19-.1h0a1.8,1.8,0,0,0,.84-1.47c.49-7.72,1.06-15.43,1.91-23.12A131.58,131.58,0,0,1,159.55,66c.2-.91.43-1.81.7-2.71.12-.39.24-.79.38-1.18.06-.15.12-.31.17-.46a1.34,1.34,0,0,1,.07-.18h0A2,2,0,0,0,160.23,58.85Z" transform="translate(-145.45 -58.6)"/></svg>