<svg id="Layer_1" data-name="Layer 1" xmlns="http://www.w3.org/2000/svg" viewBox="0 0 16.9 46.56"><defs><style>.cls-1{fill:#231f20;}</style></defs><path class="cls-1" d="M321.48,239.63l.28,0,.22,0,1,.19c.24,3,.37,5.91.42,8.86s0,6,0,9c-.05,2.42,3.7,2.42,3.75,0,.2-11.75.17-24.24-3.7-35.48a31.24,31.24,0,0,0-4.2-8.36,2.08,2.08,0,0,0-1.66-.91h-.21a1.63,1.63,0,0,0-1.36.9c-2.68,4.77-3.65,10.35-4.35,15.71-.37,2.77-.61,5.56-.79,8.35a2.22,2.22,0,0,0,0,.37h0c-.2,3.29-.31,6.59-.38,9.88s-.1,6.36-.16,9.53c0,2.42,3.71,2.42,3.75,0,.1-5.87.15-11.74.45-17.6,1.37-.11,2.72-.32,4.09-.53l.21,0,.55-.05c.44,0,.87,0,1.31,0ZM318,236c-.76.1-1.51.24-2.26.36h0l-.3,0-.66.06c0-.27,0-.54.05-.81.43-5.5,1-11.57,3.06-16.84a42.16,42.16,0,0,1,3.93,12.05c.32,1.72.58,3.46.8,5.21A15.75,15.75,0,0,0,318,236Z" transform="translate(-310.32 -213.02)"/></svg>