<svg id="Layer_1" data-name="Layer 1" xmlns="http://www.w3.org/2000/svg" viewBox="0 0 15.88 46.94"><defs><style>.cls-1{fill:#231f20;}</style></defs><path class="cls-1" d="M295.44,183.13a1.65,1.65,0,0,0-1.29,1.34,1.78,1.78,0,0,0-.09.47c-.52,8.33-1.05,16.65-1.28,25a2.14,2.14,0,0,0,0,1.15c-.05,1.88-.08,3.76-.08,5.65,0,3.7,0,7.4,0,11.1,0,2.42,3.76,2.42,3.75,0,0-5,0-9.92.06-14.87a7.76,7.76,0,0,0,5.5-1.45,15.62,15.62,0,0,0,5.15-7.72c1.93-5.62,2.34-13.53-1.86-18.27C302.79,182.66,299,182.21,295.44,183.13Zm8.49,18.39a15.93,15.93,0,0,1-1.35,3.51,9.38,9.38,0,0,1-1.87,2.68c-.21.21-.43.4-.66.59-.06,0-.45.33-.54.38a5.75,5.75,0,0,1-.65.34l-.61.2-.41.09h-1.06l-.18,0c.09-4.1.23-8.19.47-12.29.21-3.5.43-7,.65-10.49l.6-.06c.3,0,.6,0,.9,0l.37,0,.29.06c.28.06.56.14.84.23l.13.06.33.16c.21.12.43.25.63.39l0,0,.06.05.33.3a7.87,7.87,0,0,1,1.53,2.33,12.44,12.44,0,0,1,.54,1.7c.08.32.15.64.2,1l.06.35a1.85,1.85,0,0,1,.06.41A20.75,20.75,0,0,1,303.93,201.52Z" transform="translate(-292.68 -182.7)"/></svg>