<svg id="Layer_1" data-name="Layer 1" xmlns="http://www.w3.org/2000/svg" viewBox="0 0 17.15 41.21"><defs><style>.cls-1{fill:#231f20;}</style></defs><path class="cls-1" d="M208.72,88.27h0a1.62,1.62,0,0,0,.24-.91,1.86,1.86,0,0,0-.17-.73,1.79,1.79,0,0,0-.64-.8h0l-.09-.07-.14-.06-.13-.06h-.12a1.77,1.77,0,0,0-.56-.09H195a1.88,1.88,0,0,0,0,3.75h9.23c-.9,1.93-1.8,3.86-2.63,5.83q-3.3,7.74-5.82,15.79c-1.39,4.46-2.64,9-3.79,13.5v.45h0v.35l.06.23v.1a1.9,1.9,0,0,0,1.74,1.2h13.33a1.88,1.88,0,1,0,.28-3.75,1.31,1.31,0,0,0-.28,0h-10.9a185.1,185.1,0,0,1,10.64-30.55C207.43,91.06,208.1,89.67,208.72,88.27Z" transform="translate(-191.96 -85.55)"/></svg>