<svg id="Layer_1" data-name="Layer 1" xmlns="http://www.w3.org/2000/svg" viewBox="0 0 14.64 46.88"><defs><style>.cls-1{fill:#231f20;}</style></defs><path class="cls-1" d="M331.64,191.92a15.35,15.35,0,0,0-8.58-9.08,1.69,1.69,0,0,0-.31-.13l-.24-.1a1.57,1.57,0,0,0-2.1.91,2,2,0,0,0-.28.89c-.63,10.69-1.29,21.35-1.34,32.05,0,3.62,0,7.23,0,10.85a1.9,1.9,0,0,0,.18.82,1.5,1.5,0,0,0,.75.8c6.22,2.71,10-7.84,11.28-12C333.43,209.19,334.64,199.69,331.64,191.92Zm-7.22,30.77c-.19.33-.4.64-.61.95l-.27.37,0,0,0,.06a9.65,9.65,0,0,1-.94,1c0-9.49.11-18.94.64-28.42.17-3.1.36-6.21.54-9.31a11.8,11.8,0,0,1,4.1,5.06,25.15,25.15,0,0,1,1.75,10.17C329.5,209.4,327.92,217,324.42,222.69Z" transform="translate(-318.77 -182.49)"/></svg>