<svg id="Layer_1" data-name="Layer 1" xmlns="http://www.w3.org/2000/svg" viewBox="0 0 16.22 45.11"><defs><style>.cls-1{fill:#231f20;}</style></defs><path class="cls-1" d="M161.32,60.89c0-2.42-3.7-2.42-3.75,0-.16,7.37.15,14.74,0,22.11a73.22,73.22,0,0,1-.56,9,17.44,17.44,0,0,1-1.89,6.42,3.46,3.46,0,0,1-3.58,1.92c-.09-.08-.07,0,0,0h0l-.24-.28-.21-.34c-.08-.15-.16-.3-.23-.46s-.18-.44-.21-.51c-.18-.53-.34-1.08-.47-1.63a43.39,43.39,0,0,1-1.06-8.57A125.5,125.5,0,0,1,149.8,68c.15-1.3.29-2.38.57-3.83.1-.52.21-1,.34-1.55.06-.22.13-.44.19-.67s.32-.81,0-.17a1.93,1.93,0,0,0-.68-2.56,1.88,1.88,0,0,0-2.56.67,25.23,25.23,0,0,0-1.51,6.86c-.43,3.38-.68,6.78-.83,10.19-.29,6.94-.48,14.35,1.19,21.14.55,2.23,1.56,5.26,4.1,5.89a3.47,3.47,0,0,0,.45.06h0c5.24.54,8-4,9-8.48,1.55-6.73,1.24-13.9,1.17-20.75C161.29,70.19,161.22,65.54,161.32,60.89Z" transform="translate(-145.18 -59.01)"/></svg>