<svg id="Layer_1" data-name="Layer 1" xmlns="http://www.w3.org/2000/svg" viewBox="0 0 15.01 47.26"><defs><style>.cls-1{fill:#231f20;}</style></defs><path class="cls-1" d="M159.42,96a1.87,1.87,0,0,0-2.3,1.31h0c-.51,3.74-1,7.46-1.59,11.19a20.64,20.64,0,0,1-1.95-2.54,31.88,31.88,0,0,1-4.08-8.65c-.7-2.31-4.32-1.32-3.62,1a32.71,32.71,0,0,0,8.94,14.78c-.81,4.94-1.7,9.86-2.77,14.77-.93,4.33-1.93,8.64-3,13-.56,2.34,3.06,3.34,3.61,1,2.26-9.56,4.36-19.13,5.94-28.81a2.51,2.51,0,0,0,.1-.61c.28-1.73.54-3.46.79-5.21.41-3,.79-5.91,1.19-8.87A1.94,1.94,0,0,0,159.42,96Z" transform="translate(-145.79 -95.97)"/></svg>