<svg id="Layer_1" data-name="Layer 1" xmlns="http://www.w3.org/2000/svg" viewBox="0 0 16.97 46.38"><defs><style>.cls-1{fill:#231f20;}</style></defs><path class="cls-1" d="M322.4,221.61c-.2.18-.41.35-.62.52l0,.05-.05,0-.23.17c-.41.27-.82.52-1.24.75l-.23.11-.48.16-.44.1-.18,0h-.45l0,0-.38-.11h0l-.07-.06-.38-.23h0l0,0c-.21-.21-.41-.42-.61-.65,0-.07-.41-.6-.48-.73a11.31,11.31,0,0,1-.53-1v0l-.09-.22c-.07-.21-.15-.41-.22-.62-.17-.47-.31-1-.44-1.44a30.19,30.19,0,0,1-.62-3.12c0-.1,0-.21-.05-.31v-.07c0-.27-.07-.54-.09-.82-.07-.59-.12-1.18-.16-1.77a62.93,62.93,0,0,1,.79-14.71,46.15,46.15,0,0,1,1.65-6.65c.16-.47.33-.94.51-1.4,0-.09.07-.18.11-.27l0-.06h0c.1-.23.2-.46.31-.69a20,20,0,0,1,1.26-2.21,1.21,1.21,0,0,0,.1-.16A.28.28,0,0,0,319,186c.14-.16.27-.32.42-.47s.26-.24.39-.37l.05-.06.05,0,.45-.28.07,0h0a2.2,2.2,0,0,0,.44-.12h0l.51,0c-.65,0-.12,0,.1.05l.18.06h0c.15.09.31.16.46.26a2.46,2.46,0,0,1,.34.22s.36.29.44.36a12.14,12.14,0,0,1,1.15,1.23c1.55,1.85,4.19-.81,2.65-2.66A8.49,8.49,0,0,0,322,181a5.82,5.82,0,0,0-5,1.7c-3.1,2.92-4.37,7.79-5.24,11.8a64.79,64.79,0,0,0-1.4,16.55c.2,4.31.65,9.41,3.14,13.1a6.52,6.52,0,0,0,5.07,3.16c2.49.08,4.7-1.43,6.49-3S324.21,220,322.4,221.61Z" transform="translate(-310.29 -180.88)"/></svg>