<svg id="Layer_1" data-name="Layer 1" xmlns="http://www.w3.org/2000/svg" viewBox="0 0 17.2 44.29"><defs><style>.cls-1{fill:#231f20;}</style></defs><path class="cls-1" d="M150.48,64.08a3,3,0,0,1,.08-.44c.05-.22.1-.44.17-.67s.11-.38.18-.57.08-.22.12-.31l.18-.37a6.22,6.22,0,0,1,.32-.56l.22-.32s.16-.21.23-.28l.33-.34.32-.26.78-.46h.14a5.69,5.69,0,0,1,.59-.16h1.41a2.38,2.38,0,0,1,.59.12,8.91,8.91,0,0,1,3,1.38c2,1.31,3.91-1.93,1.89-3.24a11,11,0,0,0-6.74-2,7.63,7.63,0,0,0-5.24,2.73c-2.82,3.4-3,8.43-1.42,12.41a16,16,0,0,0,5.21,6.73h0C156.09,81,159,86.2,156.76,91c-1.85,4-6.2,5.49-10.33,5a1.88,1.88,0,0,0,0,3.75c5.48.58,11.29-2,13.67-7.13,2.94-6.36-.19-13.09-4.61-17.86a2,2,0,0,0-.46-.36A11.64,11.64,0,0,1,151.39,70l-.17-.37c-.08-.2-.15-.4-.22-.6a14.52,14.52,0,0,1-.41-1.43l-.12-.68h0v-.3a10.92,10.92,0,0,1-.05-1.4v-.57C150.43,64.49,150.47,64.19,150.48,64.08Z" transform="translate(-144.69 -55.59)"/></svg>