<svg id="Layer_1" data-name="Layer 1" xmlns="http://www.w3.org/2000/svg" viewBox="0 0 17.13 42.54"><defs><style>.cls-1{fill:#231f20;}</style></defs><path class="cls-1" d="M303.31,252.77a2,2,0,0,0,.59.5,1.44,1.44,0,0,0,.39.2c7.12,3.49,9.12-9.17,9.6-13.54a66.77,66.77,0,0,0,.08-13.41c-.36-3.8-.93-7.81-2.65-11.27-1.5-3-4.57-4.89-7.68-2.89a7.73,7.73,0,0,0-4.06,4.42,30.35,30.35,0,0,0-2.08,8.77,49.28,49.28,0,0,0,1.61,20A15.64,15.64,0,0,0,303.31,252.77Zm2.73-2.6Zm.5-34.94h0l0,0Zm-.23,0Zm-5.11,21.6c-.55-5.63-.5-11.72,1.27-17.14a9.8,9.8,0,0,1,1.32-2.83,1.34,1.34,0,0,0,.11-.19l.14-.13c.12-.13.25-.25.38-.37l.32-.23a1.88,1.88,0,0,0,.62-.25l.06,0h0a5,5,0,0,1,.5-.29,3.43,3.43,0,0,0,.43-.13h.06c-.24,0,.56.29.11,0h0l.31.19.4.38.14.12a1.68,1.68,0,0,0,.1.2c.16.26.33.52.47.79s.23.46.33.7c0,0,.25.61.31.79.26.74.47,1.49.66,2.25a39.18,39.18,0,0,1,.87,5,66.56,66.56,0,0,1,.21,12.06,34.8,34.8,0,0,1-1.9,9.94c0,.06-.05.13-.08.2h0c-.08.17-.15.33-.23.49s-.31.59-.48.87l-.26.39s.24-.25-.05,0l-.28.3-.1.08a2.12,2.12,0,0,0-.4.23h-.21c.08,0,0-.09-.1,0l-.11,0s-.2-.1-.3-.15l-.29-.25c-.18-.18-.35-.36-.52-.55a1.54,1.54,0,0,1-.25-.32c-.18-.26-.35-.52-.51-.79a14.86,14.86,0,0,1-1.37-3A36.65,36.65,0,0,1,301.2,236.83Z" transform="translate(-297.14 -211.53)"/></svg>