<svg id="Layer_1" data-name="Layer 1" xmlns="http://www.w3.org/2000/svg" viewBox="0 0 17.39 45.79"><defs><style>.cls-1{fill:#231f20;}</style></defs><path class="cls-1" d="M245.63,209.23a6.31,6.31,0,0,0,4.35,1.51,6.73,6.73,0,0,0,4.39-2.19,15.06,15.06,0,0,0,3.26-6.46,2.54,2.54,0,0,0,.08-.43v0s0-.07,0-.12c0-5.6-.1-11.21.13-16.81.24-6,.77-12,1.23-17.91.19-2.41-3.56-2.4-3.75,0-.46,6-1,11.93-1.23,17.91-.23,5.51-.16,11-.13,16.54-.11.42-.23.83-.37,1.24-.07.22-.15.45-.24.67l-.07.18s-.12.27-.13.29c-.17.37-.36.73-.56,1.08l-.3.48c-.06.09-.31.4-.3.41-.17.19-.34.4-.53.58l-.25.22s0,0,0,0l-.11.08h0c-.09.08-.07.06,0,0l-.05,0a3.26,3.26,0,0,1-.4.24l0,0s0,0,0,0l-.1,0a.2.2,0,0,0-.08,0c-.1.06-.09,0,0,0-.2.06-.46.15-.53.16a1.82,1.82,0,0,1-.33,0h-.22l-.12,0-.4-.11h0c-.2-.14-.47-.25-.68-.38l0,0-.3-.26a3.45,3.45,0,0,1-.63-.69c.06.09.21.3.06.08a1.27,1.27,0,0,0-.13-.19c-.09-.13-.17-.27-.25-.4a10.41,10.41,0,0,1-.52-1l0,0-.07-.19c-.07-.19-.14-.38-.2-.58a11.64,11.64,0,0,1-.35-1.32c0-.24-.08-.5-.13-.74h0c0-.12,0-.23,0-.35-.05-.55-.07-1.11-.07-1.66a1.88,1.88,0,1,0-3.75,0C241.71,202.7,242.68,206.88,245.63,209.23Zm.69-5.27c0-.09-.08-.22,0,0Z" transform="translate(-241.7 -164.97)"/></svg>