<svg id="Layer_1" data-name="Layer 1" xmlns="http://www.w3.org/2000/svg" viewBox="0 0 15.78 46.53"><defs><style>.cls-1{fill:#231f20;}</style></defs><path class="cls-1" d="M63.54,86.88c0,2.41,3.76,2.42,3.75,0,0-10.31,0-20.57.62-30.86v-.77c2,7.59,3.85,15.23,5.71,22.85q.73,3,1.45,6a1.75,1.75,0,0,0,.18.74l.35,1.45c.56,2.34,4.18,1.35,3.62-1-.14-.56-.27-1.12-.41-1.68q-.07-19.8,0-39.6a1.88,1.88,0,0,0-3.75,0v24.1Q73,59.86,70.84,51.68c-.71-2.67-1.44-5.33-2.22-8a1.62,1.62,0,0,0-1.51-1.48,1.87,1.87,0,0,0-2.21,1.46,1.6,1.6,0,0,0,0,.44c-.65,10.56-1.35,21.09-1.37,31.68C63.5,79.48,63.52,83.18,63.54,86.88Z" transform="translate(-63.5 -42.16)"/></svg>