<svg id="Layer_1" data-name="Layer 1" xmlns="http://www.w3.org/2000/svg" viewBox="0 0 23.96 47.2"><defs><style>.cls-1{fill:#231f20;}</style></defs><path class="cls-1" d="M164.38,49.76a1.89,1.89,0,0,0-2.56.68,45.67,45.67,0,0,0-2.74,10.8c-1,6.33-1.68,12.72-2.24,19.11-.13,1.6-.25,3.19-.38,4.79-.11-.44-.24-.87-.34-1.31-1.16-4.75-2.06-9.56-3.06-14.35a1.58,1.58,0,0,0-1.79-1.33h0a1.53,1.53,0,0,0-1.79,1.19s0,.09,0,.14q-1.27,7.3-2.54,14.6a138.78,138.78,0,0,1-1.5-32.7c.18-2.4-3.57-2.39-3.75,0a144.58,144.58,0,0,0,3.55,43.44A1.65,1.65,0,0,0,147,96.16,1.53,1.53,0,0,0,148.8,95a.59.59,0,0,0,0-.13q1.31-7.41,2.59-14.82c.34,1.61.7,3.22,1.09,4.83a96.57,96.57,0,0,0,3.29,10.4,1.72,1.72,0,0,0,1.94,1.47,2.26,2.26,0,0,0,1.84-1.84l0-.17c.48-7.66,1.05-15.31,1.89-22.94a133.14,133.14,0,0,1,2.29-14.87c.21-.9.43-1.81.7-2.7.12-.39.25-.79.38-1.18.06-.16.12-.31.17-.46a1.46,1.46,0,0,0,.07-.19h0A2,2,0,0,0,164.38,49.76Z" transform="translate(-141.31 -49.51)"/></svg>