<svg id="Layer_1" data-name="Layer 1" xmlns="http://www.w3.org/2000/svg" viewBox="0 0 16.3 49.33"><defs><style>.cls-1{fill:#231f20;}</style></defs><path class="cls-1" d="M293.32,207.38c1,2.16,2.72,3.89,4.83,4.08a4.17,4.17,0,0,0,2,0,4.43,4.43,0,0,0,.3,1.9,13,13,0,0,0,3.22,4.46,1.87,1.87,0,1,0,2.65-2.65c-.32-.32-.64-.65-.95-1l-.39-.45a2.11,2.11,0,0,0-.19-.23c-.17-.25-.35-.5-.51-.77l-.19-.35a.91.91,0,0,1-.07-.14c0-.13-.1-.35-.13-.44s0,0,0,.05,0,0,0-.08v0a1,1,0,0,0,0-.17c0-.07,0-.08,0-.06v-.12a.47.47,0,0,1,0,.09.42.42,0,0,0,0-.13v-.06c0-.1,0-.16.05-.16s0-.09,0-.12a14.39,14.39,0,0,0,.54-2.15,4.17,4.17,0,0,0-.25-1.78,35.88,35.88,0,0,0,2.28-9.68,65.23,65.23,0,0,0,.08-13.4c-.36-3.81-.92-7.82-2.65-11.28-1.08-2.18-3-3.76-5.16-3.71A5.51,5.51,0,0,0,294,172c-1.92,3.06-2.5,7-2.93,10.49a65.14,65.14,0,0,0-.25,13.39A34.1,34.1,0,0,0,293.32,207.38Zm10.75,5,0-.09C304.06,212.36,304.08,212.4,304.07,212.4Zm-5.4-4.69Zm.21-34.86-.06,0h0Zm-4.29,11.82a37.89,37.89,0,0,1,.72-5.19c.17-.82.36-1.63.59-2.43.11-.35.22-.7.34-1.05a4.84,4.84,0,0,1,.18-.49l.15-.38.15-.34.24-.46c.15-.28.33-.55.5-.82l0,0,0,0,0,0a2.14,2.14,0,0,0,.54-.25,4.91,4.91,0,0,1,.5-.28l.21-.07.13,0,.06,0,.45.27a1.83,1.83,0,0,0,.56.25l0,0a1.2,1.2,0,0,0,.11.19c.16.26.32.52.46.79s.23.46.34.7c0,0,.24.62.3.79a22.26,22.26,0,0,1,.66,2.25,39.18,39.18,0,0,1,.87,5,66.66,66.66,0,0,1,.21,12.07,37.2,37.2,0,0,1-1.42,8.52c-.61-.5-1.24-1-1.86-1.43a1.9,1.9,0,0,0-2.57.67,1.93,1.93,0,0,0,.67,2.57l.6.43.05.05.24.19a11.59,11.59,0,0,1,.92.79l.26.27,0,0a2,2,0,0,0-.74.24,2.49,2.49,0,0,1-.28.15h-.05l-.33-.16a1.89,1.89,0,0,0-.72-.23l-.23-.25c0-.05-.27-.39-.34-.51a8.44,8.44,0,0,1-.45-.84l-.17-.36a.94.94,0,0,0-.06-.15c-.13-.36-.26-.71-.37-1.07-.25-.77-.45-1.55-.63-2.33a36.37,36.37,0,0,1-.79-5.07A66.77,66.77,0,0,1,294.59,184.67Z" transform="translate(-290.59 -169.07)"/></svg>