<svg id="Layer_1" data-name="Layer 1" xmlns="http://www.w3.org/2000/svg" viewBox="0 0 22.38 38.53"><defs><style>.cls-1{fill:#231f20;}</style></defs><path class="cls-1" d="M196.07,107.56c.53-1.18,1-2.4,1.42-3.58.29-.79.56-1.59.85-2.38.12-.34.25-.69.38-1l.21-.53v-.14a1.94,1.94,0,0,0-.67-2.57,1.9,1.9,0,0,0-2.57.67c-.56,1.28-1,2.58-1.49,3.89-.16.46-.33.93-.5,1.39-1.28-2.41-2.51-4.82-3.65-7.24a38.77,38.77,0,0,0,4.27-4.78,13.33,13.33,0,0,0,2.26-4.4A5.31,5.31,0,0,0,194,80.57a9.42,9.42,0,0,0-4.14-.87,1.68,1.68,0,0,0-1,.29c-2.74,1.31-5.65,2.78-5.91,6.18A12.76,12.76,0,0,0,184,91.61c.44,1.14.93,2.27,1.44,3.39a19.57,19.57,0,0,0-6.32,8.36c-1,2.66-1.64,6.26.06,8.79a5.11,5.11,0,0,0,4,2.25,8.62,8.62,0,0,0,9.55-1.77,12.08,12.08,0,0,0,1.09-1.28l3.22,6c1.07,2,4.38.24,3.23-1.89C199,112.82,197.51,110.2,196.07,107.56Zm-3-22.9Zm-6.26,1.11C186.75,85.89,186.69,86,186.81,85.77Zm-.1.52c0,.14.08-.33.13-.56s.12-.2.17-.29l.3-.31.23-.2.16-.11c.29-.18.57-.36.87-.53.56-.31,1.13-.59,1.7-.86h.65c.42.08.81.21,1.22.32l.2.1.25.15c.11.07.39.17.09.06h-.09a.55.55,0,0,1,.14.09l.16.17.1.16.06.13.06.24v.62a1,1,0,0,1-.07.29c-.07.26-.14.51-.23.76l-.09.24c0,.08-.13.26-.15.32A16.6,16.6,0,0,1,191.39,89c-.23.34-.47.68-.72,1s-.73.86-1.11,1.28-.74.77-1.11,1.15c-.11-.23-.22-.47-.32-.71-.32-.77-.77-2-1.06-2.91-.11-.39-.21-.78-.29-1.17l-.06-.32v-.39c0-.08,0-.45,0-.66Zm-4.24,23.9C182.39,110.08,182.33,110,182.47,110.19Zm9.33-2.51c-.17.29-.34.59-.53.87l-.26.39-.15.21h0c-.2.23-.39.47-.61.7a5,5,0,0,1-.36.35l-.25.22-.23.17-.41.26-.42.21h-.12l-.53.16-.37.07a8.34,8.34,0,0,1-1,0c-.18,0-.61-.11-.22,0l-.67-.13a12.38,12.38,0,0,1-1.22-.39h-.1l-.2-.08h-.08a1.49,1.49,0,0,0-.59-.06h-.22l-.27-.06h0l-.37-.22c.44.25.08,0-.05-.07h0c-.1-.18-.26-.53-.27-.48-.08-.29-.16-.56-.23-.85v-1.64c0-.08.06-.39.07-.45s.08-.39.12-.59a15,15,0,0,1,5-7.8l1.08,2.13c1.19,2.34,2.41,4.65,3.64,7Z" transform="translate(-178.15 -79.7)"/></svg>