<svg id="Layer_1" data-name="Layer 1" xmlns="http://www.w3.org/2000/svg" viewBox="0 0 18.03 46.1"><defs><style>.cls-1{fill:#231f20;}</style></defs><path class="cls-1" d="M155.39,83.22q3.27-8.1,6.68-16.17a1.94,1.94,0,0,0-.67-2.56,1.9,1.9,0,0,0-2.57.67c-1.75,4.14-3.47,8.3-5.17,12.45-.19-.6-.37-1.22-.56-1.82-1.1-3.4-2.22-6.79-3.33-10.18-.75-2.28-4.37-1.31-3.62,1q2.7,8.25,5.26,16.53-3.57,8.82-7,17.71c-.86,2.25,2.76,3.23,3.62,1q2.49-6.48,5.07-13c.72,2.49,1.43,5,2.11,7.5q1.71,6.33,3.39,12.66c.63,2.33,4.24,1.34,3.62-1C160,99.75,157.85,91.45,155.39,83.22Z" transform="translate(-144.28 -64.24)"/></svg>