<svg id="Layer_1" data-name="Layer 1" xmlns="http://www.w3.org/2000/svg" viewBox="0 0 19.78 45.4"><defs><style>.cls-1{fill:#231f20;}</style></defs><path class="cls-1" d="M307.56,167.75a.24.24,0,0,0-.06-.09,1.3,1.3,0,0,0-.18-.23h0l-.25-.22,0,0a2,2,0,0,0-.25-.14l-.14-.06-.13,0h-.06l-.21,0h-7.78a1.88,1.88,0,1,0,0,3.75h5.3a50.62,50.62,0,0,1-1.71,7.25c-.07.2-.15.4-.23.6h0l-.12.26a10.37,10.37,0,0,1-.62,1.13c-.55.9-1.19,1.74-1.81,2.59-.16.21-.45.58-.87,1.05s-.69.69-1.05,1l-.1.09-.09.06c-.14.09-.28.19-.42.27l-.34.18-.22.07-.11,0h.11c-.11,0-.22,0-.34,0a.52.52,0,0,0-.18-.07,3,3,0,0,0-.31-.15s-.43-.4-.58-.56h0l0-.05c-.09-.13-.18-.26-.26-.4a11.54,11.54,0,0,1-.58-1.1l0-.09,0-.09c-.06-.18-.14-.36-.2-.55-.17-.48-.32-1-.45-1.45a28.17,28.17,0,0,1-.66-3c-.05-.24-.09-.49-.12-.74s-.05-.31-.07-.46h0v0c-.07-.61-.14-1.22-.2-1.84a65.24,65.24,0,0,1-.21-7.53q0-1.93.21-3.87c0-.63.11-1.27.19-1.9.09-.84.09-.84.2-1.54A41,41,0,0,1,294,153c.15-.47.31-.92.49-1.38l.12-.31c.11-.24.22-.49.33-.72.19-.38.38-.75.6-1.11l.3-.47.19-.27,0,0c.26-.3.53-.57.81-.85l.07-.07.05,0,.45-.27.07-.05h.06l.44-.11h.17c.2,0,.76.12.1,0l.54.12a3,3,0,0,1,.32.11,10.63,10.63,0,0,1,1.13.65l0,0c-.09-.06.22.17.28.23s.42.37.62.57a17.05,17.05,0,0,1,1.4,1.54,1.9,1.9,0,0,0,2.65,0,1.92,1.92,0,0,0,0-2.66c-2.68-3.26-7-6-10.83-2.84-3.31,2.74-4.5,7.82-5.25,11.84a65.83,65.83,0,0,0-.93,16.82c.31,4.18.79,9.28,3.32,12.81a5.18,5.18,0,0,0,5.31,2.42c2.42-.52,4.19-2.64,5.59-4.52a20.63,20.63,0,0,0,3.13-5.39,68.34,68.34,0,0,0,2.19-9.72,1.67,1.67,0,0,0,.06-.5,1.93,1.93,0,0,0-.23-.85A1,1,0,0,0,307.56,167.75Zm-12.93-16.46h0C294.51,151.58,294.59,151.38,294.63,151.29Z" transform="translate(-288.1 -143.57)"/></svg>