<svg id="Layer_1" data-name="Layer 1" xmlns="http://www.w3.org/2000/svg" viewBox="0 0 16.9 48.02"><defs><style>.cls-1{fill:#231f20;}</style></defs><path class="cls-1" d="M310.19,229.58c2.39-5.57,2.64-13-1.59-17.76a10.21,10.21,0,0,0-3.21-2.39,16.64,16.64,0,0,0,2.74-3.58c2.29-4,3.5-10-.32-13.59-2.64-2.46-6.52-2.81-10-2.52a2.15,2.15,0,0,0-.87.26,1.68,1.68,0,0,0-1,1.61c0,14.49-.71,29-1,43.46v.19a2.28,2.28,0,0,0,0,.26,1.65,1.65,0,0,0,1,1.33l.35.17C302.5,239.39,307.87,235,310.19,229.58Zm-7.7-17.3a7.08,7.08,0,0,1,2.85,1.57,7.22,7.22,0,0,1,1.87,2.66,2.41,2.41,0,0,1,.21.54c.1.29.19.57.27.86s.14.53.19.8.07.36.11.54l.05.33a15.76,15.76,0,0,1-.87,7.49,12.29,12.29,0,0,1-3.66,5.55l-.05,0h0c-.15.11-.3.22-.46.32s-.56.33-.84.47l-.1.05-.41.15c-.28.09-.56.15-.85.22l-.25,0-.37,0c-.31,0-.61,0-.92,0l-.44-.09c.14-7.2.37-14.41.58-21.61a6,6,0,0,0,1.85-.21A10,10,0,0,1,302.49,212.28Zm-.51-4.8c-.09.08-.25.18,0,0Zm-.57-14,.31,0,.42.07a10.8,10.8,0,0,1,1.66.47h0l.05,0,.37.18c.23.13.45.27.67.42h0l.19.17c.18.16.33.34.5.51h0l.12.17c.13.23.25.48.39.7a1.72,1.72,0,0,1,.07.21c.07.22.14.44.19.67a5.4,5.4,0,0,1,.11.58c-.11-.61,0,.23,0,.4a11.22,11.22,0,0,1,0,1.3s0,.07,0,.11l0-.1-.06.38c-.05.25-.1.5-.17.76a13.86,13.86,0,0,1-.42,1.39c0,.09-.21.53-.23.57-.08.2-.17.39-.27.59a16.31,16.31,0,0,1-1.53,2.49l-.27.33c-.16.19-.33.38-.5.56-.33.34-.68.64-1,1v0l-.3.21-.56.35-.36.16q-.64-.06-1.29-.06c.12-4.91.21-9.82.23-14.73h.54C300.64,193.42,301,193.44,301.41,193.48Z" transform="translate(-295.01 -189.65)"/></svg>