<svg id="Layer_1" data-name="Layer 1" xmlns="http://www.w3.org/2000/svg" viewBox="0 0 104.69 125.09"><defs><style>.cls-1{fill:#231f20;}</style></defs><path class="cls-1" d="M256.28,308.49a1.4,1.4,0,0,0-.06-.41.28.28,0,0,0,0-.09,78.08,78.08,0,0,0-6.39-21.68c-4.77-10-12.61-18.53-23.3-22.22A41.9,41.9,0,0,0,211.33,262c4.09-2.12,6.82-5.87,6.82-10.16,0-4.45-2.94-8.32-7.28-10.38.12-.41.25-.81.39-1.21a18.38,18.38,0,0,1,.87-2.08,31.75,31.75,0,0,1,2-3.47c1-1.57,2.57-3.51,1.49-5.45a4.45,4.45,0,0,0-2.32-1.78,2.25,2.25,0,0,0-3.13-.93c-1.1.68-1.4,2.18-1.63,3.36-.68,3.4-1,6.87-1.5,10.31a17.09,17.09,0,0,0-3.39-.35,16.92,16.92,0,0,0-5.72,1,20.67,20.67,0,0,1-1.56-5c0-.13-.05-.27-.07-.41,0,.06-.05-.37-.05-.45,0-.37-.07-.74-.08-1.11,0-.62,0-1.25,0-1.88a10.87,10.87,0,0,0-.09-3,3,3,0,0,0-2.56-2.23,13.48,13.48,0,0,0-4.83.66l-.09,0h0a1.69,1.69,0,0,0-.31.13h0l-.08.06a.91.91,0,0,0-.16.11,3.54,3.54,0,0,0-1.06,4.26,24.58,24.58,0,0,0,3.89,6.23c1.13,1.47,2.31,2.91,3.5,4.34a11.25,11.25,0,0,0-5.15,9.15c0,4.3,2.75,8.06,6.86,10.17a30,30,0,0,0-3.15.32A43.18,43.18,0,0,0,180,266.78,53.67,53.67,0,0,0,156.54,290a47,47,0,0,0-4.95,20.91,1.71,1.71,0,0,0,1.23,1.71,2.7,2.7,0,0,0,.65.17,46.11,46.11,0,0,0,20.35-1.63,37.88,37.88,0,0,0,8.56-4.16c2.11,6.76,5.61,13.91,11.11,18.35a1.62,1.62,0,0,0,.69.54,19.14,19.14,0,0,0,9.36,3.75l.51,0c0,6.62-.08,13.24,0,19.87,0,2.41,3.78,2.42,3.75,0-.08-6.64,0-13.28,0-19.92,7.09-.8,13.56-5.45,17.49-11.3a23.93,23.93,0,0,0,4-10.72,36.15,36.15,0,0,0,15.18,3.52,72,72,0,0,0,10-.73h.07a1.49,1.49,0,0,0,.43-.05,2,2,0,0,0,1.38-1.81Zm-54-32c.3-1.15.57-2.31.82-3.48,3.68,10.41,8.81,20.74,16.87,28.22-10.52.49-21,.82-31.57.87C195.43,295.17,199.82,285.89,202.32,276.47Zm-9.21-45.86Zm19.33.64.07,0c.06.06.07.06,0,0l.06,0S212.49,231.3,212.44,231.25Zm-19.34-.66v0C193.21,230.57,193.18,230.58,193.1,230.59Zm-37.71,78.6a44.34,44.34,0,0,1,12.68-29c6.43-6.64,14.84-11.92,23.91-13.9a21.42,21.42,0,0,1,5.53-.58c.43,0,.86.05,1.29.08l.19,0,.15,0,.58.11c.26,0,.51.13.77.2,0,.2,0,.4-.07.6l-.06.52v.06l0,.12c-.05.38-.11.77-.17,1.15-.28,1.75-.64,3.49-1,5.22A65.9,65.9,0,0,1,195,286c-4.16,9-10.78,17-20.14,20.77A41.16,41.16,0,0,1,155.39,309.19ZM205.27,326a14.36,14.36,0,0,1-1.61-.13c1.67,0,3.35-.11,5-.19A16.16,16.16,0,0,1,205.27,326Zm12.09-4.49a1.85,1.85,0,0,0-.41,0c-7.11.45-14.22.75-21.34.77-.18-.15-.37-.29-.55-.45a25.64,25.64,0,0,1-4.77-5.87c10.89,0,21.79-.41,32.67-1A23,23,0,0,1,217.36,321.48Zm7.32-10.37c-12,.63-24.09,1.06-36.14,1.06l-.2,0a52.66,52.66,0,0,1-2.37-6.34h0c12.81,0,25.62-.44,38.41-1.1.41.28.83.56,1.24.82A18.62,18.62,0,0,1,224.68,311.11Zm16.37-4-.57-.07-.32,0c-.45-.06-.89-.13-1.33-.21-.91-.17-1.81-.37-2.7-.61-9-2.43-16.16-9.19-21.25-17.23a95,95,0,0,1-10-22.59,43.8,43.8,0,0,1,18.79.74,32.75,32.75,0,0,1,13.81,8c6.75,6.54,10.69,15.26,13.1,24.22.66,2.47,1.2,5,1.64,7.5-2.07.24-4.13.43-6.21.47A43.81,43.81,0,0,1,241.05,307.15Z" transform="translate(-151.59 -226.24)"/></svg>