<svg id="Layer_1" data-name="Layer 1" xmlns="http://www.w3.org/2000/svg" viewBox="0 0 184.57 164.14"><defs><style>.cls-1{fill:#231f20;}</style></defs><path class="cls-1" d="M422.91,425.15l-.06,0h.06Z" transform="translate(-369.75 -340.96)"/><path class="cls-1" d="M423,425.22l0,0-.05,0h-.06A.16.16,0,0,0,423,425.22Z" transform="translate(-369.75 -340.96)"/><path class="cls-1" d="M409.87,477.77c.23-.25.11-.15,0,0Z" transform="translate(-369.75 -340.96)"/><path class="cls-1" d="M552.67,377.62a1.57,1.57,0,0,0-2,1.3h0l0,.1a8.52,8.52,0,0,1-.23,1c-.06.18-.12.36-.19.55s-.07.19-.11.29l0,0a13.66,13.66,0,0,1-1.29,2.22,24.37,24.37,0,0,1-4,4.11,63.59,63.59,0,0,1-12.51,7.56c-9.73,4.75-20,8.27-30.22,11.81-2.57.9-5.18,1.77-7.74,2.75,3-8.45,6.49-16.71,9.19-25.25a74.14,74.14,0,0,0,3.17-13.93,23.64,23.64,0,0,0-1.12-11.44,15,15,0,0,0-9.41-8.48,1.56,1.56,0,0,0-1.92.59,1.72,1.72,0,0,0-.45,1.21,69.88,69.88,0,0,1-1.05,10.65,164,164,0,0,1-3.77,17.68c-3.86,14.28-9.54,28.43-18.46,40.34a62.45,62.45,0,0,1-11.89,12.14,135.89,135.89,0,0,0,7.63-15,36.28,36.28,0,0,0,2.84-9.47c.28-2.29.08-4.95-1.66-6.66a7,7,0,0,0-5.41-1.71,120.68,120.68,0,0,0,5-14.34,38.66,38.66,0,0,0,1.79-12c-.16-3.08-1-6.24-3.69-8.1-2.37-1.67-5.39-1.72-8.24-1.2.06-.16.11-.33.17-.5a81.68,81.68,0,0,0,3.55-11.53c.47-2.47.77-5.53-1.24-7.44-2.57-2.44-7-1.24-10-.28-8.29-2.57-10.35,9.05-11.23,14.81-1.79,11.74-2.24,23.68-5.28,35.21-1.56,5.94-3.81,12-7.94,16.66h0a1.53,1.53,0,0,0-.29.37c-1.86,3.13-.1,6.3,1.61,9,2.75,4.38,5.22,8.75,6.61,13.78a52,52,0,0,1,1.71,13.66,1.88,1.88,0,0,0,.06.49h0a34.44,34.44,0,0,1,.37,8.05,2,2,0,0,0-.94-.32,66.83,66.83,0,0,0-7-.14c.14-6.29.8-12.56,1-18.85a55.64,55.64,0,0,0-.34-9.57c-.29-2.07-.84-4.68-2.77-5.87a3.85,3.85,0,0,0-3.66-.18,87.18,87.18,0,0,0-.16-11.08,59.91,59.91,0,0,0-2.59-14.1c-.88-2.66-2.09-6-4.59-7.61s-4.83.17-5.86,2.46a16.58,16.58,0,0,0-.93,2.73,126.17,126.17,0,0,1-.09-14c.17-4.81,1-12.89-5-14.65-2.95-.88-6.3,0-9.3,1.05.67-5.91,1.16-12.28-2.44-17.23-3-4.15-7.74-6.48-12.43-8.24a1.7,1.7,0,0,0-1-.09c-8.4-.26-7.29,11.89-6.79,17.38,1.2,13.05,3.7,25.93,4.24,39.05a94,94,0,0,1-1.73,24.26h0a6.72,6.72,0,0,0,.3,6.53c1.44,2.13,3.8,3.51,6,4.77,3,1.73,6,3.36,8.79,5.3a45.66,45.66,0,0,1,9.53,8.73,48.88,48.88,0,0,1,8.41,16.29,25,25,0,0,0-2.48,2.36,37.92,37.92,0,0,0-6,9.52c-.78,1.68-1.49,3.39-2.26,5.07a1.77,1.77,0,0,0-.15.31,33.24,33.24,0,0,1-1.62,3.14c-.19.31-.38.61-.58.9l-.25.35c-.05.06-.13.17-.19.23q-.31.38-.66.72l-.42.38,0,0h0c-.28.18-.55.36-.84.52l-.28.13-.31.11c-.32.09-.63.17-1,.23.21,0,.19,0-.17,0l-.65,0a1.73,1.73,0,0,0-1.37.61,1.81,1.81,0,0,0-.44.77A1.93,1.93,0,0,0,387,491a1.63,1.63,0,0,0,.46.11,32.52,32.52,0,0,1,4.36.93,21.32,21.32,0,0,1,3.34,1.28,41,41,0,0,1,5.82,3.62,39.51,39.51,0,0,0,14.59,6.92,67.1,67.1,0,0,0,15.36,1.23,2.21,2.21,0,0,0,.47-.07h0c14.35-2.87,29.56-7.14,40.72-17.1,9-8,13.62-19.21,16.41-30.67,2-8.13,3.22-16.42,4.44-24.69a3.59,3.59,0,0,1,.14-.43l0-.07.44-.69c.06-.05.47-.55.57-.66a11.13,11.13,0,0,1,.95-.87l.28-.23.41-.31c.4-.29.81-.56,1.22-.83.93-.6,1.88-1.15,2.85-1.67,4.88-2.65,10-4.8,15.09-7.1,11.42-5.2,23.76-11,31.95-20.87a30.45,30.45,0,0,0,7.4-19.41A1.73,1.73,0,0,0,552.67,377.62Zm-87.55,27.44c.1.19,0,.09,0,0Zm-8.49-57.5,0,0h0Zm0,0h0l0,0ZM445,349.26Zm-17.49,65.13c0,.16,0,.14,0,0Zm0,.49c0,.16,0,.22,0,0ZM423,425.2h0l.05,0Zm0,0H423C423,425.14,423.08,425.14,423.08,425.16Zm-.2,0h-.07S422.81,425.08,422.88,425.13ZM412,392.21l0,0h0Zm0,0Zm.23-.17-.07,0S412.2,392,412.21,392Zm-36.6,33.08c0,.12,0,.11,0,0Zm17,12.2a77.07,77.07,0,0,0-9.35-6.12c-1.27-.72-2.54-1.43-3.78-2.2q-.8-.48-1.56-1l-.32-.24,0,0h0c-.22-.18-.44-.36-.65-.55s-.38-.38-.56-.57l-.18-.18a.72.72,0,0,0-.09-.16l-.33-.59v0a3.18,3.18,0,0,0-.1-.33,1.7,1.7,0,0,1,0-.22V425c0-.17.06-.64,0-.62,0-.2.08-.39.14-.59a3.71,3.71,0,0,1,.16-.47,2,2,0,0,0,.27-.64c3-13.7,2.1-27.95.45-41.78-.73-6.11-1.65-12.2-2.38-18.32-.53-4.46-1.1-9.06-.62-13.54V349a1.86,1.86,0,0,0,0-.26l.12-.64a9.6,9.6,0,0,1,.31-1.17,2.86,2.86,0,0,1,.15-.41,2.21,2.21,0,0,1,.12-.27c.08-.15.44-.65.41-.65.19-.18.49-.44.39-.39l.3-.19c.3-.19.2-.07.08,0l.46-.13c.34-.11.23,0,.12,0a8,8,0,0,1,.85,0c3.72,1.41,7.57,3.26,10,6.45a11.26,11.26,0,0,1,1.77,3.57,14.06,14.06,0,0,1,.59,4.12,73.63,73.63,0,0,1-.72,10.16,2.48,2.48,0,0,0,0,.27l-.06.62a81.68,81.68,0,0,0-.45,13.54A61.78,61.78,0,0,0,392.68,403a1.93,1.93,0,0,0,2.31,1.3,1.89,1.89,0,0,0,1.31-2.3A58.71,58.71,0,0,1,392,384.43a78.39,78.39,0,0,1,.3-13.7,35.74,35.74,0,0,1,4.72-1.46,11.48,11.48,0,0,1,2-.3c.31,0,.63,0,.95,0l.35,0h.16c.26,0,.5.11.75.18l.18,0,.14.1c.09.05.4.29.41.28l.27.27c.05.13.58,1.07.43.69a8.64,8.64,0,0,1,.46,1.6l.09.55c0,.28.07.57.09.85.06.72.08,1.45.09,2.18,0,1.61,0,3.22-.09,4.83-.15,4-.29,8-.09,11.95A58,58,0,0,0,405.93,408a1.92,1.92,0,0,0,3,1.06l.16-.12h0a1.53,1.53,0,0,0,.59-1.56c0-4.38,0-9.05,1.37-13.25.08-.25.16-.49.26-.73,0,0,.22-.48.27-.57s.17-.28.26-.41l.16-.17.07,0,.09.08.47.49,0,0,.22.32c.19.29.37.58.54.88a18.74,18.74,0,0,1,1.6,3.87,56.79,56.79,0,0,1,2.33,12.48,88.72,88.72,0,0,1-.05,14.85,1.34,1.34,0,0,0,0,.2c-.13,1.41-.27,2.82-.46,4.23a1.89,1.89,0,0,0,1.88,1.88,1.92,1.92,0,0,0,1.87-1.88c.14-1.06.26-2.12.36-3.19l.27-.25c.08-.08.48-.4.48-.41a5.91,5.91,0,0,1,.52-.35c.11-.07.47-.22.48-.24l.22-.07h0a.13.13,0,0,1,0-.05l.06,0h.05l0,0,0,0h0a.76.76,0,0,1,.08.11,1.2,1.2,0,0,1,.1.19c0,.06.15.29.18.36s.14.36.19.54a14.78,14.78,0,0,1,.55,2.92c.61,6.25,0,12.63-.41,18.87-.17,2.76-.34,5.53-.41,8.3A34.76,34.76,0,0,0,408.8,461C405.66,451.77,400.38,443.41,392.6,437.31Zm6,47.81c0,.13.06.24,0,0v0Zm-4.9,3.64a13.07,13.07,0,0,0,1.63-1.84,2.82,2.82,0,0,0,1,1,2.23,2.23,0,0,0,.66.25v0c0,.12,0,.25.08.38s0,0,0,.08c0,.38.08.75.11,1.13,0,.12,0,.25,0,.37A26.31,26.31,0,0,0,393.7,488.76Zm91.88-35.33a84.8,84.8,0,0,1-5.35,17,44.27,44.27,0,0,1-9.12,13.32,51.2,51.2,0,0,1-14.67,9.82c-8.13,3.76-16.95,6-25.71,7.78-7.31.12-15.15-.36-21.66-3.68a81.49,81.49,0,0,1-8.05-5.23,32.69,32.69,0,0,0-.32-4.64,4.44,4.44,0,0,0-1.07-2.51,2.48,2.48,0,0,0-1.14-.63l0-.11s0-.06,0-.09,0-.24,0-.36c-.07-.84-.09-1.69-.09-2.53l.94-2.11a49.62,49.62,0,0,1,5.08-9.37,24.34,24.34,0,0,1,1.68-2,25.71,25.71,0,0,1,2.14-2,24.62,24.62,0,0,1,5.47-3.36A33.45,33.45,0,0,1,425,460.07a2,2,0,0,0,.6,0,67.56,67.56,0,0,1,8.43.11,2.35,2.35,0,0,0,.38,0,16.61,16.61,0,0,1-2.76,6c-2.89,3.88-7.34,6.31-11.6,8.48a17,17,0,0,0-4.07-1.44,10.83,10.83,0,0,0-6.05.21,6,6,0,0,0-3.73,3.49,4.65,4.65,0,0,0,1.05,4.59c1.57,1.82,4.14,2.42,6.41,2.72a1.64,1.64,0,0,0,1.44-.69,2.72,2.72,0,1,0-3.77-3.68l-.17-.08c-.17-.09-.35-.18-.51-.28a3.37,3.37,0,0,1-.31-.21l-.12-.1c-.1-.09-.19-.19-.29-.3h0a2.4,2.4,0,0,1-.16-.27h0a1.66,1.66,0,0,1-.06-.21v0a1.38,1.38,0,0,0,0-.14s0,0,0-.06,0-.1,0-.15l.07-.11.07-.09-.11.11h0c.08-.09.16-.19.25-.28a2.39,2.39,0,0,1,.23-.22l.08-.05a2.6,2.6,0,0,1,.36-.21c.18-.11.73-.28.06-.06.31-.1.61-.22.93-.3a4.59,4.59,0,0,1,.51-.1l.18,0a8.56,8.56,0,0,1,1.24,0c.21,0,.42,0,.62.05h0l.32.05a13,13,0,0,1,1.66.41c.29.09.57.19.85.3l.42.16.19.08a23.68,23.68,0,0,1,3.43,1.95,1.57,1.57,0,0,0,.82.53,1.43,1.43,0,0,0,.58.12c9.14,1.67,18.68,2.19,27.76-.16a41.32,41.32,0,0,0,18-10c8.31-7.89,12.48-18.36,17.37-28.45a38.3,38.3,0,0,1,2.94-5.23C487.77,442.13,486.82,447.81,485.58,453.43Zm-75.95,24.75a.27.27,0,0,1,0-.1Zm.05-.12h0s0,.05,0,.08Zm0,0v0ZM530.86,407.3c-10.31,6.37-21.75,10.34-32.4,16-3.11,1.65-7.22,3.83-8.74,7.28-2.89,1.23-4.75,4.33-6.16,7-2.26,4.24-4.05,8.73-6.18,13-5.43,10.95-12.86,20.66-24.66,24.84-9.2,3.26-19.21,3-28.71,1.3a36.47,36.47,0,0,0,8.48-6,21,21,0,0,0,6-12.46,37.58,37.58,0,0,0-.28-10.16,51.4,51.4,0,0,0-4.4-21.54c-1.72-3.71-4.31-6.93-6-10.61l0,0a.64.64,0,0,1,0-.07c-.06-.19-.13-.36-.18-.55s-.07-.31-.11-.47v-.08c0-.14,0-.28,0-.42l0-.1.13-.37.12-.23c7.52-8.7,9.78-21,11.32-32,.82-5.84,1.38-11.7,2.11-17.55.52-4.18,1.07-8.61,2.59-12.64l.08-.2.06-.14c.09-.2.19-.4.29-.6.19-.37.4-.72.62-1.07a1.22,1.22,0,0,1,.13-.19c.11-.13.22-.27.35-.4l.37-.35,0,0,.07,0a2.88,2.88,0,0,0,.38-.22l.06,0h.08l.42-.11.06,0h.69l.06,0c.29.06.56.14.84.22a2.06,2.06,0,0,0,1.92,0c.76-.23,1.52-.45,2.3-.63a10.8,10.8,0,0,1,2.12-.33c.28,0,.55,0,.83,0l.34,0,.09,0,.49.14c-.12,0,.32.27.24.15l.11.12c0,.1.15.32.17.3l.09.32a.8.8,0,0,1,0,.15,3.11,3.11,0,0,1,0,.32c0,.54,0,1.07-.06,1.61,0,.05,0,.07,0,.1a.78.78,0,0,0,0,.09l-.09.54c-.07.38-.15.76-.24,1.15a105.35,105.35,0,0,1-3.55,11.15c-1.68,4.8-3.33,9.61-4.71,14.5a108.37,108.37,0,0,0-3.78,20c-.21,2.41,3.54,2.39,3.75,0,.87-10.12,3.7-19.85,6.95-29.43a15.85,15.85,0,0,1,4.37-.71,5.69,5.69,0,0,1,3,.7c.11.06.22.14.33.21h0l0,0a4.76,4.76,0,0,1,.55.55l0,.05,0,.06a2.46,2.46,0,0,1,.17.27,7.44,7.44,0,0,1,.42.79c0,.07.17.49.2.59a8.24,8.24,0,0,1,.24,1A10,10,0,0,1,465,374a36.13,36.13,0,0,1-1.67,10.71,119,119,0,0,1-4.81,13.66c-.41,1-.85,2-1.29,3a1.51,1.51,0,0,0-.18.44c-1.85,4.25-3.84,8.43-5.89,12.58-1.07,2.15,2.16,4.05,3.23,1.89,2-4,4-8.13,5.82-12.28a10,10,0,0,1,2.95-.23h.14l.18.05.63.18.26.14.13.07.12.12a2.53,2.53,0,0,1,.23.26,3.72,3.72,0,0,1,.22.38c0,.09.07.18.09.27s.11.46.15.69c0,.07,0,.41,0,.48,0,.25,0,.5,0,.75a9.52,9.52,0,0,1-.13,1.36c-1.11,6.44-4.5,12.55-7.59,18.22-2,3.68-4.14,7.29-6.31,10.88a1.53,1.53,0,0,0-.39.87,2,2,0,0,0,2.26,2.14h0l.25-.06.2-.09.09,0a52.6,52.6,0,0,0,5.67-3.58,7.07,7.07,0,0,1,2.5,1.07,3.19,3.19,0,0,1,1.28,1.86c.45,1.67-.25,3.88-1.12,5.69a42.59,42.59,0,0,1-10.6,13.12c-1.82,1.59.84,4.24,2.65,2.65a49.64,49.64,0,0,0,10-11.74c2.1-3.52,4.27-8.51,1.94-12.45a7.68,7.68,0,0,0-3.23-2.88c9.09-7.65,15.88-18,20.89-28.67A154.74,154.74,0,0,0,496,365.49a103.91,103.91,0,0,0,1.37-10.59A10.42,10.42,0,0,1,502,360c1.29,3.08,1.26,6.82.89,10.2-1,9.23-4.72,18.2-8,26.82-1.82,4.82-3.69,9.64-5.31,14.54a1.48,1.48,0,0,0-.3,1.07,1.76,1.76,0,0,0,1.73,1.84,2,2,0,0,0,1.12-.17l.81-.37.13-.05.08,0,.56-.23c.79-.32,1.59-.62,2.4-.92,1.95-.73,3.92-1.41,5.89-2.1,5-1.74,10-3.46,15-5.32,10.23-3.82,21-7.95,29.64-14.74.7-.54,1.39-1.11,2.06-1.73C545.36,396.65,538.3,402.7,530.86,407.3Z" transform="translate(-369.75 -340.96)"/></svg>