<svg id="Layer_1" data-name="Layer 1" xmlns="http://www.w3.org/2000/svg" viewBox="0 0 57.68 96.03"><defs><style>.cls-1{fill:#231f20;}</style></defs><path class="cls-1" d="M262.24,285.08c-.16.29-.08.15,0,0Z" transform="translate(-226.62 -261.89)"/><path class="cls-1" d="M284.28,330.4a51.84,51.84,0,0,0-3.45-19.8c-1.46-3.54-3.7-8-7.54-9.4a4.47,4.47,0,0,0-4.72.94,1.62,1.62,0,0,0-.54,1.58,40.77,40.77,0,0,1,0,4.69c0,.32-.05.65-.08,1l-.06.53a.77.77,0,0,1,0,.15h0c-.09.62-.2,1.24-.34,1.85s-.27,1.08-.45,1.61c-.07.22-.15.44-.23.66l-.09.21a.54.54,0,0,1-.05.11,9.71,9.71,0,0,1-.61,1.15l-.31.47-.12.14c-.2.22-.42.42-.64.63l-.08.05a4,4,0,0,1-.39.23l-.36.1h-.29l-.29-.07-.31-.17,0,0-.26-.23-.24-.27-.08-.12a8.05,8.05,0,0,1-.5-.91c0-.09-.06-.18-.1-.28a6.32,6.32,0,0,1-.18-.62,6.2,6.2,0,0,1-.16-.72c0-.11,0-.22-.06-.33a14.7,14.7,0,0,1-.09-1.63c0-4.86,3.05-7.91,6.39-11.07,2.93-2.78,5.87-6.1,4.49-10.45-1.08-3.43-3.86-6.17-6.45-8.53l-.06,0a1.83,1.83,0,0,0-1.27-.51,1.8,1.8,0,0,0-1.57.92,1.75,1.75,0,0,0-.34,1.1c0,.12,0,.23-.07.35a9,9,0,0,1-.25.89c0,.13-.09.26-.14.39a1.12,1.12,0,0,1-.05.13.41.41,0,0,1,.06-.11c-.15.26-.25.54-.39.81s-.29.51-.45.76l-.22.33a2.62,2.62,0,0,1-.17.21,9,9,0,0,1-.9.95l-.15.13-.1.07a5.3,5.3,0,0,1-.57.33l-.16.05-.18.05h-.13l-.14-.08-.11-.11a.43.43,0,0,0,0-.07,1.65,1.65,0,0,1-.14-.26s0,0-.1-.21a8.25,8.25,0,0,1-.28-1c0-.2-.07-.4-.11-.6l0-.34c0-.46-.05-.92-.06-1.39.07-.26.13-.52.21-.78s.11-.33.17-.5a3,3,0,0,0,.11-.3,2.6,2.6,0,0,1,.12-.24c0-.11.1-.22.16-.33s.26-.45.4-.67l.21-.3h0l.36-.44.82-.9a12.38,12.38,0,0,0,2.78-7.3,54.12,54.12,0,0,0-.12-9.09,1.69,1.69,0,0,0-.8-1.53,1.79,1.79,0,0,0-1.08-.35,2,2,0,0,0-1.46.72l-.06.07a1.57,1.57,0,0,0-.35,1.09c-.06,5.07-4.63,8.38-8.14,11.56-4.47,4-8,8.7-8.07,15,0,4.56,1.73,8.19,4.3,11.85a27.53,27.53,0,0,1,3,5,19.82,19.82,0,0,1,1.34,7.55c0,.12,0,.23,0,.35s-.09.45-.16.67-.07.21-.1.32l0,0c-.1.21-.19.41-.3.61s-.26.42-.4.62h0c-.25.27-.2.23-.11.13l-.12.14c-.15.17-.31.33-.48.49l-.29.26h0a4.79,4.79,0,0,1-.53.34l-.26.14h0a5,5,0,0,1-.51.16l-.08,0h-.21l-.16-.05a.57.57,0,0,1-.13-.08h0l-.15-.15a1,1,0,0,0-.11-.16l-.17-.29a.36.36,0,0,0,0-.09c-.1-.31-.21-.61-.28-.93s-.1-.45-.14-.68a1.38,1.38,0,0,0,0-.2c.12.61,0,.1,0-.05,0-.53-.07-1.07-.07-1.61.42-7.35-4.52-15.26-11.72-17.38a1.66,1.66,0,0,0-1.78.47,1.63,1.63,0,0,0-.53,1.84c1.76,5.76,3.06,12.08.93,17.89a30.26,30.26,0,0,1-2.67,5,41.5,41.5,0,0,0-2.82,5,19.25,19.25,0,0,0-1.65,7.77c-.6,13.71,14.86,22.56,27,22.52a28.48,28.48,0,0,0,29.21-18.32A23.47,23.47,0,0,0,284.28,330.4Z" transform="translate(-226.62 -261.89)"/></svg>