<svg id="Layer_1" data-name="Layer 1" xmlns="http://www.w3.org/2000/svg" viewBox="0 0 45.65 45.86"><defs><style>.cls-1{fill:#231f20;}</style></defs><path class="cls-1" d="M237.1,245.93a2.39,2.39,0,0,0-.28-.72c-2.44-4.12-6.38-8.29-11.61-7.73-3.53.37-6.38,2.36-9,4.6-2.54-2.2-5.32-4.55-8.64-5.07-5-.78-9,2.76-12.13,6.22a2.4,2.4,0,0,0-.28.37,1.34,1.34,0,0,0-.11.14c-4.35,6.4-2.39,14.24,1.36,20.4,4.47,7.36,11.12,13.34,18.1,18.25a2.41,2.41,0,0,0,2.53,0l.22-.17.05,0c8.6-6.56,18.91-14.05,20.65-25.52A24.22,24.22,0,0,0,237.1,245.93Zm-11.7-3.47c-.15,0-.24,0,0,0Zm.15,0-.09,0Zm7.25,14.62a22.24,22.24,0,0,1-4.19,8.37c-3.58,4.6-8.28,8.22-12.87,11.72a57,57,0,0,1-14.64-14.9,21.63,21.63,0,0,1-3.53-8.71,10.33,10.33,0,0,1,1.62-7,33.68,33.68,0,0,1,2.54-2.53,10.68,10.68,0,0,1,2.05-1.45l.57-.29,0,0,.11,0c.33-.11.67-.17,1-.28l0,0,.52,0,.51,0h0c.33.09.67.16,1,.26l.14,0,.33.15A13.36,13.36,0,0,1,210,243.5c.32.22.63.45.94.68l.29.23.54.44c.67.55,1.32,1.11,2,1.67a2.82,2.82,0,0,0,3.93.79,27.29,27.29,0,0,0,2.89-2.36l.3-.23.1-.08c.33-.24.66-.48,1-.7s.62-.39.94-.56.37-.2.56-.3.64-.26.13-.07a11.79,11.79,0,0,1,1.14-.39l.54-.13.19,0h0a11,11,0,0,1,1.15,0h.06l0,0c.25.07.51.11.77.19l.34.12h0c.23.13.46.24.69.38s.4.26.6.4c0,0,.47.39.55.47a14.5,14.5,0,0,1,2.7,3.45A18.76,18.76,0,0,1,232.8,257.05Z" transform="translate(-192.56 -236.9)"/></svg>