<svg id="Layer_1" data-name="Layer 1" xmlns="http://www.w3.org/2000/svg" viewBox="0 0 131.18 100.47"><defs><style>.cls-1{fill:#231f20;}</style></defs><path class="cls-1" d="M324.13,318.21c1.77-2.9,3.39-6.28,3.42-9.75a1.67,1.67,0,0,0-.64-1.41,1.74,1.74,0,0,0-1.23-.47c-3.92,0-7.94-.62-11.83.05a31.06,31.06,0,0,0-9.28,3.59A63.2,63.2,0,0,0,309.15,294a50.15,50.15,0,0,0-.43-16.8,1.53,1.53,0,0,0-1-1.24,1.64,1.64,0,0,0-1.28-.07c-5,1.61-10.44,2.89-14.94,5.69a40.76,40.76,0,0,0-5.45,4.26c-2.07,1.85-4.1,3.75-6.13,5.65-.07-.53-.14-1.07-.22-1.6a57.65,57.65,0,0,0-6.8-19.54A116.93,116.93,0,0,0,264,257a2.19,2.19,0,0,0-2.72-.88,1.78,1.78,0,0,0-.59.57.87.87,0,0,0-.08.1c-6.41,9.13-12.27,18.84-16,29.41q-.83,2.38-1.47,4.82a68,68,0,0,0-10.82-9.24c-4.64-3.17-10.09-5.94-15.83-6a1.69,1.69,0,0,0-1.74,1.32,2.33,2.33,0,0,0-.13.55,86.63,86.63,0,0,0,2.67,31,28.44,28.44,0,0,0-8.63-2.52c-3.44-.33-7,.3-10.42.39a1.76,1.76,0,0,0-1.59,1,2,2,0,0,0-.29.9c-.27,3.76,1.49,7.54,3.37,10.69a57.68,57.68,0,0,0,9.52,11.67c1.55,1.49,3.19,3,4.9,4.39a18.12,18.12,0,0,0-5.86,1.4,22.5,22.5,0,0,0-3.83,2.15c-.85.59-1.67,1.26-2.57,1.77a1.88,1.88,0,0,0-.38,2.94,44.44,44.44,0,0,0,23.65,11.66c7.28,1.26,15.41,1.31,22.25-1.83a13.62,13.62,0,0,0,4.46-3.2,20,20,0,0,0,3,3.38,7.16,7.16,0,0,0,5.23,2.18c3.87,1.28,7.26-1.26,9.77-4.32a41.92,41.92,0,0,0,21.84,5,48.59,48.59,0,0,0,21-6.13,49.22,49.22,0,0,0,9.32-6.71,1.58,1.58,0,0,0,.46-1.84,1.72,1.72,0,0,0-.84-1.1,33.65,33.65,0,0,0-7.17-3.47,42,42,0,0,0-7.18-1.42A60.35,60.35,0,0,0,324.13,318.21Zm-35.65-29.56a34,34,0,0,1,4.9-3.85c3.59-2.24,7.86-3.42,12.07-4.7,1.77,11.49-1.15,23.22-6.71,33.53a1.65,1.65,0,0,0-.41.74,72.91,72.91,0,0,1-12.62,16.56,67.82,67.82,0,0,1-8.88,7.35A80.8,80.8,0,0,0,280.4,325a58.52,58.52,0,0,0,1.07-12.8c-.38-5.34-.57-10.7-1.05-16C283.1,293.62,285.75,291.09,288.48,288.65Zm-46.31,6.84a69.82,69.82,0,0,0-1.22,11.1c-.09,3,0,6.08,0,9.13a1.65,1.65,0,0,0,.06.46,91.07,91.07,0,0,0,5.22,22.26c.06.15.12.3.17.45-12.39-3.78-20-14.77-24.16-26.95a1.38,1.38,0,0,0-.3-.88,79.77,79.77,0,0,1-3.44-16.48,85.24,85.24,0,0,1-.22-14.9c4.55.56,8.82,3,12.51,5.58A64.36,64.36,0,0,1,242.17,295.49ZM204,318.82a30.42,30.42,0,0,1-3-5.52,16.73,16.73,0,0,1-.77-2.68,3.59,3.59,0,0,1-.06-.39,58.39,58.39,0,0,1,8.14-.32,18.3,18.3,0,0,1,4.18.95,54.85,54.85,0,0,1,6.28,2.64c3,8.57,7.6,16.83,14.65,22.61A34.2,34.2,0,0,0,247.17,343a16.05,16.05,0,0,1-8.35.63,40.19,40.19,0,0,1-13-5c-1.23-.71-2.45-1.46-3.66-2.24a1.56,1.56,0,0,0-.39-.26A63.33,63.33,0,0,1,204,318.82ZM249.63,347a5.4,5.4,0,0,1-.91,1,10.71,10.71,0,0,1-2.79,1.83,24.86,24.86,0,0,1-8.31,2.1,45.36,45.36,0,0,1-21.91-3.52,38.46,38.46,0,0,1-9.77-6,23.94,23.94,0,0,1,3.75-2.32,15.13,15.13,0,0,1,4.41-1.18,16.47,16.47,0,0,1,5.76.58A47.61,47.61,0,0,0,236.78,347c4.24.87,8.77.85,12.72-1,.1.21.21.42.32.62A3.21,3.21,0,0,1,249.63,347Zm12.85,5.2c-.09,0-.31,0,0,0Zm.8-.21-.78.21-.45,0-.4,0a7.93,7.93,0,0,1-.83-.25,1.6,1.6,0,0,0-1.24,0c-.12,0-.08,0,0,0h0l-.19-.06-.42-.14-.52-.28a10.64,10.64,0,0,1-2.32-2.18,24.5,24.5,0,0,1-2.2-3.2,1.46,1.46,0,0,0-.52-.88c-.75-1.35-1.41-2.75-2-4.13a1.55,1.55,0,0,0-.35-.82,84.06,84.06,0,0,1-6.3-24.57c0-5.5-.17-11.29.61-16.56A73.64,73.64,0,0,1,253,276.38,146.86,146.86,0,0,1,262.3,261c4.44,6,8.59,12.4,11.16,19.44a67.58,67.58,0,0,1,3.42,18.44c.31,4.43.52,8.86.84,13.29.31,7.18-1.14,14.44-3.25,21.27a64.72,64.72,0,0,1-3.36,8.71,1.34,1.34,0,0,0-.12.24c-.15.31-.28.63-.44.94a25.75,25.75,0,0,1-4.85,7.05A7.67,7.67,0,0,1,263.28,352Zm51.92-10.72h0l.06,0,.39.17.75.37c.36.19.71.39,1.06.59-9.57,7.8-22.67,11.87-34.87,9.51a38.4,38.4,0,0,1-10.34-3.62,65.24,65.24,0,0,0,30.07-9.45,53.89,53.89,0,0,1,11.15,1.78C314.07,340.86,314.64,341.06,315.2,341.29Zm-14-6.06a1.73,1.73,0,0,0-.41.25,64.2,64.2,0,0,1-11.08,5.42,58.81,58.81,0,0,1-15.52,3.56l0-.08a74,74,0,0,0,27.45-28.21c4.12-2.35,8.48-5.07,13.19-5.92l.35-.05.44-.05c.35,0,.69,0,1-.06.8,0,1.6,0,2.4,0,1.5.06,3,.12,4.48.16-.12.48-.25,1-.41,1.43a21.33,21.33,0,0,1-1.81,3.84,46.65,46.65,0,0,1-6.93,9A68.36,68.36,0,0,1,301.18,335.23Z" transform="translate(-196.37 -255.9)"/></svg>