<svg id="Layer_1" data-name="Layer 1" xmlns="http://www.w3.org/2000/svg" viewBox="0 0 49.54 56.71"><path d="M285.6,347.66a2.49,2.49,0,0,0-.48-.89,2.06,2.06,0,0,0-2.09-1,1.72,1.72,0,0,0-.5.11,11.17,11.17,0,0,1-5,.69c-.41,0-.82-.05-1.23-.1l-.36-.05-.68-.13a23.22,23.22,0,0,1-2.93-.83,15.75,15.75,0,0,1-2.28-1,28,28,0,0,1-13.57-15.85,20.78,20.78,0,0,1-.3-12.41c1.6-5.48,5.65-10.18,10.35-13.64a2.53,2.53,0,0,0,1.34-2,1.51,1.51,0,0,0,0-.3.85.85,0,0,0,0-.16,1.45,1.45,0,0,0,0-.29.8.8,0,0,0,0-.15l0,0a2.34,2.34,0,0,0-.09-.24,2.06,2.06,0,0,0-.12-.26s0,0,0,0l-.06-.09a3.15,3.15,0,0,0-.22-.29l0,0a2.35,2.35,0,0,0-.33-.3l-.06,0-.29-.17a2.4,2.4,0,0,0-2.05-.2c-7.59,1.43-15.07,4.65-20.5,10.29a28,28,0,0,0-7.76,17,26.56,26.56,0,0,0,4.33,16.84,27.68,27.68,0,0,0,15.33,11.09c9.21,2.69,19.17.95,27.94-2.47A2.52,2.52,0,0,0,285,350,2.36,2.36,0,0,0,285.6,347.66Zm-42.71-28.9Zm21.68,30.74c-.89,0-1.77-.08-2.66-.17l-.47-.06h-.13l-.13,0c-.45-.07-.9-.14-1.35-.23a28.47,28.47,0,0,1-4.53-1.27c-.13-.05-.77-.32-.8-.32l-.81-.37c-.66-.32-1.32-.67-2-1.05s-1.23-.77-1.82-1.2a3.55,3.55,0,0,1-.31-.23l-.07-.05-.05,0c-.3-.24-.59-.49-.88-.74a29.09,29.09,0,0,1-2.83-2.94l-.09-.12c-.09-.11-.17-.23-.25-.34s-.36-.5-.54-.76c-.37-.57-.73-1.15-1.06-1.74s-.59-1.15-.86-1.73a1.89,1.89,0,0,1-.09-.21l-.13-.29c-.13-.35-.26-.69-.38-1a24.86,24.86,0,0,1-1-3.73c0-.18-.06-.36-.08-.54v-.06c0-.31-.07-.61-.09-.92-.06-.67-.08-1.35-.08-2s0-1.24.07-1.85l.09-.89c0-.05.1-.69.13-.85a23.87,23.87,0,0,1,1-3.82c.11-.33.24-.66.37-1,0,0,0-.06,0-.1l.2-.45c.3-.65.63-1.29,1-1.91s.68-1.13,1-1.68c.21-.31.42-.61.64-.91l.11-.14c.13-.16.25-.32.38-.47a27.66,27.66,0,0,1,3.68-3.66l.35-.28.13-.11.24-.18,1.11-.78c.78-.53,1.58-1,2.4-1.47s1.4-.75,2-1a29.53,29.53,0,0,0-4.09,7,25.52,25.52,0,0,0-1,15.19,32.24,32.24,0,0,0,17.61,21.42A37.82,37.82,0,0,1,264.57,349.5Z" transform="translate(-236.15 -297.8)"/></svg>