<svg id="Layer_1" data-name="Layer 1" xmlns="http://www.w3.org/2000/svg" viewBox="0 0 100.27 61.26"><path d="M365.09,440.28q-17.76-26.25-35.5-52.51a2.3,2.3,0,0,0-2.06-1.53,2.83,2.83,0,0,0-2.95,1.57l-14.72,23.94-9.08-7.6-.09-.06a2.53,2.53,0,0,0-1.06-.62h-.09a2.26,2.26,0,0,0-2.21.46,2.36,2.36,0,0,0-.61.61L266,437.44c-2.3,2.47,1.41,6.19,3.72,3.71l25.51-27.33c-.07.49-.13,1-.2,1.47l-3.63,3.51a2.14,2.14,0,0,0-1.14,2.21c.25,3.12.51,6.23.76,9.35a2.78,2.78,0,0,0,3.31,2.48,2.48,2.48,0,0,0,.85.15h1.64c-1.39,2.25-2.77,4.51-4.16,6.77-1.78,2.89,2.76,5.53,4.53,2.65L323.8,399.1l-.3,4.77a1.43,1.43,0,0,0-.09.42q-1.73,3.43-3.44,6.87a2.62,2.62,0,0,0-.27,1.65,2.43,2.43,0,0,0,1.84,2.21l6.43,1.87v13.47a2.4,2.4,0,0,0,1.16,2.14l.14.13,10.26,7.6a2.81,2.81,0,0,0,.55.41l1.22.91.78,4a2.63,2.63,0,0,0,5.07-1.39c-.31-1.59-.63-3.18-.94-4.76a2.13,2.13,0,0,0-.55-1.05l.45-.38a2.32,2.32,0,0,0,.75-.64l6.27-5.36q3.71,5.51,7.42,11C362.44,445.71,367,443.09,365.09,440.28ZM332.39,413a2.64,2.64,0,0,0-1.09-.63L326,410.84l2-4,6.21-2.85,6.42,9.5-7.41,8.1v-6.65A2.38,2.38,0,0,0,332.39,413ZM329,400.62l.25-4.05,2,3Zm15.45,31.89-10.62-3.79q4.92-5.4,9.86-10.79l6.53,9.65Z" transform="translate(-265.27 -386.18)"/></svg>