<svg id="Layer_1" data-name="Layer 1" xmlns="http://www.w3.org/2000/svg" viewBox="0 0 180.77 165.85"><defs><style>.cls-1{fill:#231f20;}</style></defs><path class="cls-1" d="M283.13,480c.14.14.09.08,0,0Z" transform="translate(-112.43 -335.15)"/><path class="cls-1" d="M206.08,346.77h0l.07,0Z" transform="translate(-112.43 -335.15)"/><path class="cls-1" d="M206.33,346.8h0l.14.07Z" transform="translate(-112.43 -335.15)"/><polygon class="cls-1" points="93.78 11.59 93.78 11.59 93.78 11.59 93.78 11.59"/><path class="cls-1" d="M278.16,431c.5-.49,1-.95,1.57-1.4l.14-.11.28-.21.79-.55c.91-.61,1.87-1.15,2.84-1.67a24.37,24.37,0,0,0,5.21-3.35,15.72,15.72,0,0,0,4.16-7.84c0-.05,0-.09,0-.14s0-.08,0-.12a2.28,2.28,0,0,0,0-.26.76.76,0,0,1,0-.15,1.55,1.55,0,0,0,0-.21.49.49,0,0,0,0-.12c-4-16.32-4.77-33.13-4.26-49.87.18-5.87.56-11.74.64-17.61,0-3.2.35-7.32-1.3-10.22-1.92-3.35-5.38-1.93-7.87-.17-3.08.42-6.2,1.2-8.56,3.33-2.19,2-3,4.81-3.32,7.63a55.1,55.1,0,0,0,.35,10.74l.27,2.9c-4.34-1.34-9.36-1.53-11.64,3.22a21.68,21.68,0,0,0-1.67,7.92c-.26,3.65-.2,7.33-.18,11v1.79a11,11,0,0,0-6.34,2.6,12.26,12.26,0,0,0-3.49,6.6c-1.36,6.18-.46,12.74-.08,19,0,.6.07,1.2.1,1.8-4.32.26-5.46,5.54-5.7,9.44-.42,6.71.5,13.48.93,20.17a79.28,79.28,0,0,1,.21,8.72c-1.11,0-2.23.11-3.35.22a2.4,2.4,0,0,0-.71.19c-.3-1.3-.55-2.6-.72-3.91-1.22-9.17.18-18.44,1.8-27.43.61-3.36,1.49-6.84,1.51-10.26a1.7,1.7,0,0,0-.92-1.58,1.8,1.8,0,0,0-.46-.23l-.23-.08-.55-.29c-.19-.11-.38-.24-.56-.36l-.19-.12a1.47,1.47,0,0,0-.17-.16c-.34-.32-.68-.63-1-1s-.36-.4-.53-.61l-.27-.32-.09-.12-.05-.06a39.76,39.76,0,0,1-4.05-7,160.82,160.82,0,0,1-7.16-19.62c-2.21-7-4.24-14.1-6.58-21.07-1.65-4.89-3.28-10.38-6.53-14.49-1.22-1.54-3-2.84-5-2.45s-3.57,2.47-4.53,4.28v0a12.39,12.39,0,0,0-2.74,7.06,17.43,17.43,0,0,0,1.64,7.44c.87,2.1,1.86,4.14,2.9,6.16-3.37-.26-6.89.22-9.14,2.81-2.58,3-2.44,7.18-1.42,10.75a27,27,0,0,0,2.88,6.47,90.39,90.39,0,0,0,3.7,9.75,1.87,1.87,0,0,0-.57.61c-2.67,4.39-2.4,10-1.32,14.86a47.53,47.53,0,0,0,9.48,18.75c.54.68,1.1,1.32,1.67,2-.23.24-.44.49-.66.74a165.89,165.89,0,0,1-17.68-22.11,205.71,205.71,0,0,1-17.37-29.8,96.54,96.54,0,0,1-6.06-16.28,1.68,1.68,0,0,0-1-1.19h0a1.43,1.43,0,0,0-.27-.09,2.22,2.22,0,0,0-1.47.16,10.7,10.7,0,0,0-6,6.65c-.93,3.13-.45,6.56.35,9.66,2.11,8.17,6.47,15.72,10.15,23.25a110.32,110.32,0,0,1,4.86,11,42.47,42.47,0,0,0-8.1-4.1,56.24,56.24,0,0,0-11.53-2.8c-7.9-1.18-16-1.67-23.41-4.83a47,47,0,0,1-14-9.51,2,2,0,0,0-.39-.32l-.08-.05-.11-.05a1.75,1.75,0,0,0-1.61,0,1.73,1.73,0,0,0-1.09,1.48,1.56,1.56,0,0,0,.16,1c3.82,13.24,15.53,21.64,27.58,27a161,161,0,0,0,18.48,6.7c5,1.51,10,2.81,14.87,4.63l.81.3.53.22.48.21.65.31c.35.18.7.37,1,.57l.48.32.08.05,0,0c.2.2.69.88.34.28l.15.24a1.57,1.57,0,0,0-.32.9,1.6,1.6,0,0,0,0,.62A63,63,0,0,0,197.29,481,78.58,78.58,0,0,0,229,498.82,44.87,44.87,0,0,0,241.3,501c6.73-.14,13.61-.5,20.16-2.17,4.74-1.2,9.54-3.27,12.74-7.05l.1-.07c.92-.89,1.85-1.77,2.81-2.62l1.14-1,.55-.45.23-.18,0,0c.56-.41,1.12-.81,1.72-1.17.2-.12.41-.24.62-.34l.32-.16a7.44,7.44,0,0,1,.95-.28,2.84,2.84,0,0,1,.31-.06h.07a9.19,9.19,0,0,0,2.08-.38,10.73,10.73,0,0,0,3.07-1.83,1.46,1.46,0,0,0,.34-.26,1.9,1.9,0,0,0,0-2.65c-1.62-2.08-3.43-4-6-4.72-.34-.09-.69-.17-1-.29s-.66-.35-.12,0c-.19-.12-.41-.19-.61-.31s-.45-.28-.68-.44h0l-.37-.31a19.2,19.2,0,0,1-1.83-1.89,1.78,1.78,0,0,0-.26-.22,19,19,0,0,0-5.38-8.53,31.29,31.29,0,0,0-6.82-4.74,99.46,99.46,0,0,1,6.39-18.45A32.58,32.58,0,0,1,278.16,431Zm6.72-92.13h0l-.1,0h.05l0,0h0l0,0Zm.05,0Zm-.7.08Zm-77.9,7.74-.11,0h0l0,0,0,0Zm-.38.07Zm-28.26,86.09c-4.25-2.06-8.95-3.24-13.46-4.58-12.45-3.69-25.51-7.59-35.94-15.64a36.18,36.18,0,0,1-9.23-10.25,48.79,48.79,0,0,0,18.59,8.21c7.66,1.59,15.59,1.72,23.12,4a39.09,39.09,0,0,1,13.16,6.83,1.94,1.94,0,0,0,2.65,0,1.9,1.9,0,0,0,0-2.65,1.58,1.58,0,0,0,.47-1.8c-2.54-7.87-6.64-15.17-10.23-22.59a91.75,91.75,0,0,1-4.57-10.65,22.06,22.06,0,0,1-1.55-9.17,7.26,7.26,0,0,1,1.23-3.35,6.06,6.06,0,0,1,1.29-1.29c2.9,9.85,7.59,19.21,12.67,28.07a235.94,235.94,0,0,0,19.2,28.42,133.76,133.76,0,0,0,9.75,11.24,2.24,2.24,0,0,0,.35.29,10.46,10.46,0,0,0-.82,2.4,11.8,11.8,0,0,0,1.1,7.54c2.48,5.22,7.23,9.19,11,13.43,1.61,1.81,4.25-.85,2.65-2.65-3.31-3.73-7.29-7.15-9.8-11.52a8.83,8.83,0,0,1-1.4-5.44,9.28,9.28,0,0,1,2.56-4.92,63.26,63.26,0,0,0,6,5.34,2,2,0,0,0,2.65,0,1.89,1.89,0,0,0,0-2.66,55.82,55.82,0,0,1-14.82-17c-2.64-4.83-4.64-10.37-4.53-15.94a13.73,13.73,0,0,1,.82-4.6c.53,1,1.07,2.07,1.64,3.08,2.46,4.41,5.36,9.05,9.52,12.05a1.88,1.88,0,0,0,2.56-.67,1.92,1.92,0,0,0-.67-2.57c-3.68-2.65-6.22-7.16-8.37-11.05a85.12,85.12,0,0,1-6.73-15.78,1.89,1.89,0,0,0-.23-.57,28.43,28.43,0,0,1-1.39-2.55l-.27-.56-.14-.35c-.18-.43-.35-.87-.5-1.32a21.1,21.1,0,0,1-.67-2.48c0-.21-.07-.42-.1-.62a.31.31,0,0,0,0-.07.72.72,0,0,0,0-.13c0-.42-.06-.84-.06-1.26s0-.67,0-1v0l0-.16c0-.2.07-.39.12-.59s.08-.3.13-.44.07-.2.1-.27a7.44,7.44,0,0,1,.42-.79c.08-.11.42-.49.09-.13.1-.11.19-.23.29-.33l.38-.36.07-.07.14-.08a8.76,8.76,0,0,1,.85-.47l.24-.09c.23-.08.45-.15.68-.21s.49-.11.74-.15l.25,0h.13a15,15,0,0,1,1.77-.06,18.43,18.43,0,0,1,3.17.37c1.83,3.4,3.69,6.79,5.27,10.32A102.21,102.21,0,0,1,216,399.88c.57,2.34,4.19,1.35,3.62-1A118.41,118.41,0,0,0,209,371.68c-1.61-3-3.3-6-4.79-9.09a28.34,28.34,0,0,1-1.49-3.54c-.19-.55-.36-1.11-.5-1.68a9.6,9.6,0,0,1-.26-1.45,15.28,15.28,0,0,1,0-1.79c0-.05,0-.11,0-.16a3.63,3.63,0,0,1,.06-.38c.06-.29.12-.58.2-.87a9.91,9.91,0,0,1,1.58-3,2.26,2.26,0,0,0,.37-.48,14.09,14.09,0,0,1,.8-1.35l.19-.27c.12-.14.24-.29.37-.42a1.07,1.07,0,0,1,.16-.14l.24-.21.09-.07a.29.29,0,0,1,.1,0h0l.07,0h0l.11,0-.06,0h0l.08,0c.11.05.2.11.12.07l.11.06.08.05c.13.11.25.21.37.33s.22.22.32.34l.31.38a28.25,28.25,0,0,1,2.91,5.45l0,.07,0,.09c.07.16.13.32.19.47.14.32.26.65.39,1,.27.68.52,1.36.77,2q.83,2.24,1.57,4.49c4.49,13.48,7.75,27.52,13.68,40.48,1.9,4.14,4.45,9.47,8.74,11.74,0,.17,0,.34-.05.5s-.07.64-.08.71c-.05.32-.09.64-.14,1-.28,1.74-.6,3.47-.92,5.21-.82,4.5-1.58,9-2,13.57-1,10-.7,20.89,4.47,29.79a29,29,0,0,0,9.92,10.06c-1.41.43-2.84.83-4.29,1.15a48,48,0,0,1-15.16.86c-6.33-.63-12.4-3.69-17.71-7a84.45,84.45,0,0,1-18.37-15.83A82.51,82.51,0,0,1,183,442.13a1.76,1.76,0,0,0-1.22-.87c-.07-.67-.14-1.34-.19-2C182.82,436.36,180.17,434.08,177.69,432.88Zm103.55,46.27c.34.09.66.19,1,.3l.16.08a4.72,4.72,0,0,1,.61.37.49.49,0,0,1,.14.11l-.1-.1c.1.1.24.19.35.29s.45.41.67.63.27.3.41.45l-.17.09-.14.07-.86.23h0l-.34,0a11.13,11.13,0,0,0-5.36,2.23c.08-.68.12-1.36.14-2a19,19,0,0,0,.59-4c.12.09.24.19.37.27A9.86,9.86,0,0,0,281.24,479.15Zm-7.63-7.39a14.18,14.18,0,0,1,.45,9.38v0l0,.2a1.24,1.24,0,0,0,0,.27h0a12.13,12.13,0,0,1-6.29,10.76c-4.62,2.73-10.25,3.69-15.51,4.24-3.62.38-7.26.54-10.89.61-.63,0-1.26,0-1.89-.09l-1.09-.12h-.11l-.77-.11c-1.92-.31-3.82-.73-5.7-1.23a76.5,76.5,0,0,1-14.26-5.36c-11.68-5.75-22-14.39-28.48-25.81A57.18,57.18,0,0,1,183,449a90.71,90.71,0,0,0,14.05,15.63,73.91,73.91,0,0,0,20,12.94,36.86,36.86,0,0,0,10.62,2.84,54.77,54.77,0,0,0,23.72-3.19c2.67-.94,5.27-2,7.93-3a21.53,21.53,0,0,1,3.06-.91l.42-.08.43,0h.65l.08,0,.37.11.27.16a1,1,0,0,1,.16.18c.06.08.07.09.07.08l.07.15.16.29,0,0q.14.38.24.75a9,9,0,0,1,.27,1.45l-.13.23-.09-.1c-.11-.16-.23-.32-.33-.5a1.93,1.93,0,0,0-1.12-.86,1.88,1.88,0,0,0-2.11,2.76c.08.14.17.28.26.42a7.27,7.27,0,0,0,1,1.17,4.1,4.1,0,0,0,1.74,1,3.09,3.09,0,0,0,2.46-.4,4.79,4.79,0,0,0,1.26-1.28,5.9,5.9,0,0,0,.6-1.14,1.64,1.64,0,0,0,.28-.8.67.67,0,0,0,0-.2h0v0a1.53,1.53,0,0,0,0-.3c-.25-2.26-.79-4.75-2.78-6.1-1.73-1.16-3.9-.94-5.81-.45a69.43,69.43,0,0,0-7.52,2.7c-.42.17-.85.32-1.28.48a26.18,26.18,0,0,1-10.86-9.24,29.14,29.14,0,0,1-2.88-6,49.1,49.1,0,0,1,21.43,2.63C265.24,462.48,271.16,466.07,273.61,471.76Zm-9,1.69Zm-2.64-16.16a48.44,48.44,0,0,0-10.13-2.75,57.4,57.4,0,0,0-6.79-.68c.27-5.44-.39-10.95-.79-16.36-.23-3.14-.44-6.28-.45-9.43a22.86,22.86,0,0,1,.69-7l.18-.53s.19-.41.24-.5l.25-.39.28-.29a1.36,1.36,0,0,1,.2-.11l.18-.05h.14a50.08,50.08,0,0,1-.22,5.34,1.88,1.88,0,1,0,3.75,0c.62-6.08-.17-12.23-.48-18.31-.23-4.65-.74-10.79,2.11-14.6a6,6,0,0,1,2.32-1.81,7.8,7.8,0,0,1,2.19-.54c0,3.61-.08,7.23-.26,10.84-.12,2.41,3.63,2.4,3.75,0,.42-8.23.07-16.45.32-24.67a29.48,29.48,0,0,1,.89-7.61,5.47,5.47,0,0,1,1.09-2.33c-.23.31.39-.38.57-.53-.41.34,1-.45.49-.28.24-.08.47-.14.71-.2a.58.58,0,0,1,.14,0l.29,0a9.86,9.86,0,0,1,1.8.06,24.24,24.24,0,0,1,4.06,1.16c.24,2.87.44,5.74.55,8.62A149.21,149.21,0,0,1,269,398a1.89,1.89,0,0,0,1.87,1.88,1.92,1.92,0,0,0,1.88-1.88,170.82,170.82,0,0,0,.07-36.31,108.18,108.18,0,0,1-.76-11.38c0-.73,0-1.47.11-2.2,0-.15,0-.31.05-.47s0,.22,0-.19.11-.62.18-.93.14-.55.23-.82l.15-.45c.12-.35,0-.1,0-.11a9.11,9.11,0,0,1,.84-1.45l.07-.07.31-.33c.12-.13.25-.24.38-.36l.14-.13a9.74,9.74,0,0,1,1.74-1h0l.18-.07.54-.2c.41-.14.83-.26,1.26-.37a24.61,24.61,0,0,1,2.69-.5,2.16,2.16,0,0,0,.57-.14l.13,0,.07,0a2.36,2.36,0,0,0,.55-.33c-.13.11.51-.36.68-.47s.62-.39.94-.56l.26-.12.13,0a1.47,1.47,0,0,0,.3-.08l.15.05.2.34c0,.07.15.41.19.54.09.3.16.61.22.92s.06.34.08.51v.13c.05.4.08.8.11,1.2.14,2,.12,4,.08,6-.29,13-1.18,25.94-.39,39a159,159,0,0,0,4,27.88c-.16.6-.34,1.2-.55,1.79-.05.14-.11.29-.17.43l0,.1h0c-.13.3-.27.6-.42.89a13.57,13.57,0,0,1-.91,1.45h0a3.47,3.47,0,0,1-.25.29,6.26,6.26,0,0,1-.5.53,5.91,5.91,0,0,1-.52.48l-.28.24h0c-.39.28-.78.55-1.19.8-.84.51-1.72.95-2.58,1.42a28.77,28.77,0,0,0-6.13,4.24,33.53,33.53,0,0,0-6.68,9.24A98,98,0,0,0,261.93,457.29Z" transform="translate(-112.43 -335.15)"/><path class="cls-1" d="M284.79,338.82h0a.18.18,0,0,0,.07.05h0v0Z" transform="translate(-112.43 -335.15)"/></svg>