<svg id="Layer_1" data-name="Layer 1" xmlns="http://www.w3.org/2000/svg" viewBox="0 0 169.67 185.18"><defs><style>.cls-1{fill:#231f20;}</style></defs><path class="cls-1" d="M418.74,413.42a1.53,1.53,0,0,0-2.07-.85l-.18.06-.1,0a21.44,21.44,0,0,1-6.81,1.46,14.6,14.6,0,0,1-5.89-1c-3.57-1.35-6.79-4.18-9.67-7.11-6.47-6.58-12.17-14.46-21.09-17.88a25.74,25.74,0,0,0-14.28-.94A19.44,19.44,0,0,0,359,384a20.29,20.29,0,0,0-13.29-18.83,20.06,20.06,0,0,0-22,6,20.47,20.47,0,0,0-4.57,14.14,18,18,0,0,0-8.59-.8c-3.21.58-5.9,2.51-8.32,4.59-1.3,1.13-2.55,2.31-3.84,3.45a48.45,48.45,0,0,1-4.39,3.56A42.25,42.25,0,0,1,280,402.62c-9.32,2.52-19.17,2.63-28.74,2.05h-.15a1.57,1.57,0,0,0-1.55,1.08,1.54,1.54,0,0,0-.11,1.29c2.17,5.38,4.65,11,9.49,14.49,5.23,3.8,12.27,4.23,18.5,4.27,6,0,12-.41,18-.9a12.13,12.13,0,0,1,3.21.21,11.09,11.09,0,0,1,1.28.38l.26.1.05,0c.22.1.43.21.64.33a12.05,12.05,0,0,1,1.07.68l.14.09s0,0,.09.08l.59.5c.66.58,1.27,1.21,1.88,1.83a28.52,28.52,0,0,0,12.21,7.94,37.13,37.13,0,0,0,6.45,1.34,19.31,19.31,0,0,0-7.89,2.42,7.76,7.76,0,0,0-3.44,4.09,8,8,0,0,0,.64,5.81,21.23,21.23,0,0,0,4.39,6,25.35,25.35,0,0,0-8.66,12.74,24.09,24.09,0,0,0-1.09,6.85,22.2,22.2,0,0,0,4.32,14.9c2.1,2.86,5,5.57,8.47,6.58a18.38,18.38,0,0,0-1.29,6.48,16.79,16.79,0,0,0,3,13.46A21.86,21.86,0,0,0,331.89,525a13.62,13.62,0,0,0,5.32.91,1.9,1.9,0,0,0,.88-.27h0q.59,3.83,1.24,7.62c.82,4.8,1.75,9.57,2.75,14.33l0,.18,0,.07a1,1,0,0,0,.05.16h0a1.6,1.6,0,0,0,1.85,1.16,1.68,1.68,0,0,0,1.71-1.32A174.8,174.8,0,0,0,350.17,524c5.56-.88,10.36-3.81,12.49-9.33a19.51,19.51,0,0,0-.78-14.66,14.83,14.83,0,0,0-1.63-2.76,25.27,25.27,0,0,0,2.49-.86,18.11,18.11,0,0,0,7.83-5.85A19.17,19.17,0,0,0,374,479.78c.27-6.35-1.47-12.72-3.61-18.66a18.66,18.66,0,0,0,7-7.17c3.35-6.18,2.86-14.31-3-18.77a16.87,16.87,0,0,0-10.18-3,7.83,7.83,0,0,1,.73-.68l.61-.4.82-.43a15.3,15.3,0,0,1,2-.6,22.05,22.05,0,0,1,4.69-.35c2,0,3.94.18,5.9.34,9,.77,18.26,1.64,26.73-2.21,5.66-2.58,10-7.19,13.14-12.49A1.66,1.66,0,0,0,418.74,413.42Zm-92.61-37.15a15,15,0,1,1,18,21.82,15,15,0,0,1-18-21.82Zm20.52,60c.13,1,.16,1.19.28,2.14.08.61.14,1.21.2,1.81.08,1,.11,1.91.1,2.87,0,2.93-.18,5.85-.27,8.78l-.36,0a63.21,63.21,0,0,0-10.61-.88,48.3,48.3,0,0,0-.23-8.25c-.26-1.8-.67-3.57-1-5.36a7.37,7.37,0,0,0,1.09-3.67,33.56,33.56,0,0,0-.57-6c-.19-1.38-.32-2.35-.5-3.88-.21-1.81-.39-3.62-.53-5.43-.37-5-.45-10-.35-15.05a20.37,20.37,0,0,0,9,.31,18.33,18.33,0,0,0,4.37-1.42l.06.07.06.06,0,.06c.08.13.15.26.22.4.16.3,0,.05.07.15a9.06,9.06,0,0,1,.33,1.16,15.43,15.43,0,0,1,.28,2.55c.26,5.83-.51,11.73-.91,17.53-.24,3.49-.41,7-.48,10.49A2.32,2.32,0,0,0,346.65,436.23Zm-35-48.09Zm-.15,42.16a11.44,11.44,0,0,1-1-.82c-.42-.36-.84-.74-1.24-1.12-.68-.65-1.32-1.32-2-2a20.46,20.46,0,0,0-4.29-3.59,13.8,13.8,0,0,0-7.46-1.62c-5.29.44-10.58.82-15.89.89a58.24,58.24,0,0,1-10.78-.63,26.08,26.08,0,0,1-4-1,14.3,14.3,0,0,1-3-1.41,10.67,10.67,0,0,1-2.47-1.95c-.4-.4-.78-.81-1.14-1.24a14.28,14.28,0,0,1-1-1.3,37.2,37.2,0,0,1-3.17-5.94c13.45.6,27.87-.47,39.5-7.74a67.91,67.91,0,0,0,9.41-7.5c.61-.56,1.23-1.11,1.85-1.64l.89-.74.2-.16.44-.33a16.14,16.14,0,0,1,1.8-1.15c.29-.16.59-.3.88-.45l.09,0,.07,0,.52-.19a12.34,12.34,0,0,1,1.19-.33c.2,0,.41-.08.62-.12h0l.23,0a17.13,17.13,0,0,1,2.68,0l.22,0,.26,0,.73.14c.58.12,1.14.26,1.71.42s1.53.49,2.28.77a19.16,19.16,0,0,0,2,4.76,19.88,19.88,0,0,0,8.4,7.62,155.43,155.43,0,0,0,1.19,24.59l.27,2,.12.84v.15l.06.45c.11.88.21,1.76.26,2.64,0,.36,0,.72,0,1.08,0,.16,0,.33,0,.49v.06s0,.05,0,.09l-.21.77h0a.56.56,0,0,1-.05.08,2.38,2.38,0,0,0-.39,0C324.56,435.11,317.2,434.42,311.52,430.3Zm5,19.58a6,6,0,0,1-.88-2.21s0-.25-.06-.35,0-.29,0-.32,0-.32,0-.48v-.08a.34.34,0,0,0,0-.08c.05-.14.08-.29.12-.44l0-.1c.07-.12.13-.26.21-.38a2.71,2.71,0,0,1,.17-.25,7.94,7.94,0,0,1,.57-.59l.17-.15.43-.3c.31-.19.63-.37,1-.53l.43-.2.44-.17a19.93,19.93,0,0,1,2.72-.75,34.11,34.11,0,0,1,7-.61h0a1.39,1.39,0,0,0,.35,0l.15,0,.11,0a1.5,1.5,0,0,0,.46-.22c.56-.33,1.11-.67,1.64-1,.06.32.11.65.18,1,0,.13.29,1.53.38,2,0-.15,0-.31,0,0v.12h0s0,.08,0,.13l.06.72c0,.57,0,1.14.05,1.7,0,1.67,0,3.33,0,5a30.63,30.63,0,0,0-11.93,3.49A22.18,22.18,0,0,1,316.47,449.88ZM336.15,507l.06-.26c.12,3.52.39,7,.78,10.56A23.56,23.56,0,0,1,336.15,507Zm8.68,27.39c-.24,1.38-.5,2.75-.77,4.12A216,216,0,0,1,340,506.91c-.08-1.94-.1-3.88-.08-5.83a15,15,0,0,1,6.6-1.9l1.86-.16A254.06,254.06,0,0,1,344.83,534.38Zm11.48-16.85a12.08,12.08,0,0,1-5.69,2.63c.52-5,.91-10,1.2-15q.18-3.26.29-6.51c1.31-.13,2.61-.29,3.9-.49h0l.09.09a11.1,11.1,0,0,1,.84.84l.28.35.29.42a13,13,0,0,1,.73,1.24,17.8,17.8,0,0,1,1.59,5.28C360.33,510.57,359.46,514.73,356.31,517.53ZM368,487.72a12.38,12.38,0,0,1-2.68,3l-.21.17-.4.28a10.61,10.61,0,0,1-.9.58,18.85,18.85,0,0,1-1.89,1l-.25.11-.36.15-1,.37c-.67.23-1.36.43-2,.6s-1.27.3-1.91.43l-.29.05c-.62.12-1.23.22-1.85.31l-.21,0-.62.08-1.06.12-2.12.19c-1.22.1-2.45.17-3.68.29-3.3.29-6.67,1-9.37,3a11.91,11.91,0,0,0-4.43,6.8c-1.32,5.44.05,11.3,1.8,16.62q-.39-.09-.78-.21a14.3,14.3,0,0,1-2-.74,20.81,20.81,0,0,1-2.32-1.26,15.36,15.36,0,0,1-6.56-7.89,13.19,13.19,0,0,1-.32-6.89.11.11,0,0,1,0,0,3.06,3.06,0,0,0,.06-.45,16.18,16.18,0,0,1,.32-3,11.2,11.2,0,0,1,.36-1.38,8.72,8.72,0,0,1,.4-1.07,9.71,9.71,0,0,1,.59-1.1c.1-.16.2-.32.31-.47a2.7,2.7,0,0,1,.26-.35,10.87,10.87,0,0,1,.79-.87l.4-.36.37-.31a12.89,12.89,0,0,1,4.13-2.06,32.22,32.22,0,0,1,5.24-1.15c3.42-.5,7.55-.68,11.24-1.14s7.27-1.06,10.42-2.91c3.68-2.17,5.53-5.79,6-9.91h0c.67-3.3,1.13-7-.08-10.23a9.77,9.77,0,0,0-2.6-3.85,24.87,24.87,0,0,0,6.24-1.45,49.37,49.37,0,0,1,3.26,15.13A17.19,17.19,0,0,1,368,487.72Zm-32.66.83-1.19.16-.54.09c-4.21-3.41-9.67-9-6.71-14.42,1.7-3.15,4.93-5.23,8.41-6.66C335.18,474.66,335.3,481.61,335.32,488.55Zm3.74-22.14c1.08-.31,2.14-.58,3.15-.82,1.65-.38,3.31-.65,5-.87a164.69,164.69,0,0,1,1.18,22.43c-.84.13-1.66.23-2.44.32-2.29.25-4.58.42-6.87.64C339,480.88,338.91,473.65,339.06,466.41Zm11.84-2.06c.14,0,.27,0,.41,0a20.74,20.74,0,0,1,3.66.8c.33.11.64.22,1,.35l.22.09.48.25c.27.14.52.29.77.45l.42.28,0,0,.08.07c.2.18.41.36.6.56l.27.3a2.09,2.09,0,0,1,.14.17,9.7,9.7,0,0,1,.78,1.37l0,.12c0,.14.09.27.13.4.1.32.18.65.25,1,0,.14,0,.29.08.44v.11c0,.34.06.68.07,1a17.7,17.7,0,0,1-.09,2.52c-.06.61-.06.64-.14,1.12s-.17,1-.28,1.51a2.45,2.45,0,0,0,0,.38.5.5,0,0,0,0,.12,10.23,10.23,0,0,1-1.44,4.56,8.39,8.39,0,0,1-2.95,2.7,15.28,15.28,0,0,1-3.22,1.31A173.69,173.69,0,0,0,350.9,464.35Zm16-24.2a6.68,6.68,0,0,0-2.72-4.26,14.06,14.06,0,0,1,7.19,1.78,9.37,9.37,0,0,1,2.72,2.54,8.16,8.16,0,0,1,1.48,3.52c0,.17.07.34.1.51v.11c0,.32.07.65.08,1s0,.72,0,1.07c0,.18,0,.36,0,.54s-.05.48-.05.51a15.16,15.16,0,0,1-1.09,3.75,15.41,15.41,0,0,1-6.18,6.82,21.12,21.12,0,0,1-13,2.45q-2.12,0-4.26.09l-.87-.09a1.53,1.53,0,0,0-.89.21h-.18a2,2,0,0,0-.93,0,1.61,1.61,0,0,0-.33.12,45.28,45.28,0,0,0-17,4.94c-5.55,3-10.28,8.58-8.14,15.27a21,21,0,0,0,6.27,8.88,16.77,16.77,0,0,0-4.82,2.46,12.51,12.51,0,0,0-2.12,2c-3-.39-5.82-3-7.6-5.54a18.88,18.88,0,0,1-3.48-12.54,18.59,18.59,0,0,1,.15-2.24c0-.12.05-.34.06-.41,0-.25.08-.49.13-.73.1-.54.23-1.07.37-1.6a20.24,20.24,0,0,1,2.67-6.24,20.45,20.45,0,0,1,5.43-5.81,24.93,24.93,0,0,1,9.54-4,46,46,0,0,1,16.55.17h.15a2,2,0,0,0,.35.06c6.95.56,14.35-2.07,18.44-7.92A10.27,10.27,0,0,0,366.88,440.15Zm-4.35-.77.05.08c.13.14.11.14,0,.06a.8.8,0,0,1,.13.19,5.05,5.05,0,0,1,.28.51c0,.12.08.24.11.36s.05.22.07.33c0-.06,0,0,0,.22v-.05a.36.36,0,0,0,0,.11l0-.06h0c0,.12,0,.24,0,.36s0,.47,0,.7l-.06.36c-.06.24-.12.49-.2.72a3.38,3.38,0,0,1-.11.34c0,.08-.06.16-.09.22a12.13,12.13,0,0,1-.73,1.38c-.15.25-.32.48-.49.72l-.07.11-.26.31a14.88,14.88,0,0,1-1.35,1.4c-.24.22-.5.43-.75.64l-.06,0,0,0-.5.36a18.19,18.19,0,0,1-1.85,1.12c-.37.19-.74.36-1.12.53l-.11.06-.12,0-.64.24a20.51,20.51,0,0,1-2.55.71l-.72.14-.5.07-.2,0c.09-2.94.23-5.89.26-8.83a33.59,33.59,0,0,0-.29-4.48c.68-.16,1.37-.32,2.06-.44a19.72,19.72,0,0,1,2.7-.35,18.67,18.67,0,0,1,2.48,0l.6.05.19,0c.33.05.67.11,1,.19s.59.15.88.25l.32.12.17.08c.22.11.44.23.65.36l.3.21,0,0,.49.49h0A.18.18,0,0,1,362.53,439.38Zm.49.82c-.07-.16-.07-.23,0,0Zm41.23-15.86A30.83,30.83,0,0,1,391.44,427a130.8,130.8,0,0,1-13.12-.76c-3.69-.3-7.52-.59-11.17.23a11,11,0,0,0-8,6.87,1.44,1.44,0,0,0-.13.31l0,.06a2.1,2.1,0,0,0-.06.24,24.36,24.36,0,0,0-8.23.66c.15-6.95.8-13.87,1.23-20.81a56.8,56.8,0,0,0,.09-8.25,11,11,0,0,0-1.48-5.23,20.54,20.54,0,0,0,7-9,23.42,23.42,0,0,1,13.65.14c4.07,1.4,7.63,4.17,10.78,7.23,6.35,6.14,11.65,14.28,20.08,17.77a19.38,19.38,0,0,0,10.68,1.1A24.84,24.84,0,0,1,404.25,424.34Z" transform="translate(-249.39 -364.03)"/><path class="cls-1" d="M362.58,439.46h0a.43.43,0,0,0,0,.07Z" transform="translate(-249.39 -364.03)"/><path class="cls-1" d="M332.12,443.56a.51.51,0,0,0,0-.09.68.68,0,0,0,0,.12Z" transform="translate(-249.39 -364.03)"/></svg>