<svg id="Layer_1" data-name="Layer 1" xmlns="http://www.w3.org/2000/svg" viewBox="0 0 46.3 38.57"><defs><style>.cls-1{fill:#231f20;}</style></defs><path class="cls-1" d="M218.51,107.65c-4.61-.09-8.85,3.16-11.89,6.3a30.4,30.4,0,0,0-2.46,2.86,27.06,27.06,0,0,0-7.19-5.57,9.38,9.38,0,0,0-6.7-1c-3,.89-4.81,3.6-5.88,6.42a1.7,1.7,0,0,0-1.06,1.65v.74a2,2,0,0,0-.14.75,6.75,6.75,0,0,0,.08,1.62,1.84,1.84,0,0,0,.48.82,15.15,15.15,0,0,0,1.76,4.45c2.33,3.89,5.81,7.12,9.09,10.2s6.53,5.93,9.85,8.84a1.81,1.81,0,0,0,1.68.43,1.87,1.87,0,0,0,1-.43c5.26-4.31,10.82-8.35,15.72-13.09,3.21-3.11,6.55-7,6.62-11.68a2,2,0,0,0-.1-.63C228.05,114.85,225.15,107.77,218.51,107.65Zm-35.16,12.72v.06a.27.27,0,0,1,.06-.24h0A.64.64,0,0,0,183.35,120.37Zm36.12,10.32c-4.31,4-9,7.6-13.62,11.3-4.51-3.94-9-7.89-13.16-12.25a31.6,31.6,0,0,1-3.42-4.14,16.07,16.07,0,0,1-1.1-1.89c-.08-.15-.15-.31-.22-.47h0c-.12-.31-.23-.62-.32-.93a9.13,9.13,0,0,1-.27-1.06,2.77,2.77,0,0,0-.09-.47v-.18c.17-.72.33-1.45.56-2.15.11-.3.22-.6.34-.89a2.14,2.14,0,0,1,.18-.41l.28-.56c.2-.36.42-.72.66-1.07l.08-.11.07-.08c.15-.15.28-.31.43-.46s.27-.25.41-.37l.26-.17c.16-.1.34-.18.51-.27l.29-.1c.19-.06.38-.09.57-.13H193l.44.1c.34.09.68.2,1,.32l.29.11.5.24a20.54,20.54,0,0,1,2.33,1.44,38.68,38.68,0,0,1,5.55,5.15,1.85,1.85,0,0,0,2.94-.38,17.24,17.24,0,0,1,1.05-1.62l.27-.37.26-.33c.3-.36.6-.72.92-1.06a25,25,0,0,1,4.22-3.8,11,11,0,0,1,4.78-2.14,3.53,3.53,0,0,0,.46,0h1.07l.55.13a5.14,5.14,0,0,1,2,1.12c2.28,2.09,3.32,5.45,4,8.48a8.86,8.86,0,0,1-1.64,4.4A29.13,29.13,0,0,1,219.47,130.69Z" transform="translate(-183.17 -107.65)"/></svg>