<svg id="Layer_1" data-name="Layer 1" xmlns="http://www.w3.org/2000/svg" viewBox="0 0 120.88 91.33"><defs><style>.cls-1{fill:#ed1d24;}.cls-2{fill:#231f20;}</style></defs><path class="cls-1" d="M173.72,297.4l0,0h0Z" transform="translate(-157.18 -249.22)"/><path class="cls-1" d="M184.25,292.49v.06c0-.17,0-.26,0-.29a.49.49,0,0,0,0,.12A.45.45,0,0,0,184.25,292.49Z" transform="translate(-157.18 -249.22)"/><path class="cls-1" d="M184.85,292.22l-.08-.05c-.06-.05-.07,0,.18.13l0,0Z" transform="translate(-157.18 -249.22)"/><path class="cls-1" d="M199.61,294.29l-.13,0a.3.3,0,0,0,.2.08h0Z" transform="translate(-157.18 -249.22)"/><path class="cls-1" d="M207.24,318.66h0l-.18.15h0S207.13,318.81,207.24,318.66Z" transform="translate(-157.18 -249.22)"/><path class="cls-1" d="M232.61,294.55l.13-.13-.1.11Z" transform="translate(-157.18 -249.22)"/><path class="cls-1" d="M232.94,294.19h0l0,0Z" transform="translate(-157.18 -249.22)"/><path class="cls-1" d="M233.1,294.11h0l0,0h0l0,0,.12-.07,0,0,0,0Z" transform="translate(-157.18 -249.22)"/><path class="cls-1" d="M246.79,289.52l0,0c.19,0,.26,0,.27,0h-.22Z" transform="translate(-157.18 -249.22)"/><path class="cls-1" d="M246.27,289.69a.52.52,0,0,0,.27-.08l-.25.07Z" transform="translate(-157.18 -249.22)"/><path class="cls-2" d="M277.64,282.78a1.76,1.76,0,0,0-.45-.41c-4.69-3.81-7.62-9-11.44-13.67-4.81-5.89-10.71-10.63-18-13a47.55,47.55,0,0,0-17.35-2,1.81,1.81,0,0,0-1.21.52,1.58,1.58,0,0,0-.4,2.31h0a1.77,1.77,0,0,0,.3.45c2.41,3.58,4,7.69,2.66,12-1.56,4.87-6,8.61-10,11.59A14.7,14.7,0,0,1,220,280a10.25,10.25,0,0,1-1.95-1.12,8.54,8.54,0,0,1-1.13-1.12,8.43,8.43,0,0,1-.66-1.12,6.86,6.86,0,0,1-.32-1.18,6.49,6.49,0,0,1,0-1.08,4.74,4.74,0,0,1,.23-.84,3.62,3.62,0,0,1,.24-.43l.28-.28.14-.08.12,0H217a2.46,2.46,0,0,1,.29.09,2.5,2.5,0,0,1,.35.21,6.75,6.75,0,0,1,.84.85,14.57,14.57,0,0,1,1.43,2.56c.15.37.29.74.43,1.11l0,.1a1.75,1.75,0,0,0,.44.73l0,0a1.16,1.16,0,0,0,.21.16l0,0,.09.06.14.06.16.08.07,0a1.65,1.65,0,0,0,.32.07h0l.2,0h0a1.63,1.63,0,0,0,.45-.06l.11-.05a1.62,1.62,0,0,0,.72-.43,7.64,7.64,0,0,0,2.18-3.92h.66a1.63,1.63,0,0,0,.31,0,1.65,1.65,0,0,0,1-.52,1.88,1.88,0,0,0,.55-1.32.78.78,0,0,0,0-.16,1.65,1.65,0,0,0-.53-1.17,17.7,17.7,0,0,1-1.47-1.53l-.08-.11-.2-.31c-.06-.11-.12-.23-.19-.34h0c0-.13-.08-.26-.11-.39a1,1,0,0,0,0-.17.31.31,0,0,1,0,.1h0a.29.29,0,0,0,0-.09v-.05c0-.23,0-.09,0,.05a.15.15,0,0,1,0-.07,1.21,1.21,0,0,1,.05-.18l-.05.08s0-.07.05-.1h0a.34.34,0,0,1,.1-.18c.09-.18.18-.37.28-.54s.35-.56.51-.85a5.75,5.75,0,0,0-.1-6.23,6.79,6.79,0,0,0-.46-1.45c-.19-.48-.4-.95-.61-1.42-.08-.18-.17-.37-.25-.56l-.09-.2a12.62,12.62,0,0,1-.65-2.06h0c.11,0,.22,0,.17,0H225l.44,0-.1,0,.26,0a2.15,2.15,0,0,0,.8.05h0l.23,0a1.39,1.39,0,0,0,.19-.06l.18-.08.1,0,0,0a1.13,1.13,0,0,0,.21-.15l.06-.05.07-.06.07-.09a1.73,1.73,0,0,0,.42-.74c0-.05,0-.1,0-.15v0a2.46,2.46,0,0,0,0-.28s0-.09,0-.13a1.07,1.07,0,0,0,0-.25v0a2,2,0,0,0-.61-1.12,4.29,4.29,0,0,0-3.3-1.61,4.81,4.81,0,0,0-3.37,1.68,12.62,12.62,0,0,0-2.85,8.24c0,.12,0,.24,0,.36l-.08-.07-.43-.48-.09-.11-.07-.09c-.19-.31-.38-.6-.55-.92l0-.11,0,.11c-.05-.15-.11-.29-.16-.44s-.27-.68-.2-.86q.06.48,0,.18c0-.07,0-.14,0-.21s0-.27,0-.41,0-.53,0-.8v0c0-.11,0-.22,0-.33.09-.46.19-.92.28-1.38a8,8,0,0,0,.11-3.47,1.64,1.64,0,0,0-.43-.76l-.05-.07-.07,0-.09-.07a1.74,1.74,0,0,0-.88-.39,1.76,1.76,0,0,0-.79,0,1.85,1.85,0,0,0-.75.42l-.08.06c-2.49,2.23-5.51,5.43-4.57,9.09.61,2.39,2.72,3.9,4.33,5.6.15.15.29.31.43.47-3,.48-5.83,1.69-7.5,4.36-1.49,2.38-1.6,5.33-1.42,8.05a11.83,11.83,0,0,1-3.8-7.72c-.23-4.55,1.9-9,3.89-12.94a1,1,0,0,0,.06-.16,1.8,1.8,0,0,0-1.36-2.61,2,2,0,0,0-.55-.07c-7.63-.69-15.31,1.31-22.14,4.64A51.09,51.09,0,0,0,162.89,273a34.51,34.51,0,0,0-5.61,10.45,1.6,1.6,0,0,0,.45,1.79,1.58,1.58,0,0,0,1.85.52,33.53,33.53,0,0,1,3.91-1.13l.68-.13h.08l.27,0,.51,0c.18,0,.74.11.19,0l.25,0a1.42,1.42,0,0,1,.05.16c0,.15,0,.31,0,.46a14.86,14.86,0,0,1-.18,2c0,.08,0,.2,0,.27l-.09.65c-.08.57-.16,1.13-.22,1.7a24.6,24.6,0,0,0,0,6.3,17.67,17.67,0,0,0,3.31,8l.1.12a1.69,1.69,0,0,0,1.48.79,1.75,1.75,0,0,0,1-.24l.13-.1a1.62,1.62,0,0,0,.73-1,40.11,40.11,0,0,1,1.08-4.32l.27-.76c0-.11.05-.16.06-.19a.54.54,0,0,0,.07-.12l.12-.24a3.2,3.2,0,0,1,.25.27l.06.06.05.08.35.49c.26.37.5.75.74,1.13.56.89,1.1,1.78,1.64,2.68a58,58,0,0,0,4.32,6.22,20.82,20.82,0,0,0,6,5.2l.23.23a1.87,1.87,0,0,0,2.65,0,1.86,1.86,0,0,0,.55-1.32,1.11,1.11,0,0,1,0-.17,1.78,1.78,0,0,0-.91-1.65l-.19-.11c-.55-.59-1.09-1.19-1.58-1.83l-.27-.35.69.41c1.22.77,2.39,1.62,3.54,2.49a1.77,1.77,0,0,0,1.23.22l.18,0H193a1.6,1.6,0,0,0,.8-.48l0,0a1.76,1.76,0,0,0,.27-.34,2,2,0,0,0,.23-1.2,1.5,1.5,0,0,0-.53-1.08,22.6,22.6,0,0,1-3-3c-.22-.26-.43-.52-.64-.79l0,0-.06-.09c-.11-.16-.23-.31-.35-.47-.42-.58-.82-1.18-1.21-1.79a37.54,37.54,0,0,1-2.09-3.77q-.21-.42-.39-.84c-.08-.16-.15-.33-.22-.49l0-.11v0c-.23-.57-.45-1.15-.65-1.74a19,19,0,0,1-.82-3.13v.12c0-.06,0-.12,0-.18a.81.81,0,0,1,0-.23c0-.15,0-.31,0-.46.1.06.21.11.31.18l.26.19.13.09h0l.13.1-.08-.06c.27.23.55.46.81.71.68.62,1.32,1.27,1.94,1.95.8.87,1.57,1.78,2.31,2.69l.61.77.26.33.22.28c.49.63,1,1.26,1.43,1.9l.07.07a1.69,1.69,0,0,0,1.05.79l.22,0a1.66,1.66,0,0,0,1.23-.22l.12-.1a1.73,1.73,0,0,0,.74-1,27.44,27.44,0,0,1,1-3.24l.17-.43.2-.45a10.06,10.06,0,0,1,.59-1.07c.09-.14.19-.26.27-.4h0l0,0,.28-.3.18-.16.15-.1.16-.07,0,0h.18l.29.08c-.07-.05-.1-.09,0,0l.09.05.1,0h0l.28.16.22.16a.39.39,0,0,1,.1.08,11.82,11.82,0,0,1,1.19,1.26l.07.1.27.38c.21.3.4.61.59.92.42.69.79,1.41,1.14,2.13.09.21.19.41.28.62l.15.37c.16.38.31.77.46,1.16a1.92,1.92,0,0,0,.86,1.12l.17.07a1.59,1.59,0,0,0,1.27.12l.07,0a1.48,1.48,0,0,0,1-.83l.06-.14a1.51,1.51,0,0,0,.13-.29c.4-.92.81-1.82,1.29-2.69.08-.15.17-.29.26-.43.22.6.41,1.22.6,1.83.45,1.49.88,3,1.42,4.46a18.89,18.89,0,0,0,2.52,4.89.14.14,0,0,0,0,.06,29.29,29.29,0,0,0,2.25,3.39,27.86,27.86,0,0,1,2.92,5.14,10,10,0,0,1,.82,5.79,9.09,9.09,0,0,1-4.2,5.43,16.26,16.26,0,0,1-3.69.07,8.52,8.52,0,0,1-1.63-.43,5.9,5.9,0,0,1-.69-.4,4.34,4.34,0,0,1-.53-.52l-.25-.44a4.38,4.38,0,0,1-.19-.71,6.73,6.73,0,0,1,0-1.1,8.56,8.56,0,0,1,.41-1.48,7.66,7.66,0,0,1,.74-1.27,4.1,4.1,0,0,1,.5-.52l.14-.08.06.12a7.49,7.49,0,0,1,.41,1.63c.07.64.11,1.28.12,1.93a1.07,1.07,0,0,0,0,.25,1.65,1.65,0,0,0,.52,1.08l.12.09a1.7,1.7,0,0,0,1.2.46l.2,0a1.77,1.77,0,0,0,1.13-.52,7.91,7.91,0,0,0,2.36-5.76,8.23,8.23,0,0,0-2.26-5.26,7.75,7.75,0,0,0-5-2.42,7.22,7.22,0,0,0-5.57,2.23c-2.4,2.39-3.48,5.9-4.05,9.16-.93,5.18,3.23,10.07,7.35,12.61a14.65,14.65,0,0,0,17.55-1.34c4.1-3.48,6.56-8.6,8.36-13.57a2.07,2.07,0,0,0,.18-.53,1.63,1.63,0,0,0,0-1,26.45,26.45,0,0,0-4.65-14.13c-1.1-1.63-2.45-3.29-3.5-4.69a19.22,19.22,0,0,1-1.32-1.92,8.21,8.21,0,0,1-.44-.83l0-.05a.81.81,0,0,1,0-.11c-.05-.15-.09-.31-.14-.46a.53.53,0,0,0,0-.11v0c0-.15,0-.3,0-.46,0,0-.1.27,0-.08,0-.1.12-.29.13-.34a4.22,4.22,0,0,1,1-1.27l.09,0h0l.17.1c.14.14.28.28.41.43.71,1,1.23,2.07,1.86,3.09l.12.15a1.64,1.64,0,0,0,1,.71l.17,0a1.7,1.7,0,0,0,1.28-.21l.1-.08a1.63,1.63,0,0,0,.76-1,29.3,29.3,0,0,1,.9-3.46l.24-.66.1-.27c.16-.33.31-.66.49-1l.26-.42.11-.14-.1.1.13-.12.1-.11.23-.24h0c-.24.24-.15.12,0,0,0,0,0,0,.08-.06l0,0h0l0,0h.07l.11,0h0l-.07,0,.05,0,.13.08a5.9,5.9,0,0,1,.49.51l.19.29a7.1,7.1,0,0,1,.41.7c.13.25.24.52.37.77-.31-.64-.06-.12,0,0l.18.5a16.34,16.34,0,0,1,.52,2.06c0,.19.07.88,0,.14,0,.19.05.37.06.56s0,.63.05.95a1.86,1.86,0,0,0,.33,1.2h0a3,3,0,0,0,.22.28l0,0,.24.21.07,0a2.25,2.25,0,0,0,.21.12,1.71,1.71,0,0,0,.78.17l.21,0h.08l.18-.05.21-.06.11-.06.18-.09.21-.16h0a1.8,1.8,0,0,0,.58-.85l0-.06a42.82,42.82,0,0,1,3.43-7.69c.25-.43.52-.86.79-1.27l.36-.51.19-.26a14.82,14.82,0,0,1,1.5-1.57h0l.33-.22.29-.17.06,0h-.06l.08,0,.09-.05c.13-.06.18-.05.16,0l.2-.07h0a.41.41,0,0,1,.18,0H247l.26.07.09.05.05,0,.16.17c.18,4.28-1.65,7.76-3.58,11.46a18.67,18.67,0,0,0-2,5.11,10.21,10.21,0,0,0,.65,5.76l0,.08a2.6,2.6,0,0,1,.1.25,1.8,1.8,0,0,0,2,.86,1.63,1.63,0,0,0,1.4-1.31,27.18,27.18,0,0,1,5.57-10.6,21.93,21.93,0,0,1,2.12-2.19,8.51,8.51,0,0,1,2-1.38l.38-.19.38-.14.56-.16.18,0H258l0,0,.46.12h0l.25.13c.08.05.36.26.39.27a5.7,5.7,0,0,1,.43.42,2,2,0,0,1,.32.4,7.74,7.74,0,0,1,.42.68,15.69,15.69,0,0,1,1.49,4.15,1.63,1.63,0,0,0,1.66,1.33A1.93,1.93,0,0,0,266.6,303a35.53,35.53,0,0,1-1.12-7.74,14.28,14.28,0,0,1,.8-5.38c0-.07.05-.13.07-.2h0c.08-.18.17-.36.26-.53s.36-.61.55-.9a.57.57,0,0,0,.07-.12l.06-.06c.1-.12.2-.24.31-.35a9.58,9.58,0,0,1,.73-.69l.12-.08.44-.28c.12-.08.25-.15.38-.22l.38-.18.26-.11.42-.14c.34-.1.69-.19,1-.26l.44-.07.38,0c.41,0,.81,0,1.22,0s.83,0,1.24.06l.57.06.47.07.42,0a1.7,1.7,0,0,0,1.28-.42h0a.81.81,0,0,0,.1-.09l.07-.09a.44.44,0,0,0,.12-.15l.05-.06a1.77,1.77,0,0,0,.24-.52,1.54,1.54,0,0,0,.05-.43A1.61,1.61,0,0,0,277.64,282.78Zm-54.11-20s0-.06-.05-.12S223.54,262.8,223.53,262.8Zm.62-8.16.08,0-.19.09Zm.07,0Zm.18.07c0,.27,0,.17,0,0Zm0-.07h0Zm0-.07a.13.13,0,0,1,0-.06h0C224.46,254.42,224.54,254.43,224.39,254.52Zm-58.84,30h0s-.06-.05,0-.06h0l0,0h0C165.7,284.66,165.62,284.61,165.55,284.55Zm8.2,12.84,0,0S173.78,297.38,173.75,297.39Zm0,0h0l0,0h0l-.08,0h0l.11-.05c0-.05.1-.1.1-.12S173.8,297.34,173.76,297.38Zm9.56-5.95.18.05h0Zm.2.05.15,0-.17,0Zm15.64,2.66h0Zm-.09,0,.05,0h0Zm11,3.65Zm-4,22,.06-.08C206.35,319.46,206.21,319.72,206.11,319.79ZM233.21,294h0l0,0Zm-.16.06h0Zm.21.06,0,0h0Zm35-7.07Zm-1.65-3.42c-3.41,2.31-4.7,6.29-4.88,10.25,0,.43,0,.85,0,1.27,0,0,0,0,0,0a6.21,6.21,0,0,0-5.92-1.26,13.56,13.56,0,0,0-6,4.06,19.17,19.17,0,0,0,1.54-8.35c0-2.11-2.11-3.63-4.05-3.82-3.2-.3-5.68,2.73-7.22,5.11a33.27,33.27,0,0,0-2,3.76,11.86,11.86,0,0,0-1.43-2.37,4.74,4.74,0,0,0-3.39-1.93,4.57,4.57,0,0,0-3.82,2.26,12.53,12.53,0,0,0-1.37,2.77,2.78,2.78,0,0,0-.21-.27,4.67,4.67,0,0,0-2.11-1.41,3.15,3.15,0,0,0-1.26-.15,4.12,4.12,0,0,0-1.22.26,1.75,1.75,0,0,0-.78.35l-.17.16h0a6.79,6.79,0,0,0-2.7,4.57,7.27,7.27,0,0,0,1.34,4.38c2.21,3.54,5.07,6.35,6.89,10.23a21.2,21.2,0,0,1,1.91,8.65c-1.43,4-3.33,8-6.36,11.08a13.18,13.18,0,0,1-3.54,2.62,7.46,7.46,0,0,1-1.65.64,8.33,8.33,0,0,1-.86.22l-.47.09-.13,0h-.13a11,11,0,0,1-6.47-1.32,16.46,16.46,0,0,1-1.45-.88,8.14,8.14,0,0,1-1.23-1,15.74,15.74,0,0,1-1.17-1.14,9.5,9.5,0,0,1-.91-1.1,11.69,11.69,0,0,1-.92-1.47c-.12-.23-.24-.47-.35-.71v-.05l-.15-.4c-.08-.26-.16-.53-.22-.8,0-.11-.05-.37-.07-.44s0-.39,0-.59a1.93,1.93,0,0,1,0-.24v-.05a.11.11,0,0,1,0-.05,22.84,22.84,0,0,1,1.19-4.45l.1-.26.12-.25c.12-.27.26-.54.41-.81s.28-.48.43-.72l.21-.3,0,0c.14-.08.31-.37.43-.49a5.55,5.55,0,0,1,.49-.48s0,0,.05-.06a.6.6,0,0,0,.13-.09l0,0s0,0,0,0a5,5,0,0,1,.49-.31l.25-.13h0l.1,0,.28-.09.43-.1H209a4,4,0,0,1,.49,0h.11a7.21,7.21,0,0,1,.91.25l.11.05.46.25.35.24.12.1a3.41,3.41,0,0,0-1.68.07,5.49,5.49,0,0,0-2.24,1.46,8.76,8.76,0,0,0-1.47,2.19,10,10,0,0,0-.92,3.18,6.49,6.49,0,0,0,1.93,5.59c2.2,2,5.35,2.26,8.17,2,.36,0,.71-.09,1.07-.13a1.62,1.62,0,0,0,1-.17l.2-.11h0l.07-.05.14-.09a13.34,13.34,0,0,0,5.76-7,12.46,12.46,0,0,0-.29-7.59,27.86,27.86,0,0,0-3.28-6.43,37.85,37.85,0,0,1-2.61-3.9,1.8,1.8,0,0,0-.42-.57c-.11-.15-.21-.31-.31-.47-.21-.34-.4-.68-.58-1-.09-.17-.18-.35-.26-.52l-.12-.27-.1-.24,0-.05-.12-.28c-.08-.2-.15-.41-.23-.61-.57-1.55-1-3.14-1.5-4.72a12.65,12.65,0,0,0-1.49-3.67,3.2,3.2,0,0,0-1.81-1.4,2.8,2.8,0,0,0-2.43.58,7,7,0,0,0-1.66,2,15.2,15.2,0,0,0-3.33-4.55,5.83,5.83,0,0,0-3.9-1.72,5.12,5.12,0,0,0-3.9,2.21,12.82,12.82,0,0,0-1.79,3.27,35.71,35.71,0,0,0-6.43-6.73,6.34,6.34,0,0,0-2.7-1.36,3,3,0,0,0-3.25,1.35c-1.07,1.8-.51,4.29,0,6.18a34.46,34.46,0,0,0,3.46,8c.14.25.3.5.45.75a4.25,4.25,0,0,0-.71.06,2.3,2.3,0,0,0-.76.31,2.55,2.55,0,0,0-.79.81c-1.2-1.62-2.29-3.38-3.36-5.14-1.41-2.31-4.7-8.8-8.19-5.42a7.52,7.52,0,0,0-1.67,2.95l-.08.24a20,20,0,0,1-.54-8.83l0-.15,0-.18.09-.63c.07-.54.14-1.07.2-1.61a9.1,9.1,0,0,0,.07-1.95,3.8,3.8,0,0,0-2.83-3.63,8.63,8.63,0,0,0-4.12.15,39,39,0,0,1,10.17-12.59,47.84,47.84,0,0,1,19.18-9.92,35.07,35.07,0,0,1,8.76-1.06c-1.87,4-3.46,8.33-3.06,12.71.51,5.7,4.3,9.83,8.74,13a1.71,1.71,0,0,0,1.91,0l.14-.08,0,0a1.61,1.61,0,0,0,.63-.85.14.14,0,0,0,0-.06,1.42,1.42,0,0,0,0-.22,2.42,2.42,0,0,0,0-.25v-.08c0-2.3-.45-4.57-.35-6.87q0-.42.06-.84a.22.22,0,0,1,0-.09h0c0-.16.05-.32.08-.48s.12-.54.2-.8l.15-.45,0-.09h0c.14-.26.27-.53.42-.78l.22-.32-.06.06.06-.07,0,0c0-.07.13-.16.07-.08l0-.06a7.47,7.47,0,0,1,.64-.62l0-.05,0,0,.52-.34.57-.31.21-.09h0l0,0a13.68,13.68,0,0,1,1.38-.42c.27-.07.54-.13.82-.18l.53-.08a18.26,18.26,0,0,1,1.95-.14h.1a1.76,1.76,0,0,0,.4-.06,1.91,1.91,0,0,0,1.31-2.31,5.13,5.13,0,0,0-.26-.95c.45.28.89.55,1.34.81a2,2,0,0,0,.53.27l.06,0a1.5,1.5,0,0,0,.29.06h.07a1.74,1.74,0,0,0,1.17-.23l.11-.08.17-.14,0,0a1.69,1.69,0,0,0,.34-.41,1.9,1.9,0,0,0,0-1.82l0-.07c-.06-.13-.17-.44-.06-.13,0-.15-.11-.29-.16-.44a8.85,8.85,0,0,1-.28-1c0-.16-.07-.31-.1-.46s0-.14,0-.23,0-.29,0-.34,0-.36,0-.53a13.22,13.22,0,0,1,.05-1.89c0-.05,0-.09,0-.14v0c.22.47.44.93.63,1.38l.12.26c.06.16.13.33.19.5a5,5,0,0,1,.16.51v0a1.74,1.74,0,0,0,.25.87c.15.25.29.51.43.78h0c0,.12.08.24.12.36s0,.2.07.29a4,4,0,0,0,0,.49.74.74,0,0,1,0,.14,2.64,2.64,0,0,1-.1.31l-.12.26-.27.47c-.93,1.55-1.69,3.17-1,5a7.13,7.13,0,0,0,.57,1.18,2,2,0,0,0-.78,1,9.05,9.05,0,0,0-2.28-2.38,4.41,4.41,0,0,0-5-.11,6.29,6.29,0,0,0-2.45,4.79,8.28,8.28,0,0,0,1.8,5.57,12.21,12.21,0,0,0,6.63,4.11q.54.15,1.11.27h.05a1.59,1.59,0,0,0,1.39-.19,2,2,0,0,0,.29-.22c4.92-3.63,10.05-8,12-14,1.4-4.35.4-8.73-1.66-12.6,7.79,0,15.42,1.76,21.83,6.5,5.27,3.89,8.89,9.23,12.79,14.32,1,1.29,2,2.58,3.07,3.8A10.58,10.58,0,0,0,266.63,283.67Z" transform="translate(-157.18 -249.22)"/><path class="cls-1" d="M209.74,270.85h0l.09-.11Z" transform="translate(-157.18 -249.22)"/><path class="cls-1" d="M216.58,258.25c-.07-.21,0-.11,0,0Z" transform="translate(-157.18 -249.22)"/><path class="cls-1" d="M224.39,254.59h0Z" transform="translate(-157.18 -249.22)"/><path class="cls-1" d="M225.45,254.61h0C225.8,254.68,225.59,254.62,225.45,254.61Z" transform="translate(-157.18 -249.22)"/><polygon class="cls-1" points="68.41 19.14 68.41 19.14 68.41 19.14 68.41 19.14"/><path class="cls-1" d="M225.65,268.11c.09-.14.12-.21.11-.21l-.11.19Z" transform="translate(-157.18 -249.22)"/></svg>