<svg id="Layer_1" data-name="Layer 1" xmlns="http://www.w3.org/2000/svg" viewBox="0 0 46.32 44.53"><defs><style>.cls-1{fill:#231f20;}</style></defs><path class="cls-1" d="M54.79,81A12.89,12.89,0,0,0,50,79.22a11.07,11.07,0,0,0,2.19-2.08,8.41,8.41,0,0,0,1.62-3,6.22,6.22,0,0,0,.13-3,5.33,5.33,0,0,0-3.43-3.9,7,7,0,0,0-5.57.55,11.43,11.43,0,0,0-1.12.67q.06-.57.09-1.14c.06-2-.44-4.23-2-5.54a5.12,5.12,0,0,0-5.16-.86,8.16,8.16,0,0,0-4.32,4.23,14.29,14.29,0,0,0-.92,2.77A9.14,9.14,0,0,0,30,66.26a7.64,7.64,0,0,0-5.31-2,6.06,6.06,0,0,0-4.63,2.44,5.4,5.4,0,0,0-.54,4.93,9.31,9.31,0,0,0,1.76,2.85,14.16,14.16,0,0,0-3.19-.09,7.08,7.08,0,0,0-5.54,2.91,5.13,5.13,0,0,0,0,5.24,8.41,8.41,0,0,0,4.85,3.6,10.79,10.79,0,0,0,1.59.37,10,10,0,0,0-1.69,1.56A7.84,7.84,0,0,0,15.74,91a5.78,5.78,0,0,0,1.37,5.46A6.39,6.39,0,0,0,19.5,98a6.15,6.15,0,0,0,2.58.43,8.23,8.23,0,0,0,3.26-.83c.2-.1.39-.21.58-.32v.42a7.9,7.9,0,0,0,2,5.65A5.57,5.57,0,0,0,33,105a6.24,6.24,0,0,0,4.22-3.53,12,12,0,0,0,1.1-3.85,10.5,10.5,0,0,0,1.38,1.59,7,7,0,0,0,5.3,2.09,5.46,5.46,0,0,0,4.44-2.83,6.68,6.68,0,0,0,.26-5.58A10.42,10.42,0,0,0,49,91.34a12.57,12.57,0,0,0,1.92.39,7.13,7.13,0,0,0,5.56-1.47,5.11,5.11,0,0,0,1.62-4.86A7,7,0,0,0,54.79,81ZM37.2,88.6A6.47,6.47,0,1,1,41,80.26a6.29,6.29,0,0,1,.42,2.34A6.52,6.52,0,0,1,37.2,88.6Zm7-10.32h0Zm1.44-6.46A10.78,10.78,0,0,1,47,71a8.78,8.78,0,0,1,1-.29h.74l.46.12a4.45,4.45,0,0,1,.43.26,1.72,1.72,0,0,1,.27.27,2.3,2.3,0,0,1,.23.4,2.68,2.68,0,0,1,.1.35,5.61,5.61,0,0,1,0,.58,4.53,4.53,0,0,1-.23.82,6.53,6.53,0,0,1-.64,1.08,10,10,0,0,1-1.61,1.58,18.61,18.61,0,0,1-3.69,2.08,10.55,10.55,0,0,0-1.68-2.52,20,20,0,0,1,1.26-1.93A12.72,12.72,0,0,1,45.64,71.82ZM35,69.67a12.27,12.27,0,0,1,.68-2.58c.16-.34.33-.66.52-1l.22-.3c.08-.1.22-.29.3-.37s.28-.28.42-.41l.11-.1q.36-.22.75-.42l.48-.13h.29l.38.1.23.13.15.14.09.11h0c.08.14.15.28.22.43a6.17,6.17,0,0,1,.25.91,9.55,9.55,0,0,1,0,2,18.37,18.37,0,0,1-1.2,4.12c-.09.22-.21.43-.3.64l-.19-.08a9.75,9.75,0,0,0-3.47-.6,17,17,0,0,1,.1-2.57ZM25.36,68.1a5.56,5.56,0,0,1,.91.25,7,7,0,0,1,1,.58A8.09,8.09,0,0,1,28.32,70a10.85,10.85,0,0,1,1.18,2.06A14.44,14.44,0,0,1,30,73.58a10.68,10.68,0,0,0-2.15,1.57,2,2,0,0,0-.54-.49c-.6-.36-1.17-.75-1.73-1.16a12.65,12.65,0,0,1-1.85-1.81,6.68,6.68,0,0,1-.63-1.07,3.9,3.9,0,0,1-.19-.69v-.39a3.31,3.31,0,0,1,.12-.42c.05-.1.11-.2.17-.3s.22-.22.33-.33l.39-.22c.21-.07.43-.13.64-.18a5.57,5.57,0,0,1,.82,0ZM16,79C15.88,79.09,15.93,79,16,79Zm1,3-.21-.14-.32-.26-.36-.37v-.06a4.56,4.56,0,0,1-.37-.65,2.81,2.81,0,0,1-.08-.31,2.54,2.54,0,0,1,0-.39c0-.09.05-.19.08-.29s.09-.17.14-.26l.19-.2.08-.07.13-.09.51-.26a8,8,0,0,1,1.36-.36,13.69,13.69,0,0,1,2.79,0,26,26,0,0,1,4.36,1.09,10.63,10.63,0,0,0-.53,3.21c-.56.14-1.13.25-1.71.34a13.22,13.22,0,0,1-3.08,0,9.37,9.37,0,0,1-2-.53,7.58,7.58,0,0,1-1-.47Zm7.6,11.75a6.65,6.65,0,0,1-1.26.75,5,5,0,0,1-1,.29,6.46,6.46,0,0,1-.88,0,4.76,4.76,0,0,1-.74-.2,3,3,0,0,1-.52-.3,3.65,3.65,0,0,1-.52-.52c-.08-.13-.16-.26-.23-.39s-.09-.33-.13-.5a4.86,4.86,0,0,1,0-.54,4,4,0,0,1,.18-.66A8.77,8.77,0,0,1,20,90.8a9.7,9.7,0,0,1,1.17-1.14,14.61,14.61,0,0,1,2.61-1.48c.59-.25,1.2-.47,1.81-.67a1.2,1.2,0,0,0,.33-.13,2.42,2.42,0,0,0,.21.39,10.3,10.3,0,0,0,1.53,2,15.25,15.25,0,0,1-1.46,2.42A10.4,10.4,0,0,1,24.64,93.71Zm6,7.2.17.12h0Zm.21.15h0c.4.25.18.11.06,0Zm3.74-3.72A9.32,9.32,0,0,1,34,99.49a5.1,5.1,0,0,1-.4.77l-.1.15-.22.28L33,101h0a2.78,2.78,0,0,1-.53.3l-.36.09h-.4l-.36-.09a1.86,1.86,0,0,1-.69-.49l-.18-.21-.07-.1a5.18,5.18,0,0,1-.33-.62,6,6,0,0,1-.29-1.11,9,9,0,0,1,0-1.8,13.8,13.8,0,0,1,.76-2.65,22.43,22.43,0,0,1,1.1-2.12,10,10,0,0,0,3,.56,19.41,19.41,0,0,1,0,4.57Zm9.7.26a3.58,3.58,0,0,1-.71-.2,5.49,5.49,0,0,1-.87-.51,8.85,8.85,0,0,1-1.18-1.19,12.8,12.8,0,0,1-2-4.08,9.69,9.69,0,0,0,2.59-2l.73.52a14.84,14.84,0,0,1,2.3,2.25A8.82,8.82,0,0,1,46.09,94a6,6,0,0,1,.32,1.15,5.21,5.21,0,0,1,0,.79,2.14,2.14,0,0,1-.42,1,2.2,2.2,0,0,1-.31.3,2.07,2.07,0,0,1-.45.27l-.38.1Zm6.79-9.55a11.42,11.42,0,0,1-2.41-.69,21.26,21.26,0,0,1-3.8-2.21l-.15-.08a10.15,10.15,0,0,0,.35-2.52.24.24,0,0,0,0-.12,1.73,1.73,0,0,0,.91.25,22.11,22.11,0,0,1,2.82.15,13.89,13.89,0,0,1,2.85.74,8.7,8.7,0,0,1,1.51.87,5.68,5.68,0,0,1,.74.73,4.24,4.24,0,0,1,.36.61,3.23,3.23,0,0,1,.14.51v.31a2.11,2.11,0,0,1-.11.41,2.61,2.61,0,0,1-.17.28,2.57,2.57,0,0,1-.33.33,2.24,2.24,0,0,1-.4.22,3.82,3.82,0,0,1-.82.22,6.84,6.84,0,0,1-1.43,0Z" transform="translate(-11.85 -60.57)"/></svg>