<svg id="Layer_1" data-name="Layer 1" xmlns="http://www.w3.org/2000/svg" viewBox="0 0 77.47 55.25"><defs><style>.cls-1{fill:#231f20;}</style></defs><path class="cls-1" d="M273.3,307.9a1.51,1.51,0,0,0-.6-.46c-.45-.35-.91-.68-1.4-1-4.45-2.85-9.69-4.3-14.93-5.16,0-1.16.11-2.32.19-3.48a26.24,26.24,0,0,0-.24-4.93s0-.05,0-.07a2,2,0,0,0-.05-.24.74.74,0,0,0,0-.14l0-.11a1.78,1.78,0,0,0-1.74-1.31,1.47,1.47,0,0,0-.41.07,1.91,1.91,0,0,0-.54.18,21.56,21.56,0,0,0-8.79,8.89c-1.31-.05-2.62-.08-3.92-.08a45.75,45.75,0,0,0-7.83.16,22.08,22.08,0,0,0-4.8-4.85,13.84,13.84,0,0,0-5.37-2.39,1.7,1.7,0,0,0-.51-.07,1.92,1.92,0,0,0-1.88,1.88,34.25,34.25,0,0,0,.06,5.36,8.17,8.17,0,0,0,1.31,3,25.31,25.31,0,0,0-9.86,7.4l-.08.12a1.73,1.73,0,0,0-.4,1.7s0,.07,0,.11a1.9,1.9,0,0,0,2,1.25,1.55,1.55,0,0,0,.67-.21l1.16-.46c.26-.1.53-.2.8-.28s.58-.11.84-.2h.33a13.5,13.5,0,0,0-1.52,1.12,19.61,19.61,0,0,0-2.1,2.27c-1.09,1.34-2.13,2.72-3.18,4.09l0,.05-.14.19a1.87,1.87,0,0,0,.44,2.4,1.64,1.64,0,0,0,1.67.35c3.58-1.07,6.61-2.27,10.23-2a19.6,19.6,0,0,1,9.36,3.41,79.85,79.85,0,0,0-10.11-.76A75.24,75.24,0,0,0,210,325l-.17,0h-.09a1.83,1.83,0,0,0-1.36,1.74c0,.05,0,.1,0,.15a.53.53,0,0,1,0,.13,1.56,1.56,0,0,0,.53,1.11l.59.51a32.5,32.5,0,0,0-5.65-.65,1.92,1.92,0,0,0-1.87,1.87,2,2,0,0,0,.46,1.19.64.64,0,0,0,.1.13h0a1.74,1.74,0,0,0,.91.51,2.58,2.58,0,0,0,.39,0c.12,0,.25,0,.37,0h0l.34.09h0a.88.88,0,0,1,.21.12l.19.2h0c.42.86.9,1.72,1.32,2.59a11.29,11.29,0,0,0,7.16,6,21,21,0,0,0,4.46.83l-.17.15a1.58,1.58,0,0,0-.82.94,1.85,1.85,0,0,0,.37,2.1l.22.17h0l.16.1a1.86,1.86,0,0,0,.94.28c.74,0,1.47.06,2.21.07,2.85.09,5.7.22,8.54.51a25.71,25.71,0,0,0,3.72.22c1.22-.05,2.44-.17,3.66-.29a60.27,60.27,0,0,0,21.62-3.81c6.32-2.29,13.07-5.56,17.39-10.9a14.71,14.71,0,0,0,3.59-9.07A16.38,16.38,0,0,0,273.3,307.9Zm-10.13-1.13a43.64,43.64,0,0,0-7.31,2.55h0a1.89,1.89,0,0,0-1.3,1.3.41.41,0,0,1,0,.11,1.79,1.79,0,0,0,0,.89,1.91,1.91,0,0,0,.39.69l0,0a2,2,0,0,0,1,.62c1.11.38,2.21.77,3.3,1.21l.35.14.06,0,.68.3c.44.21.88.43,1.31.68a12.37,12.37,0,0,1,1.09.68c-1.66.15-3.32.3-5,.49a24.45,24.45,0,0,0-6.15,1.31,24.93,24.93,0,0,0-8.71,6.4c.41-6.88,1.13-14,4-20.23,2.35.14,4.7.36,7,.7a1.57,1.57,0,0,0,.3.05c1.69.25,3.37.57,5,1C260.58,306,261.88,306.34,263.17,306.77Zm-3.44,7.59Zm-10.6-14.26a17.5,17.5,0,0,1,3.71-3.92c0,.54,0,1.08,0,1.62-.07,1-.13,2-.17,2.95l-.6-.08c-1-.12-2-.21-3.08-.29Zm-8.34,3.71,2.19,0a53,53,0,0,0-3,12.23,63,63,0,0,0-3.23-9.16c-.46-1-1-2.09-1.53-3.1A42.8,42.8,0,0,1,240.79,303.81Zm-16.24-3.35c-.06-.13-.13-.25-.19-.38a.33.33,0,0,1-.06-.12h0a.87.87,0,0,0-.07-.17l.06.11c-.08-.22-.13-.45-.19-.68v0c0-.15,0-.3,0-.45,0-.32,0-.64,0-1,0-.16,0-.32,0-.48a12.74,12.74,0,0,1,1.63.94,11.14,11.14,0,0,1,1.84,1.49c.4.38.77.77,1.13,1.17-1.12.25-2.24.54-3.33.88C225.09,301.35,224.81,300.91,224.55,300.46Zm-7.67,12.11H217C216.81,312.59,216.59,312.59,216.88,312.57Zm.1,0,.07,0Zm.11,5.15a13.45,13.45,0,0,1,1.34-1.38c.16-.14.77-.53.19-.18.16-.09.3-.22.46-.32a10.51,10.51,0,0,1,1.07-.65c.94-.5,1.91-.93,2.87-1.36l.16-.08,0,0,.09-.05.12-.08a1.91,1.91,0,0,0,.56-2.24,1.57,1.57,0,0,0-.77-.86,16.09,16.09,0,0,0-4.14-1.54,26.41,26.41,0,0,1,5.82-3,1.63,1.63,0,0,0,.73-.25h0a34.69,34.69,0,0,1,5.55-1.4,48,48,0,0,1,5.08,12.31c.71,2.53,1.28,5.08,1.77,7.65a30,30,0,0,0-11.14-6.28A20.44,20.44,0,0,0,217.09,317.71Zm-12,14.55c.17.16.08.11,0,0Zm8.54,4.67-.16-.07-.22-.1-.61-.32q-.24-.13-.48-.3l-.31-.21-.26-.22c-.14-.12-.27-.25-.4-.38s-.46-.53-.49-.55c-.16-.22-.31-.44-.45-.67a14.87,14.87,0,0,1-.77-1.48l-.07-.14a31.18,31.18,0,0,0,3.2.45,3.05,3.05,0,0,0,2.49-.75,2.26,2.26,0,0,0,.51-2.17,4,4,0,0,0-.87-1.49c-.11-.15-.25-.29-.37-.43a45.36,45.36,0,0,1,7.74-.72,81.14,81.14,0,0,1,9.82.75l-.23.3-.24.31c0,.06-.13.15-.19.23.09-.11.24-.28.1-.11l-.1.13,0,0,0,.05s0,0,0,0l-.19.23a5.55,5.55,0,0,1-.48.49l-.09.07-.14.1a6.79,6.79,0,0,1-.74.43l-.5.25-.29.13c-.5.2-1,.4-1.52.58a1.91,1.91,0,0,0-1.31,2.31v0a2,2,0,0,0,1.62,1.35,44.06,44.06,0,0,0,9.61,1.46l1.11,0,.57.06c-.72-.07.07,0,.25.06h0a59.61,59.61,0,0,1-6.68,3.25,26.41,26.41,0,0,1-5.58,1.47l.08-.09a2,2,0,0,0,0-2,2.33,2.33,0,0,0-1.32-1,6.68,6.68,0,0,0-1.09-.17l-.68-.05a2.17,2.17,0,0,0-.45,0,27.78,27.78,0,0,1-8.45-.64C214.53,337.25,214.07,337.1,213.62,336.93ZM266.79,334a56.56,56.56,0,0,1-19.24,7.19,50.09,50.09,0,0,1-10.72,1,1.51,1.51,0,0,0-.48.05h0c3-1.4,5.79-3.05,8.73-4.47A1.56,1.56,0,0,0,246,336a2,2,0,0,0-1.37-1.62,22.87,22.87,0,0,0-7.24-1.63,28.81,28.81,0,0,1-2.94-.17l-.15,0h-.05l-.6-.09-.39-.07a6.92,6.92,0,0,0,.7-.73l.72-.93c.08-.12.17-.23.25-.34l0-.06c.43-.55.89-1.07,1.36-1.59l1.29.17c.53.5,1,1,1.54,1.51a1.46,1.46,0,0,0,.64.59,1.58,1.58,0,0,0,.65.27,1.54,1.54,0,0,0,1.53-.39h0a1.79,1.79,0,0,0,.14-.13,72.87,72.87,0,0,1,6.43-6.6,17.35,17.35,0,0,1,2.15-1.63,13,13,0,0,1,1.21-.69,6.54,6.54,0,0,1,.95-.44c4.34-1.62,9.22-1.47,13.85-2h0a1.7,1.7,0,0,0,.92-.25,2.11,2.11,0,0,0,.36-.31,1.76,1.76,0,0,0,.55-1.12s0-.09,0-.13,0,0,0-.06,0,0,0-.07a1.68,1.68,0,0,0-.25-.88,13.16,13.16,0,0,0-4.61-4.41c-.67-.38-1.37-.72-2.07-1,.22-.08.44-.17.67-.24.61-.19,1.22-.36,1.85-.5l.83-.16h0l.37,0a10.59,10.59,0,0,1,1.38,0l.71.06h0l.37,0c1.11.18,2.2.42,3.3.63a13.59,13.59,0,0,1,2.46,2.62,12.8,12.8,0,0,1,2.09,8.64C275.62,327.35,271,331.4,266.79,334Z" transform="translate(-202.02 -291)"/><path class="cls-1" d="M224.28,299.89s0,0,0,.06l0,.05,0,.08S224.38,300.07,224.28,299.89Z" transform="translate(-202.02 -291)"/><path class="cls-1" d="M267.52,310.23c.39.07.14,0,0,0Z" transform="translate(-202.02 -291)"/><path class="cls-1" d="M231.24,329l0,0a.15.15,0,0,1,0,.06Z" transform="translate(-202.02 -291)"/><path class="cls-1" d="M231.66,312.79c-.67,0-1.21.86-1.21,1.93s.54,1.94,1.21,1.94,1.21-.87,1.21-1.94S232.33,312.79,231.66,312.79Z" transform="translate(-202.02 -291)"/><path class="cls-1" d="M247.62,312.79c-.67,0-1.22.86-1.22,1.93s.55,1.94,1.22,1.94,1.21-.87,1.21-1.94S248.29,312.79,247.62,312.79Z" transform="translate(-202.02 -291)"/></svg>