<svg id="Layer_1" data-name="Layer 1" xmlns="http://www.w3.org/2000/svg" viewBox="0 0 42.66 108.96"><defs><style>.cls-1{fill:#231f20;}</style></defs><path class="cls-1" d="M180.69,441.89l.07,0h0a2,2,0,0,0,.37.16h.06l.23.05a1.79,1.79,0,0,0,1.17-.24,3,3,0,0,0,.44-.28c5.91-4.63,11.67-10.11,15.14-16.88,2.13-4.15,3.42-9,2.34-13.6-1.61-6.85-9.09-11.26-15.56-7.63a13.29,13.29,0,0,0-5.46,6.38,12.64,12.64,0,0,0-4.69-5.12,10.56,10.56,0,0,0-9.92-.33,11.9,11.9,0,0,0-6.25,7.82c-1.11,4.44.23,9.06,2.54,12.89C165.67,432.57,173.29,437.78,180.69,441.89Zm-18-22.33a11.43,11.43,0,0,1-.63-5c0-.07,0-.26,0-.34s.06-.35.1-.52a11.06,11.06,0,0,1,.3-1.13l.18-.51a.34.34,0,0,1,0-.08l0-.09c.16-.34.33-.66.52-1s.2-.33.31-.49l.2-.28c.06-.07.16-.21.2-.25s.25-.28.38-.41.47-.46.71-.67l.11-.1.05,0,.45-.31a7.74,7.74,0,0,1,.83-.48l.42-.21c-.1.05-.14,0,.18-.06s.63-.21,1-.29l.46-.1.18,0c.3,0,.61-.05.91-.05h.47l.43,0,.74.16a9.06,9.06,0,0,1,.88.29l.3.14a5.24,5.24,0,0,1,.57.32l.5.32.23.16.06.05a10.77,10.77,0,0,1,.92.87c.15.16.29.33.43.5l.07.07.21.3a15.7,15.7,0,0,1,2.46,6.21,1.57,1.57,0,0,0,1.53,1.35,1.87,1.87,0,0,0,2.09-1.35,19.17,19.17,0,0,1,1.8-5.89c.2-.36.41-.72.64-1.07.12-.18.24-.36.37-.53s0,0,.25-.32.49-.55.75-.8.28-.26.43-.39l.18-.15h0a8.35,8.35,0,0,1,.88-.58c.13-.07.26-.15.4-.21l.39-.19c.12,0,.55-.19.71-.23l.48-.12.38-.07.7,0c.34,0,.67,0,1,.05h.06l.47.1c.31.08.61.18.91.28s.09,0,.13.05l.44.21c.29.15.56.32.84.5l.26.19.26.21c.25.23.49.46.72.71l.34.39v0l.08.12a10.67,10.67,0,0,1,.62,1c.08.13.15.27.22.41l.19.39c0,.13.26.72.34,1a11.18,11.18,0,0,1,.35,4.73,19.76,19.76,0,0,1-1.72,5.78c-3,6.45-8.31,11.62-13.81,16.05-5.82-3.31-11.61-7.27-15.68-12.65A20.67,20.67,0,0,1,162.67,419.56Z" transform="translate(-158.25 -402.24)"/><path class="cls-1" d="M189.41,458.16a22.21,22.21,0,0,0-9.73-2.1,1.94,1.94,0,0,0-.56.08c-4.07.93-8,2.82-10.63,6.17a14.78,14.78,0,0,0-3,9.61c.22,6.37,3.94,13.13,10.05,15.52a10.52,10.52,0,0,0,6.55.35,14.46,14.46,0,0,1-1.71,3.4,13.22,13.22,0,0,1-4,3.66c-2.8,1.73-6.21,2.51-8.76,4.65a6.15,6.15,0,0,0-2.18,4.73c0,2.91,1.14,6,4.24,6.76,2.93.74,6.09-.58,8.63-1.93a46.83,46.83,0,0,0,17.46-16.91c2-3.29,3.44-7,3.13-10.86C200.69,472.62,197.85,462.29,189.41,458.16Zm-19.75,44.58c0,.06-.17.17,0,0Zm-.3.49,0,0C169.4,503.09,169.49,503,169.36,503.23Zm-.16.72Zm.83,3.13c-.1-.07-.19-.16,0,0Zm.32.2c-.09,0-.17-.08,0,0Zm1.67.14Zm23.21-24.27s0,.27,0,.34,0,.29-.07.43a10.7,10.7,0,0,1-.26,1.12,17.64,17.64,0,0,1-1.7,4.12,40.07,40.07,0,0,1-6.51,8.64,45.51,45.51,0,0,1-8.13,6.79,29.28,29.28,0,0,1-3.66,2,14.67,14.67,0,0,1-1.8.61c-.3.08-.61.15-.91.21h0l-.48,0c-.2,0-.4,0-.6,0,0,0-.5-.1-.64-.14l-.29-.15-.06,0a1.45,1.45,0,0,1-.18-.17l-.12-.15-.13-.21a.37.37,0,0,1-.05-.11s-.13-.3-.15-.38a5.06,5.06,0,0,1-.23-1.85c0-.12,0-.25,0-.37a1.37,1.37,0,0,1,0-.23c0-.13.08-.26.11-.39s0-.1.07-.14l.23-.37.05,0c.11-.11.56-.5.55-.52a20.61,20.61,0,0,1,3.67-1.91c3.67-1.62,7-3.54,9.42-6.85A19.84,19.84,0,0,0,186.6,485a2.07,2.07,0,0,0-.74-2,1.58,1.58,0,0,0-2-.09,8.17,8.17,0,0,1-3.55,1.5c.06,0-.53,0-.62.05a8.19,8.19,0,0,1-.86,0l-.4,0-.12,0c-.33-.07-.66-.14-1-.24a4.76,4.76,0,0,1-1.45-.61c-.26-.14-.51-.29-.75-.44l-.65-.46A13.65,13.65,0,0,1,172,480a16,16,0,0,1-1.86-3.46,17.4,17.4,0,0,1-.58-1.86,14,14,0,0,1-.33-1.81,11.48,11.48,0,0,1,1.61-7.51c1.91-3,5.42-4.72,9-5.57,4.49.07,8.86,1.37,11.91,4.81a17.08,17.08,0,0,1,3.85,10,20.83,20.83,0,0,1-.41,6,2,2,0,0,0,0,.81,1.09,1.09,0,0,1,0,.18c0-.38,0,.53,0,.69S195.25,482.86,195.23,483.15Z" transform="translate(-158.25 -402.24)"/></svg>