<svg id="Layer_1" data-name="Layer 1" xmlns="http://www.w3.org/2000/svg" viewBox="0 0 132.46 230.94"><path d="M183.88,361.77a22.9,22.9,0,0,1-8.54,2.86,48,48,0,0,1-9.44-.05,1.58,1.58,0,0,0-1.12.37l-.13.12-.09.09a1,1,0,0,0-.16.2l-.08.11-.07.13a1.85,1.85,0,0,0-.22.85,1.7,1.7,0,0,0,.06.46v0c.57,2.69,1.29,5.36,1.75,8.08,0,.11,0,.23,0,.35,0,.28.05.56.07.84,0,.64.06,1.28.08,1.92,0,2.06,0,4.13-.06,6.19,0,2.42,3.71,2.42,3.75,0a62.66,62.66,0,0,0-.24-10.16c-.28-1.91-.74-3.8-1.19-5.68a40.77,40.77,0,0,0,7.65-.19,27,27,0,0,0,9.83-3.29C187.87,363.81,186,360.57,183.88,361.77Z" transform="translate(-116.29 -203.46)"/><path d="M164.89,244.09l.05.11a.17.17,0,0,0,0,.05C164.89,243.89,164.84,243.94,164.89,244.09Z" transform="translate(-116.29 -203.46)"/><path d="M165.8,245.61l.15.14,0,0C165.9,245.64,165.83,245.6,165.8,245.61Z" transform="translate(-116.29 -203.46)"/><path d="M160.27,232.93l0,0,0,.08h0a.73.73,0,0,0-.07-.16Z" transform="translate(-116.29 -203.46)"/><path d="M157.74,236.56v0Z" transform="translate(-116.29 -203.46)"/><path d="M160,232l0,.1a.31.31,0,0,0,0-.13Z" transform="translate(-116.29 -203.46)"/><path d="M248.43,344.47a1.47,1.47,0,0,0-1.1-.75c-11.85-6.12-25.06-7.42-38.12-5.3-11.13,1.81-21.58,5.95-32.09,9.89-2.25.84-4.52,1.67-6.84,2.37-.95.29-1.91.55-2.88.76a12.86,12.86,0,0,1-2.29.37c-.22,0-.43,0-.65,0l-.35,0h0l-.09,0c-.66-.13-1.3-.27-1.94-.46a15.29,15.29,0,0,1-4.3-2.08,18.35,18.35,0,0,1-4.29-4,22.37,22.37,0,0,1-3.52-7,35.55,35.55,0,0,1-1.37-10.2,95.55,95.55,0,0,1,10.52,1.44c9.73,1.63,20.47,4,30.2,1.19a18.67,18.67,0,0,0,11.75-9.33,1.85,1.85,0,0,0,.34-.72,25.7,25.7,0,0,0,.93-8.85,21.53,21.53,0,0,0-1.85-6.52c-.83-1.89-1.76-3.72-2.54-5.63a1.63,1.63,0,0,0,.17-.2c3.66-4.91,6-10.93,7.9-16.69A102.29,102.29,0,0,0,211,259.66a61.14,61.14,0,0,0,0-12.47A29.69,29.69,0,0,0,210.4,237a55.11,55.11,0,0,0-4.33-12.93c-4.08-8.64-10.84-16.88-20.31-19.67-6.08-1.8-12.54-1-18.35,1.4-5.92,1.73-13.66,5.5-12,13a15.28,15.28,0,0,0,4,7,1.32,1.32,0,0,0-.26.22c-1.8,1.94-3.2,4.28-2.69,7a9.46,9.46,0,0,0,.88,2.34l.21.42.06.14c.05.13.1.26.14.39l0,.11c0,.09,0,.21,0,.31l0,.12v0l-.16.24-.33.37a1.91,1.91,0,0,0,0,2.66,1.94,1.94,0,0,0,2.49.15c.07.17.15.33.2.48.24.72.45,1.45.67,2.17.94,3.07,2.71,7.68,6.84,6.44a11,11,0,0,0,5-3.88,14,14,0,0,1,.61,2.22s0,.16,0,.23l0,.45c0,.34,0,.67,0,1,0,.05,0,.1,0,.16l-.05.28a8.14,8.14,0,0,1-.27.93.25.25,0,0,1,0,.07c-.06.11-.11.23-.17.34s-.3.5-.46.74l0,0-.21.25c-.24.26-.48.51-.74.75a6.37,6.37,0,0,1-1.11.87c-.55.38-1.13.73-1.71,1.06-5.18,2.93-11.09,4.82-14.81,9.75a16.69,16.69,0,0,0-3,11.44,2.38,2.38,0,0,0,0,.26,1.94,1.94,0,0,0,0,.24c.85,5.28,1.29,11-.3,16.18A15.32,15.32,0,0,1,148,297.4a3.15,3.15,0,0,1-.2.26c-.13.16-.26.32-.4.47-.29.32-.59.64-.9.94s-.54.5-.82.73a6.87,6.87,0,0,1-.76.58,27.16,27.16,0,0,1-8.2,3.74,56.22,56.22,0,0,0-8.48,3.11,11.09,11.09,0,0,0-5.83,6.69,17.51,17.51,0,0,0-3.52,5.11,35.68,35.68,0,0,0-2.38,7.69,1.81,1.81,0,0,0-.16.93c1.41,15.34,15.27,23.26,28,28.79,1.11.48,2.23.95,3.33,1.48.38.19.76.38,1.13.59l.39.25c.06.09.11.19.16.28-.11-.18.15.46.2.67s.06.31.08.47a.71.71,0,0,1,0,.16c0,.38,0,.76,0,1.15s0,.79-.06,1.18c0,.23,0,.45-.07.67,0,0,0,.09,0,.13s0,.27,0,.31c-.16,1-.35,2.05-.58,3.07-1.11,5.09-2.65,10.09-3.89,15.15-2.9,11.76-5,24.81.14,36.27,3.22,7.18,9.31,12.48,16.27,15.93a1.88,1.88,0,0,0,1.23.17,1.58,1.58,0,0,0,1.59-1.69,1.51,1.51,0,0,0,0-.67,19.86,19.86,0,0,1,0-2.44,5.1,5.1,0,0,1,.15-1.06c.08-.44.18-.87.3-1.3s.26-.83.41-1.23a.88.88,0,0,0,.06-.16l.05-.11c.09-.2.19-.41.29-.61a16.52,16.52,0,0,1,1.32-2.17,8.84,8.84,0,0,1,.59-.77c.28-.33.56-.65.86-1q.9-1,1.89-1.86c1.36-1.25,2.82-2.39,4.28-3.53a85.37,85.37,0,0,0,9-7.55,28.84,28.84,0,0,0,6.85-11.05c1.81-5.56,1.64-11.52.64-17.24,10.54-.66,20.83-3.53,28.7-10.95,5.52-5.2,9.14-12.2,15.09-17a4.11,4.11,0,0,1,.37-.28c.2-.15.4-.3.61-.44.45-.31.91-.6,1.37-.88a21,21,0,0,1,2.7-1.34,25.62,25.62,0,0,1,7.16-1.65,2.11,2.11,0,0,0,.51-.12.59.59,0,0,0,.14-.06l.17-.08A1.92,1.92,0,0,0,248.43,344.47ZM157.71,236.75h0Zm0,0h0a.11.11,0,0,1,0,.05Zm0-.18a.09.09,0,0,1,0,0,.08.08,0,0,1,0,.05l0-.13,0-.13a.64.64,0,0,1,0,.07v0s0-.06,0,0S157.76,236.64,157.74,236.59Zm12-27.64a24.39,24.39,0,0,1,13.4-1.32,23.43,23.43,0,0,1,11.14,6.08c6.29,6,10.22,14.34,12.17,22.69a34.93,34.93,0,0,1,.93,5.82c.06.85.09,1.69.07,2.54,0,.39,0,.78-.07,1.17,0,.06,0,.24,0,.35s0,.17-.05.27a1.32,1.32,0,0,0-.08.63,70.83,70.83,0,0,1-1.46,22,95.62,95.62,0,0,1-6.45,20.44,49.36,49.36,0,0,1-2.87,5.49,56.51,56.51,0,0,1-1.46-6.59c.15-5.74,1.28-11.37,2.15-17,.8-5.22,1.5-10.57.46-15.8-1.06-7-6.05-11.54-11.44-15.57-5.62-4.19-11.25-8.45-14.07-15.24C170,219.82,169.54,214.34,169.73,209Zm-10.32,10.17a4.85,4.85,0,0,1,.19-4.67c1.27-2,3.85-3.33,6.36-4.22-.08,6.81,1.1,13.52,4.39,19.36a38.71,38.71,0,0,1-6.61-4.86A17,17,0,0,1,159.41,219.12Zm.84,20.53v0l0,0Zm.13-.12,0,0C160.49,239.41,160.46,239.46,160.38,239.53Zm12.32,11.33Zm-25.8,52.66a18.48,18.48,0,0,0,6.71-9c2.09-5.91,1.58-12.5.63-18.59l2.35-9.29c.17-.22.92-1.05,1.36-1.47a16.72,16.72,0,0,1,1.52-1.28,32,32,0,0,1,3.76-2.29c4.63-2.46,11.12-4.41,13.1-9.83,1.35-3.66-.18-7.67-1.88-10.93a1.59,1.59,0,0,0-1.67-.92,2.1,2.1,0,0,0-1.57.92l-.78,1.06c-.05.05-.27.33-.3.37s-.28.35-.43.52a18.58,18.58,0,0,1-1.47,1.6l-.63.57-.11.09-.26.18c-.17.12-.35.23-.53.34l-.2.09-.36.1H166l0,0-.06,0c-.1-.05-.11-.09-.09-.11l-.08-.06-.08-.1-.24-.35c-.16-.27-.3-.56-.44-.85a.43.43,0,0,1,0,.05.38.38,0,0,0,0-.1l0,0a.13.13,0,0,1,0-.07l0,0c-.07-.18-.14-.36-.2-.54-.27-.75-.5-1.5-.73-2.26a12.54,12.54,0,0,0-1.7-4.1,3.3,3.3,0,0,0-.8-.74,4.61,4.61,0,0,0-.33-1.64c-.17-.43-.36-.84-.56-1.25l-.22-.46s0,0,0-.09a1,1,0,0,0-.07-.15.59.59,0,0,1,0,.08c0-.15-.1-.29-.15-.45s0-.24-.07-.36c0,.12,0,.19,0-.07v0s0-.06,0-.08,0,0,0,.05v-.22a1.93,1.93,0,0,1,0-.24c.06-.24.12-.47.19-.71v0l.21-.4a9.69,9.69,0,0,1,.6-.92c.07-.08.13-.16.2-.23s.33-.38.5-.56a3,3,0,0,0,.26-.36,48.21,48.21,0,0,0,4.9,3.55,37.7,37.7,0,0,0,8.19,4,60.27,60.27,0,0,0,7,5.92,57.24,57.24,0,0,1,7.29,5.93,15.6,15.6,0,0,1,4.54,9c1,4.93.13,10.16-.65,15.06-.18,1.13-.37,2.27-.56,3.4l-.16,0c-4.05,1.52-8.29,3.24-12.68,3.34s-8.69-1.08-12.91-2.1c0-.13.05-.26.09-.39s.11-.32.16-.47a.41.41,0,0,1,0-.1h0a10.43,10.43,0,0,1,1.07-1.83,1.89,1.89,0,0,0-.67-2.57,1.91,1.91,0,0,0-2.56.67,12.27,12.27,0,0,0-2,8.31c.31,4.23.92,8.39.94,12.65v0a1.88,1.88,0,0,0-.49.74l-.11.27c0,.09-.08.18-.13.27q-.21.44-.45.87a18.79,18.79,0,0,1-1.26,1.93c-.15.19,0,0-.28.35l-.51.6c-.32.36-.66.71-1,1a19.37,19.37,0,0,1-2.37,2,28.59,28.59,0,0,1-14,4.79A22.83,22.83,0,0,0,146.9,303.52Zm2.69,56.65c0-.13,0-.17,0,0Zm84.71-12.45a35.64,35.64,0,0,0-8.12,7.72c-2.41,3-4.66,6.11-7.28,8.92a34.5,34.5,0,0,1-10.2,7.7c-6.21,3-13.25,4-20.08,4.26a1.77,1.77,0,0,0-1.59,1,1.81,1.81,0,0,0-.22,1.38c1.17,5.45,1.62,11.21.07,16.63a24.18,24.18,0,0,1-6.09,10.2c-5.31,5.51-12.21,8.81-16.91,15a17.17,17.17,0,0,0-3.42,8.86A29.31,29.31,0,0,1,149,417.62c-2.63-5.18-3.37-11.08-3.19-16.83.36-11.21,4.21-21.75,6.64-32.58.74-3.34,2-8.21,0-11.38a1.9,1.9,0,0,0-.46-.65,15.39,15.39,0,0,0-4.43-2.42c-2.49-1.09-5-2.16-7.42-3.35-5.84-2.86-11.72-6.45-15.67-11.74a21.66,21.66,0,0,1-4.32-10.9,34.93,34.93,0,0,1,1.83-6.45,17.72,17.72,0,0,1,1.16-2.3,11.07,11.07,0,0,1,1.31-1.83c.24-.28.5-.55.76-.8l7.42-4.31c2.37-.93,4.78-1.75,7.17-2.61a41,41,0,0,0,13.4-2.36,1.27,1.27,0,0,0,.47-.09,34.37,34.37,0,0,1,12.56-2.9c3.67-.08,7.32.36,11,.38a1.88,1.88,0,0,0,0-3.75c-3.76,0-7.52-.48-11.28-.37-.85,0-1.69.09-2.52.18a19.18,19.18,0,0,0,3.82-6.14,1.87,1.87,0,0,0,.12-.48,1.75,1.75,0,0,0,.51-1.28c0-4.12-.56-8.16-.91-12.26a1.21,1.21,0,0,1,0-.19c4.27,1,8.67,2.13,13,2,4.22-.1,8.26-1.46,12.18-2.91a79.53,79.53,0,0,0-.88,9.25,1.89,1.89,0,0,0,.09.6,51.49,51.49,0,0,0,2.63,10.31c.87,2.29,1.94,4.49,3,6.71a19.88,19.88,0,0,1,1.68,5.2,21.47,21.47,0,0,1-.73,7.89,14.75,14.75,0,0,1-9.09,7.5c-4.51,1.39-9.32,1.35-14.06,1-5.06-.39-10.06-1.28-15.06-2.12a80.46,80.46,0,0,0-13.29-1.56c-3.44,0-7.72.66-9.36,4.15-1,2.17,2.21,4.07,3.24,1.89a4.42,4.42,0,0,1,.44-.76l.05-.05c.12-.1.23-.22.34-.33l0,0,.07,0,.36-.22.39-.2.06,0,.1,0a13.42,13.42,0,0,1,2-.48l.4,0,.4,0c0,6.48,1.23,13.21,5,18.59a21.77,21.77,0,0,0,10.55,8.18,15.13,15.13,0,0,0,4.21.89,2.12,2.12,0,0,0,.51,0,2.16,2.16,0,0,0,.46-.05,43.11,43.11,0,0,0,10.26-2.74c4.61-1.67,9.17-3.51,13.8-5.15,11.17-4,22.88-7.05,34.84-6.38a52,52,0,0,1,16.3,3.59A23.89,23.89,0,0,0,234.3,347.72Z" transform="translate(-116.29 -203.46)"/></svg>