<svg id="Layer_1" data-name="Layer 1" xmlns="http://www.w3.org/2000/svg" viewBox="0 0 116.03 116.79"><defs><style>.cls-1{fill:#231f20;}</style></defs><path class="cls-1" d="M185.34,498.57l0,0h0a.67.67,0,0,0-.11-.07Z" transform="translate(-148.31 -472.95)"/><path class="cls-1" d="M152.73,520.89l.06.13a1.87,1.87,0,0,1-.07-.18A.43.43,0,0,0,152.73,520.89Z" transform="translate(-148.31 -472.95)"/><path class="cls-1" d="M264.15,582.32a1.71,1.71,0,0,0-.71-2.25,1.89,1.89,0,0,0-1.53-.37,16,16,0,0,1-4.08.25,5.58,5.58,0,0,1-1.33-.25,3.07,3.07,0,0,1-1.05-.41,4.67,4.67,0,0,1-1.73-1.42l-.16-.2,0,0-.32-.45c-.25-.38-.47-.78-.69-1.17-1.89-3.45-3.33-7-7.24-8.61a13.74,13.74,0,0,0-6-.82c1.11-3,1.41-6.39-1.3-8.7a21,21,0,0,0-3.59-2.21l-.74-.44-.3-.21.14.1-.18-.15-.18-.19s0,0-.07-.08l-.05-.07v0h0a.06.06,0,0,1,0,0c-.06-.1-.08-.22-.06-.22v.1s0-.09,0-.17l0-.06c0-.09,0-.2,0-.08s0-.12,0-.17c.05-.2.09-.41.16-.61a3,3,0,0,1,.11-.32l0-.06,0,0a19,19,0,0,1,2.09-3.31,1.79,1.79,0,0,0,.59-1.09,1.75,1.75,0,0,0-.46-1.75,1.93,1.93,0,0,0-.82-.45l-.11,0-.15,0-.24,0c-3.32-.17-7.12,0-9.89,2.09a8.89,8.89,0,0,0-3.37,6.68,29.65,29.65,0,0,0,.75,7.79c.22,1.17.45,2.33.64,3.51,0,.09.08.54.09.61s0,.45.08.68c0,.53.07,1.08.06,1.62,0,.1-.06.57-.06.61s-.07.36-.11.53,0,.11-.05.16l0,.09a1.09,1.09,0,0,1-.14.23v0a1.07,1.07,0,0,1-.18.19,1.71,1.71,0,0,1-.23.13l-.05,0h0c-.23.07-.46.12-.69.17,0,0-.62,0-.75.05a14.2,14.2,0,0,1-2.7-.24,11.83,11.83,0,0,1-1.3-.34,7.5,7.5,0,0,1-.9-.34,8.36,8.36,0,0,1-1.06-.58,4.57,4.57,0,0,1-.78-.56c-.27-.23-.53-.47-.78-.73s-.28-.3-.41-.46l-.17-.21h0l0,0c-1.92-2.62-2.67-6.05-3-9.17-.8-7.32.35-14.74-.6-22-.37-2.81-1.21-5.73-3.76-7.14a1.33,1.33,0,0,0-.7-.37l0,0c-.11-.18-.22-.36-.32-.55a2.39,2.39,0,0,1-.13-.28c-.07-.21-.17-.42-.23-.63a14.72,14.72,0,0,1-.42-1.58c-.05-.25-.1-.5-.14-.75,0,0,0-.09,0-.12a2.72,2.72,0,0,1,0-.39,13.18,13.18,0,0,1-.08-1.66q0-.4,0-.81l0-.38v0c.08-.43.23-.83.33-1.25.2.27.41.54.67.9.39.54.77,1.08,1.14,1.63.6.89,1.16,1.8,1.76,2.69a34.88,34.88,0,0,0,5.87,6.39c2.69,2.8,6.19,6.5,10.46,6.18a23.11,23.11,0,0,1,3.42-.22h.07l.12,0,.45.09a11.87,11.87,0,0,1,1.32.41,20.77,20.77,0,0,1,3.18,1.7l.11,0,.15.08a1.63,1.63,0,0,0,1.7-.2l.06,0h0a1.8,1.8,0,0,0,.78-1.49c0-1.91-.16-3.8-.23-5.7,0-.1,0-.2,0-.3l.64,0h0a1.53,1.53,0,0,0,.91-.25l.09-.07h0l.2-.17a1.76,1.76,0,0,0,.62-1.19,1.6,1.6,0,0,0-.25-1.13,13.94,13.94,0,0,0-3.73-4.31,2.82,2.82,0,0,0-3.93.82,6.28,6.28,0,0,0-.5.92l-.35.84c0,.09-.08.19-.13.29a5.28,5.28,0,0,1-.27.53,1.64,1.64,0,0,1-.14.22l-.06.06h0l-.05,0h-.19l.05,0-.22,0-.15-.05a11.5,11.5,0,0,1-1.13-.66l-.28-.2-.25-.19-.59-.49-.09-.07a1.82,1.82,0,0,0-1.24-.48l-.52,0-.42-.06-.58-.17-.16,0-.08,0a8,8,0,0,1-.88-.54l-.32-.27-.33-.32a11.13,11.13,0,0,1-.86-1l-.08-.1-.14-.19-.41-.57c-.56-.8-1.08-1.63-1.6-2.45-.34-.52-.68-1-1-1.55a19.29,19.29,0,0,0,3.2.27,1.74,1.74,0,0,0,.64-.13l.08,0h0a2,2,0,0,0,.59-.39,1.88,1.88,0,0,0,.35-.53,1.79,1.79,0,0,0,.16-1.13v0h0a1.67,1.67,0,0,0-.5-.94c-.88-.81-1.74-1.64-2.56-2.51-.3-.32-.59-.65-.88-1l-.37-.45,0,0-.12-.15c-.09-.12-.17-.25-.25-.37.89.41,1.81.78,2.69,1.19l.1,0a1.8,1.8,0,0,0,.84.21,9.23,9.23,0,0,1,1.05,0h0l.36.07.32.09,0,0a2.44,2.44,0,0,1,0,.27c0,.61-.09,1.21,0,1.82a3.9,3.9,0,0,0,1.67,3,7.82,7.82,0,0,0,4.43,1,1.88,1.88,0,1,0,0-3.75c-.38,0-.77,0-1.15,0l-.17,0-.34-.05-.58-.17-.1-.06,0-.09V516c0-.61.09-1.22.05-1.83a4.92,4.92,0,0,0-.27-1.32,16.6,16.6,0,0,0-1.2-5.15l.46.29.18.15.42.42.28.33s.19.26.25.36a17.41,17.41,0,0,1,1.34,2.43c1.43,3.06,2.47,7.29,5.68,9,2.27,1.23,4.8.53,6.91-.69a1.71,1.71,0,0,0,.89-1.21,2.71,2.71,0,0,0,0-.41,1.91,1.91,0,0,0-1.65-1.86,1.42,1.42,0,0,0-.46,0c-.46,0-.92.06-1.37.06-.26,0-.52,0-.78,0s-.86-.12-.33,0a7.75,7.75,0,0,1-1-.23l-.17-.06-.31-.17-.1-.07-.16-.16c0-.1-.12-.2-.18-.3h0l-.09-.31,0-.17s0,0,0,0a.84.84,0,0,1,0-.21.06.06,0,0,1,0,0c0-.09,0-.08,0,0-.13-2,.29-4,.08-5.9,1.06,1,2,2.11,2.94,3.19,3.07,3.47,6.58,6.29,11.33,6.84a22.93,22.93,0,0,0,10.89-1.88l0,0a1.55,1.55,0,0,0,.4-.17,1.87,1.87,0,0,0,.86-1.12s0-.06,0-.1a1.69,1.69,0,0,0,0-.89,1.55,1.55,0,0,0-.17-.4,1.69,1.69,0,0,0-.95-.85,1.49,1.49,0,0,0-.55-.14c-.91-.2-1.82-.42-2.71-.69a47.59,47.59,0,0,0,7.33-.69,1.49,1.49,0,0,0,1.35-1.57,1.76,1.76,0,0,0-.23-1.19,1.79,1.79,0,0,0-1.12-.86,25.64,25.64,0,0,0-5-.25,23.88,23.88,0,0,0-4.69.66l-.18,0a18.32,18.32,0,0,1-8.66-2.88,17.48,17.48,0,0,1-2.16-1.68c-.71-.61-1.39-1.25-2.08-1.87-.5-.46-1-.9-1.55-1.33a15.6,15.6,0,0,1,1.86.43,12.94,12.94,0,0,1,3.31,1.57c.2.13.39.27.58.41l.35.29.4.39.07.09h0l.12.16.12.14a1.31,1.31,0,0,0,.12.11l.15.13.21.12.08,0,.3.1h0a1.77,1.77,0,0,0,.32.05h.27l.24,0h0a1.85,1.85,0,0,0,1.49-1.22,1.54,1.54,0,0,0-.1-1.28,16.23,16.23,0,0,0-5.31-8.31,14.48,14.48,0,0,0-7.58-2.63c-5.33-.49-10.88.9-16-.76-3.35-1.08-5.65-3.63-7.27-6.67a2.13,2.13,0,0,0-.41-.51c-5.62-7-14-12.48-23.31-10.26a18,18,0,0,0-8.13,4.37c-1.66,1.58-3.26,3.78-3.28,6.16a4.11,4.11,0,0,0,3.23,4,22.56,22.56,0,0,0,.06,8.93c.51,2.14,1.67,4.51,3.89,5.28a3.49,3.49,0,0,0,3.1-.44h0a1.74,1.74,0,0,0,.38-.29l.18-.14a15.05,15.05,0,0,1,2.25-1.48,14.46,14.46,0,0,1-.94,3.15c-.07.17-.15.32-.23.48a18.22,18.22,0,0,0-12.69,5.08c-2.23,2-4.23,4.25-6.26,6.45q-3.56,3.86-7.31,7.53a19.86,19.86,0,0,0-2.32-2.17,21.23,21.23,0,0,0-4.65-2.88,7.88,7.88,0,0,0-4.73-.85,3.15,3.15,0,0,0-2,1.43,3.86,3.86,0,0,0-.34,2.67,9.75,9.75,0,0,0,1.15,3,22.83,22.83,0,0,0,1.67,2.66,20.69,20.69,0,0,0-1.52,1.44,6.78,6.78,0,0,0-1.66,2.47,2.48,2.48,0,0,0,0,1.5,2.28,2.28,0,0,0,.6,1,2.67,2.67,0,0,0,1,.6,3.62,3.62,0,0,0,1.23.15,10,10,0,0,0,1.63-.23,24.47,24.47,0,0,0,3.72-1.21c8.93,3.27,16.67-3.38,22.47-10.26a7.58,7.58,0,0,0,2.79,5.94c0,.8,0,1.6,0,2.4,0,.42-.06.84-.1,1.25a.58.58,0,0,0,0,.1,1.23,1.23,0,0,0,0,.13l-.09.5c-.06.26-.12.52-.2.78,0,.09-.13.38-.18.51l-.16.32c-.09.16-.18.32-.28.47a12.21,12.21,0,0,0-1.69,6.62,77.94,77.94,0,0,0,.85,10.35,35.4,35.4,0,0,0,2.69,12.34,35.89,35.89,0,0,0,15.2,18.3,42.73,42.73,0,0,0,17.68,5.26c3.53.59,7,.58,10.31-1,1-.48,2-1.1,2.93-1.66.43-.25.87-.47,1.32-.69l.55-.22.51-.14a30.18,30.18,0,0,1,8,2.66A47.85,47.85,0,0,0,246,589.2c6.52,2,12.43-2,17.27-6A1.4,1.4,0,0,0,264.15,582.32ZM233,554.66v0Zm-11.08,16.4h0C222,571,222.1,570.94,221.94,571.06Zm9.47-41.74c-.18.45-.08.17,0,0Zm-.88-.34.21.14,0,0C230.6,529.07,230.53,529,230.53,529Zm.42,1.41.32-.74.21.24a2.71,2.71,0,0,0-.54.53Zm.72-1.6,0,0C231.8,528.66,231.89,528.64,231.67,528.79Zm-4.3.73h0Zm-.42,0h0ZM216.3,513.07Zm12.09-5.87.45.23,0,0,0,0,.33.33,0,0,0,0c.06.12.14.23.2.35v0a.06.06,0,0,0,0,0,1.19,1.19,0,0,0,.08.16c.06.11,0,.09,0,0s.08.18.09.23.07.26.1.4,0,.06,0,.09,0,.34,0,.51A16.86,16.86,0,0,0,228.39,507.2Zm6.08,9.14a.57.57,0,0,1-.12-.06C234.41,516.3,234.48,516.33,234.47,516.34Zm-.76-.52-.09-.11S233.67,515.75,233.71,515.82Zm.21-13.29Zm-53-18.22a.07.07,0,0,1,0-.05l0,.05Zm0-.07s0,0,0,0l0,.05h0ZM157.82,523l0,0ZM152.45,520v-.05c0,.12,0,.2.05.24A1.8,1.8,0,0,1,152.45,520Zm-.38.33h0Zm.37,0,.07,0-.11,0Zm.1,0c.13,0,.23.05,0,0Zm-.68,0s0,0,.1,0H152C151.79,520.35,151.79,520.34,151.86,520.31Zm94.35,65c-1.93-.7-4.05-2-6.06-2.9a31.47,31.47,0,0,0-8.57-2.71h-.18a2,2,0,0,0-.81,0c-2.29.51-4.11,1.91-6.15,3-.24.13-.49.24-.73.36h0l-.05,0c-.14,0-.27.1-.41.15a11.81,11.81,0,0,1-1.93.47l-.3,0-.57,0c-.41,0-.82,0-1.23,0a20.5,20.5,0,0,1-2.93-.31,1.53,1.53,0,0,0-.3,0l-.19,0c-9.32-.82-18.2-4.45-24.25-11.78a35.43,35.43,0,0,1-7.3-16.21c-.11-.56-.2-1.12-.29-1.69a1.39,1.39,0,0,0,0-.17,1.18,1.18,0,0,0,0-.16c0-.21,0-.42-.07-.63,0-.5-.1-1-.1-1.53a2.14,2.14,0,0,0-.06-.46,84.55,84.55,0,0,1-.78-9,26.57,26.57,0,0,1,.07-2.68c0-.1,0-.27,0-.32a2,2,0,0,0,0-.24c.06-.27.11-.53.19-.79l.14-.4c.06-.11.13-.28.17-.34.16-.29.35-.58.53-.87a9.19,9.19,0,0,0,1.14-2.72,26.48,26.48,0,0,0,.43-6.71,1.89,1.89,0,0,0-.24-.89.36.36,0,0,0-.07-.1.6.6,0,0,0-.09-.13,1.82,1.82,0,0,0-.85-.64l-.12-.07-.14-.08-.43-.43-.25-.41c-.07-.11-.12-.24-.18-.35l-.1-.3c-.06-.2-.12-.39-.16-.59l-.06-.29c0-.06,0-.22-.05-.3v-.07l0-.41c0-.3,0-.6,0-.9s0-.71.06-1.07l.06-.6c0-.09,0-.17,0-.25a26.35,26.35,0,0,1,.62-2.8,1.71,1.71,0,0,0,0-1.24,1.6,1.6,0,0,0-.1-.23s0,0,0,0a1.79,1.79,0,0,0-1-.92l-.17-.07h0a1.65,1.65,0,0,0-1,0,1.9,1.9,0,0,0-1.06.79l0,0c-5.06,6.78-13.31,17.91-23.11,13.92a1.51,1.51,0,0,0-1.26.1c-.5.2-1,.39-1.51.56l1.13-.93a1.67,1.67,0,0,0,.48-.84.19.19,0,0,1,0-.07.52.52,0,0,0,0-.11,1.47,1.47,0,0,0-.22-1.25l0,0-.12-.16a35.12,35.12,0,0,1-2.11-3.14c-.25-.44-.49-.88-.7-1.35l0,0,.05.14-.09-.23,0,0c0-.06,0-.09,0,0-.06-.14-.11-.29-.16-.44a.19.19,0,0,0,0-.08,9.09,9.09,0,0,1,1.61.5l.14.06.51.24c.34.18.68.36,1,.55a21,21,0,0,1,2,1.35l0,0,.2.16.52.44c.35.3.69.61,1,.94a11.87,11.87,0,0,1,.9,1c.06.07.11.14.17.2l.36.52a1.92,1.92,0,0,0,2.57.67l0,0a2.63,2.63,0,0,0,.35-.26c5-4.77,9.41-10.18,14.46-14.92a18.54,18.54,0,0,1,5.09-3.59,14.35,14.35,0,0,1,6.71-.91,1.56,1.56,0,0,0,1.7-1.08,22.49,22.49,0,0,0,1.19-2.71,13.85,13.85,0,0,0,.76-2.75,5.31,5.31,0,0,0-.32-3.43,3.09,3.09,0,0,0-3.56-1.34,7.43,7.43,0,0,0-2.09.9,20.91,20.91,0,0,0-2.38,1.69h0l-.12.08h0l-.06-.05c-.14-.07-.11-.07,0,0l-.1-.09-.17-.19h0c-.12-.19-.26-.38-.37-.59l-.2-.4h0l0,0a12.47,12.47,0,0,1-.52-1.93c0-.16-.06-.33-.09-.5s0-.19,0-.27c0-.44-.07-.89-.08-1.33a25.72,25.72,0,0,1,.67-6.26,2,2,0,0,0-.22-1.46,1.65,1.65,0,0,0-1.4-.89h-.18c-.26,0-.51,0-.77,0h-.14l-.16,0-.36-.11-.15-.08-.1-.12v-.05a1.78,1.78,0,0,1,0-.25v-.12l.15-.54a.3.3,0,0,0,0-.11l0-.06a5.49,5.49,0,0,1,.34-.63c.12-.2.25-.39.38-.58a1.36,1.36,0,0,1,.12-.17l.13-.16a13.31,13.31,0,0,1,1.1-1.15,14.9,14.9,0,0,1,14.72-2.8c4.55,1.55,8.19,5,11.16,8.65a17.1,17.1,0,0,0,6.76,7.16,19.31,19.31,0,0,0,8.34,2.06c4.92.24,10.79-1.13,15.18.92A8.35,8.35,0,0,1,241.7,498l-.3-.1a19.14,19.14,0,0,0-13,.79l-.09,0A1.61,1.61,0,0,0,227,500h0l0,.22a1.93,1.93,0,0,0,.22,1.2,1.71,1.71,0,0,0,1.23.86,1.9,1.9,0,0,0,.89,0,9.5,9.5,0,0,1,2.79-.24l.27,0,.1,0,.59.13.57.17.28.11.08,0a10.84,10.84,0,0,1,1,.55l.55.37.28.2c.71.55,1.38,1.17,2,1.78,3.36,3.06,6.9,5.58,11.38,6.59a2.29,2.29,0,0,0,.1.87,3.68,3.68,0,0,0,1.6,1.9c.17.11.35.21.54.31a14.87,14.87,0,0,1-3.2.1,10.79,10.79,0,0,1-5.63-2.23l-.37-.3-.57-.49c-.39-.35-.77-.72-1.14-1.1-.68-.69-1.32-1.42-2-2.15a25.48,25.48,0,0,0-4-4,8.34,8.34,0,0,0-6.27-1.49,1.48,1.48,0,0,0-1.07.8l-.05.06a1.75,1.75,0,0,0-.22.7,1.49,1.49,0,0,0,0,.47,9.26,9.26,0,0,0-1-.82,7.45,7.45,0,0,0-6.9-.39l-.08,0a1.87,1.87,0,0,0-1.27,1.5.11.11,0,0,0,0,.05,1.48,1.48,0,0,0,0,.21v0a1.88,1.88,0,0,0,.06.46,2,2,0,0,0,.27.54h0a1.25,1.25,0,0,0,.15.19.8.8,0,0,0,.13.13l.1.09.17.13a1.27,1.27,0,0,0,.23.12l0,0,.27.1,0,0,.2,0,.13.08.16.16h0l0,0,.2.24-.16-.18a1.24,1.24,0,0,1,.14.18,6.47,6.47,0,0,1,.44.82.36.36,0,0,1,0,.09l.21.61a2.1,2.1,0,0,0,.06.24l-.66,0a25,25,0,0,1-3.92-1.92c-.16-.1-.6-.5-.07,0l-.38-.31c-.15-.14-.28-.3-.42-.45a6,6,0,0,0-1.71-2.63l-.11-.11h0a1.91,1.91,0,0,0-2.28-.29l0,0a1.64,1.64,0,0,0-.33.26,1.81,1.81,0,0,0-.53,1.19h0a1.83,1.83,0,0,0,.21,1s0,0,0,.05a17.9,17.9,0,0,0,1.12,1.83c0,.06,0,.13-.05.2a6.91,6.91,0,0,0-.11.9,2.64,2.64,0,0,0-2.5-1.7c-1.71,0-3.3,1.22-4.59,2.2a2,2,0,0,0-.79,2.32l.07.15a.36.36,0,0,1,0,.09l0,0c0,.08.11.15.17.23l0,0a1.71,1.71,0,0,0,.45.38,26,26,0,0,1,8.2,8.25c1.74,2.63,3.28,5.61,5.86,7.53a7.85,7.85,0,0,0,4,1.47,8.44,8.44,0,0,0,4.59,2.27,3.87,3.87,0,0,0,3.47-1.8s0-.09.08-.14a10.14,10.14,0,0,0-.08,3.6c0,.26,0,.53,0,.8a12.23,12.23,0,0,0-3.21-1,13.58,13.58,0,0,0-3.82,0c-.52.06-1,0-1.54.05h-.06c-.15,0-.31-.08-.46-.12l-.37-.12-.07,0-.14-.08a23,23,0,0,1-5.68-4.73,46,46,0,0,1-3.61-3.51l-.63-.72-.24-.29-.06-.08c-.29-.41-.59-.8-.87-1.22-1.49-2.23-3-4.44-4.64-6.55l0,0-.2-.24a1.55,1.55,0,0,0-1.18-.54.66.66,0,0,0-.14,0c-3.2.05-4.4,3.14-4.61,5.87a16.26,16.26,0,0,0,1.44,8,4.28,4.28,0,0,0,2.51,2.47l.41.21.24.23.15.14a1.19,1.19,0,0,0,.07.15c.13.24.27.48.39.73v0c.06.15.11.3.16.45s.17.59.24.89.14.64.2,1c0,.11,0,.23.05.34s0,.37.06.46A88.21,88.21,0,0,1,205,548a84.41,84.41,0,0,0,.44,11.79c.47,3.58,1.33,7.3,3.52,10.24,2.71,3.64,6.83,5.19,11.27,5.22,2.49,0,4.76-1.05,5.65-3.5.75-2.07.37-4.44,0-6.55-.2-1.24-.45-2.47-.68-3.7-.25-1.4-.41-2.33-.52-3.5,0-.58-.08-1.16-.08-1.75,0-.25,0-.51,0-.76s.06-.61.06-.68a8.63,8.63,0,0,1,.34-1.42s.09-.23.1-.28l.06-.12a5.67,5.67,0,0,1,.47-.79v0l0,0,.37-.4.23-.21.1-.08.18-.13a5.73,5.73,0,0,1,1.57-.76,12.07,12.07,0,0,1,2.45-.48c-1.47,2.55-2.26,5.48.21,7.67a19.07,19.07,0,0,0,3.52,2.13l.79.49.2.15a2.92,2.92,0,0,1,.29.26c.1.09.19.2.28.29l.06,0s0,0,0,.06.14.25.21.36l.06.07a1,1,0,0,0,0,.12c0,.14.07.28.1.42s0,.32,0,.45,0,.46,0,.69v0c0,.16-.06.32-.1.48a13.93,13.93,0,0,1-1.46,3.69,1.58,1.58,0,0,0-.44,1.14,2,2,0,0,0,2.52,2,19.45,19.45,0,0,1,4.37-.3,7.41,7.41,0,0,1,1.54.21l.69.19c.09,0,.78.29.54.19a5,5,0,0,1,2,1.38c.15.16.3.32.44.49l.07.07a.8.8,0,0,0,.08.12c.27.38.52.77.75,1.16,1.85,3.15,3,6.86,6.54,8.57a10.44,10.44,0,0,0,2.79.85,17,17,0,0,1-4.53,2.13A8.91,8.91,0,0,1,246.21,585.31Z" transform="translate(-148.31 -472.95)"/><path class="cls-1" d="M233,554.62a1.23,1.23,0,0,0-.06-.23l.06.22Z" transform="translate(-148.31 -472.95)"/><path class="cls-1" d="M233.49,555.11Z" transform="translate(-148.31 -472.95)"/><path class="cls-1" d="M232.93,554.32a.43.43,0,0,0,0,0,.92.92,0,0,0,0-.19v0S232.92,554.26,232.93,554.32Z" transform="translate(-148.31 -472.95)"/><path class="cls-1" d="M227.12,529.53h0l0,0H227l.1,0Z" transform="translate(-148.31 -472.95)"/><path class="cls-1" d="M219.67,508.27h0l.07.09Z" transform="translate(-148.31 -472.95)"/><path class="cls-1" d="M229.5,508.24h0a.39.39,0,0,0,.06.19A.59.59,0,0,1,229.5,508.24Z" transform="translate(-148.31 -472.95)"/><path class="cls-1" d="M233.42,514.89c0,.07,0,.14,0,.2s0-.19-.05-.27v.07Z" transform="translate(-148.31 -472.95)"/></svg>