<svg id="Layer_1" data-name="Layer 1" xmlns="http://www.w3.org/2000/svg" viewBox="0 0 43.29 44.03"><defs><style>.cls-1{fill:#231f20;}</style></defs><path class="cls-1" d="M221.94,112.11a21.6,21.6,0,0,0-14.82,40.58,21.84,21.84,0,0,0,5.82,1.25,2,2,0,0,0,2.78.54,1.85,1.85,0,0,0,.54-.54,23.16,23.16,0,0,0,2.62-.33,21.24,21.24,0,0,0,13.06-8.43,1.09,1.09,0,0,0,.17-.13,1.7,1.7,0,0,0,.44-.74,21.44,21.44,0,0,0-10.61-32.2Zm10.53,20.34a18.42,18.42,0,0,1-2,8l-12.79-14.88c.11-2.19.21-4.38.32-6.57.06-1.37.12-2.74.16-4.11a18.08,18.08,0,0,1,14.33,17.56Zm-33.13-9.31a18.06,18.06,0,0,1,15.12-8.56c-.06,3.38-.26,6.77-.44,10.15q-7.62,8-15.29,15.94a18.13,18.13,0,0,1,.63-17.53Zm1.51,20.73q6.45-6.69,12.87-13.42c-.27,5.36-.54,10.72-.78,16.08l-.15,3.65a18.1,18.1,0,0,1-11.92-6.31Zm19.93,5.35a18.26,18.26,0,0,1-4.25,1c.1-3.92.35-7.84.55-11.75q.18-3.69.37-7.39l11,12.67a17.34,17.34,0,0,1-7.61,5.47Z" transform="translate(-192.92 -110.79)"/></svg>