<svg id="Layer_1" data-name="Layer 1" xmlns="http://www.w3.org/2000/svg" viewBox="0 0 43.41 46.49"><defs><style>.cls-1{fill:#231f20;}</style></defs><path class="cls-1" d="M222.24,107.49l-.06-.27v-.08a1.89,1.89,0,0,0-.11-.25v-.14l-.06-.07a2,2,0,0,0-1.58-.8c-1.46-.19-2.93-.37-4.39-.54l-1.65-.2-.84-.1h-.7l-.46-.07-.66-.1c-.4-.06-.8-.13-1.19-.21a16.37,16.37,0,0,1-1.82-.51h0l-.31-.16-.29-.17h0c-.14-.17-.34-.34-.5-.5a4,4,0,0,0-.23-.34c-.13-.22-.25-.45-.36-.68s-.12-.26-.19-.39,0-.14-.08-.22c-.29-.74-.54-1.49-.79-2.25-.86-2.63-1.7-5.27-2.64-7.87A2,2,0,0,0,202,90.16h-1.15a2,2,0,0,0-1.17,1.27c-1.16,2.93-2.25,5.9-3.34,8.86l-.53,1.41-.22.55-.21.53-.15.33-.21.45a8.94,8.94,0,0,1-.44.8l-.18.27h0l-.25.25a1.64,1.64,0,0,0-.22.14c-.19.06-.38.13-.57.17a1.22,1.22,0,0,1-.27,0h-.21l-1,.06h-2.34a85.45,85.45,0,0,0-8.6.58,1.63,1.63,0,0,0-1.41.51,1.7,1.7,0,0,0-.69,1.39,2,2,0,0,0,.34,1l.07.09a1.85,1.85,0,0,0,.75.64,32.59,32.59,0,0,1,6.17,4.6,5.08,5.08,0,0,1,1.2,1.67l.15.41.11.44h0v1.12a3.29,3.29,0,0,1-.14.68c-.12.44-.26.86-.42,1.28a25.62,25.62,0,0,1-1.33,2.74c-1.53,2.81-3.22,5.53-4.85,8.28a1.49,1.49,0,0,0-.49,1.43,2,2,0,0,0,2.28,1.68,1.9,1.9,0,0,0,.57-.18c3.1-1.46,6.14-3,9.15-4.63,1-.54,2-1.09,3-1.61l1.21-.59.35-.16.49-.19c.31-.11.63-.21.95-.29l.38-.08h.67c.29.06.57.14.86.23h.06l.44.23c.34.19.67.41,1,.63.69.52,1.36,1.07,2,1.66,2.65,2.33,5.2,4.76,7.82,7.12a1.73,1.73,0,0,0,2,.62h0a2,2,0,0,0,1.09-.77,1.63,1.63,0,0,0,.18-1.78c-.57-2.42-1.37-4.75-2.17-7.1a17.82,17.82,0,0,1-1.23-5.28,8.1,8.1,0,0,1,1.86-5,36.06,36.06,0,0,1,7.81-7.19,2.06,2.06,0,0,0,1-1.69v-.17ZM193.75,105C193.61,105.12,193.61,105,193.75,105Zm-.8.2Zm14.92,15.92a17.58,17.58,0,0,0,1.21,6.41c.16.46.32.92.47,1.38-.87-.79-1.73-1.59-2.61-2.37a20.26,20.26,0,0,0-4.77-3.51c-3.63-1.67-7.07.31-10.28,2-1.57.84-3.13,1.67-4.71,2.48.76-1.28,1.5-2.57,2.18-3.89a14.26,14.26,0,0,0,2.07-6.46c0-3.39-2.4-5.94-5.15-8,1-.06,1.94-.12,2.91-.13a29.66,29.66,0,0,0,4.8-.26c3.25-.59,4.37-3.71,5.41-6.45q.94-2.49,1.87-5l.84,2.6a25.27,25.27,0,0,0,1.81,4.6c1.55,2.75,4.38,3.52,7.32,4,1.47.21,2.95.39,4.43.57C211.78,112.22,208.09,116.1,207.87,121.09Z" transform="translate(-178.83 -90.16)"/></svg>