<svg id="Layer_1" data-name="Layer 1" xmlns="http://www.w3.org/2000/svg" viewBox="0 0 41.49 42.29"><defs><style>.cls-1{fill:#231f20;}</style></defs><path class="cls-1" d="M219.94,162.07a1.93,1.93,0,0,0-2.31,1.31A12.07,12.07,0,0,1,211.9,170c-3.1,1.62-7.07,2-10.69,2-4.5.24-9-.86-12.34-3.92-3.93-3.63-5.32-9-5.34-14.26a50.09,50.09,0,0,1,1.06-6,17.42,17.42,0,0,1,1.87-4.83,11.37,11.37,0,0,1,3.17-3.49,16.94,16.94,0,0,1,5.73-2.41,1.71,1.71,0,0,0,.38-.13,1.78,1.78,0,0,0,.9.21,19.9,19.9,0,0,1,6.1.68c.46.13.92.28,1.37.45l.3.13.51.24a10.59,10.59,0,0,1,1.14.66l.42.28.29.24a8.24,8.24,0,0,1,.86.81c.14.15.27.31.41.47l.06.07.12.17c.21.3.41.61.59.93a6.2,6.2,0,0,1,.29.57l.17.4a12.85,12.85,0,0,1,.67,2.35c0,.05.07.43.08.49a2,2,0,0,0,.07.64c0,.52,0,1,.06,1.55a15.48,15.48,0,0,1-.1,2.15,1.44,1.44,0,0,1-.05.46.21.21,0,0,1,0,.11.06.06,0,0,1,0,.06c-.05.31-.1.63-.17.94a14,14,0,0,1-.51,1.82l-.15.38h0l0,.09c-.13.28-.27.55-.42.82a7.89,7.89,0,0,1-.45.71l-.23.32c.21-.31,0-.07-.07.07a9.48,9.48,0,0,1-1.21,1.16l-.11.08-.39.26a7,7,0,0,1-.84.48l-.39.19-.1.05c-.33.11-.65.24-1,.34a11,11,0,0,1-1.16.3l-.65.13h-1l-.65.05a13.48,13.48,0,0,0-1.42,0,14.66,14.66,0,0,1-2.42-.65l-.3-.12-.48-.23a8.37,8.37,0,0,1-1-.58c-.08-.05-.37-.29-.28-.21l-.24-.21q-.36-.34-.69-.72h0a.21.21,0,0,0-.06-.1c-.08-.13-.17-.26-.24-.4s-.13-.23-.19-.34l-.07-.15h0c-.08-.27-.18-.52-.24-.8s0-.29-.08-.43a.33.33,0,0,1,0,.14v-.21c0-.28,0-.55,0-.83v-.23a2.52,2.52,0,0,1,.06-.35,8.12,8.12,0,0,1,.22-.81c0-.12.09-.23.13-.35l.09-.19c.13-.26.27-.51.42-.76l.27-.4a.91.91,0,0,1,.11-.16h0c.24-.27.47-.54.72-.78s.28-.26.43-.39l.21-.17c.29-.21.6-.41.91-.6l.47-.25c.09,0,.72-.32.33-.16a1.93,1.93,0,0,0,1.31-2.31,1.88,1.88,0,0,0-2.31-1.3,11.32,11.32,0,0,0-6.83,7.2,8.52,8.52,0,0,0,2.65,8.89,13.49,13.49,0,0,0,6.42,2.79h0a1.74,1.74,0,0,0,.45.06c3.3,0,6.86-.55,9.63-2.49a12.2,12.2,0,0,0,4.77-7.09,21.36,21.36,0,0,0,.62-5.34,15.26,15.26,0,0,0-2.67-9.14,14,14,0,0,0-8-5.07,26.65,26.65,0,0,0-6.55-.67,2,2,0,0,0-.9.24,1.82,1.82,0,0,0-1.37-.19c-4.51,1.1-8.6,3.41-11,7.46-2.24,3.7-2.93,8.1-3.48,12.33a4.43,4.43,0,0,0-.06.51,1.28,1.28,0,0,0,0,.39c.08,4.83,1.14,9.83,4,13.78a18.75,18.75,0,0,0,10.2,7,22.89,22.89,0,0,0,7.18.72c4.34,0,8.88-.5,12.76-2.6a16.21,16.21,0,0,0,7.28-8.78A1.88,1.88,0,0,0,219.94,162.07Z" transform="translate(-179.79 -133.47)"/></svg>