<svg id="Layer_1" data-name="Layer 1" xmlns="http://www.w3.org/2000/svg" viewBox="0 0 112.57 78.06"><defs><style>.cls-1{fill:#231f20;}</style></defs><path class="cls-1" d="M175.37,325.78v.3C175.38,325.84,175.38,325.77,175.37,325.78Z" transform="translate(-143.48 -286.26)"/><path class="cls-1" d="M177.84,329.75Z" transform="translate(-143.48 -286.26)"/><path class="cls-1" d="M174.88,317.47Z" transform="translate(-143.48 -286.26)"/><path class="cls-1" d="M175.8,315.46l-.2.14h0A.28.28,0,0,0,175.8,315.46Z" transform="translate(-143.48 -286.26)"/><path class="cls-1" d="M175.56,315.64l-.13.15,0,0C175.54,315.75,175.58,315.66,175.56,315.64Z" transform="translate(-143.48 -286.26)"/><path class="cls-1" d="M176,315.34l-.17.07,0,0A.37.37,0,0,0,176,315.34Z" transform="translate(-143.48 -286.26)"/><path class="cls-1" d="M147.75,339.45c.12-.18.07-.15,0,0Z" transform="translate(-143.48 -286.26)"/><path class="cls-1" d="M254.53,311.45a49.84,49.84,0,0,0,1.41-15.86,1.88,1.88,0,0,0-.25-.85,1.69,1.69,0,0,0-1.63-1H237.33c.13-3.6-6.16-4.75-8.64-5.24a126.66,126.66,0,0,0-19.83-2q-11.67-.48-23.36.05a130.21,130.21,0,0,0-19.8,2.06c-2.7.54-10,2.15-8.41,6.26-1.57,10.46-.92,21.33,3.64,31a51.13,51.13,0,0,0-12,6.62,14.26,14.26,0,0,0-4.76,5.9,6.2,6.2,0,0,0-.4,1.91c-1.63,5,4.34,9.63,7.86,12,7.58,5.08,16.71,8,25.58,9.82a112.36,112.36,0,0,0,20.69,2.24,163.38,163.38,0,0,0,26.91-3.47c7.37-1.63,15.59-3.84,21.41-8.92a11.74,11.74,0,0,0,4.37-8.63,18.46,18.46,0,0,0-.16-4.39,11,11,0,0,0-4.56-6.31,21.31,21.31,0,0,0-4.05-2.24c.23-.16.47-.31.69-.48A34.16,34.16,0,0,0,254.53,311.45Zm-7.13,7.41a28,28,0,0,1-13.58,11.7,29.1,29.1,0,0,1-4.44,1.35,36.57,36.57,0,0,0,3.37-5,19.17,19.17,0,0,0,12.88-9.32c2.48-4.12,4.05-9.37,3.42-14.21a2,2,0,0,0-.74-1.46,1.69,1.69,0,0,0-1.14-.41c-3.09-.1-6.17-.1-9.25,0,0-1.33-.13-2.66-.24-4h14.59C252.48,304.88,251.26,312.41,247.4,318.86Zm-11.29-.13A53.38,53.38,0,0,0,238,305.19c2.48-.05,5-.05,7.45,0a20,20,0,0,1-2.89,10.25,16.21,16.21,0,0,1-7.62,6.88C235.36,321.15,235.76,320,236.11,318.73Zm-30-28.59c3.5.1,7,.27,10.49.55,1.58.12,3.15.26,4.72.44s2.37.27,3.89.51a42.19,42.19,0,0,1,6.11,1.37c-3.09.59-6.23,1-9.36,1.27-5.56.52-11.14.78-16.72.91s-10.87.14-16.31,0a12.91,12.91,0,0,0-2.29-4.95Q196.33,289.86,206.08,290.14Zm-24.56,4.34s0,0,0,0Zm0,0s0-.07.05-.1a10.06,10.06,0,0,1,.51-1c.09-.16.19-.31.29-.46a.9.9,0,0,0,.07-.11l.09-.09.32-.32,0,0,.28-.17h0l.26.15c-.45-.21-.05,0,.12.14s.11.13.17.18h0a9.37,9.37,0,0,1,.73,1.22,8.39,8.39,0,0,1,.48,1.22l-3.59-.15.09-.24Zm-15.27-2.14a72.57,72.57,0,0,1,7.68-1.16c1.81-.19,3.62-.35,5.44-.48A12.89,12.89,0,0,0,177.7,294c-.08.23-.13.47-.2.7q-2.91-.17-5.79-.4c-3.23-.26-6.18-.49-9.19-1l.69-.25C164.21,292.77,165.24,292.52,166.27,292.3Zm-5.5,4.49c2.9.55,5.85.85,8.78,1.12q3.55.31,7.13.53a34.36,34.36,0,0,0-.29,3.77,39.62,39.62,0,0,0,1,9.27,6.36,6.36,0,0,0-3.35.67,5.72,5.72,0,0,0-2.63,3.78,20.7,20.7,0,0,0,.14,7.88,13.15,13.15,0,0,0,1.09,5.84c1.4,2.92,4.49,4.23,7.59,4.33a24.43,24.43,0,0,0,8.37-1.51l.15-.06.13-.06.12-.07a1.77,1.77,0,0,0,1-1.62s0-.05,0-.07a.57.57,0,0,0,0-.13c-.13-1.8-.31-3.6-.55-5.39-.08-.55-.17-1.11-.25-1.66l-.12-.76c0-.08-.06-.41-.07-.5v0l0-.33c0-.21,0-.42,0-.63,0-.48,0-1,0-1.44a35.06,35.06,0,0,1,.42-4,1.86,1.86,0,0,0-2.43-2.25,3.13,3.13,0,0,0-.53-.12h-.09l-.49-.09-1.1-.23c-.71-.16-1.41-.35-2.12-.54l-1.09-.29a33.63,33.63,0,0,1-.95-13.54c1.55.07,3.1.14,4.65.19a298.1,298.1,0,0,0,35.24-.66,104.3,104.3,0,0,0,13.5-1.85c1.12,11.37.16,23.78-7.05,33-5.46,7-13.47,10.85-22,12.57a56.22,56.22,0,0,1-12.43,1,28.66,28.66,0,0,1-19.3-7.13c-6.62-5.71-10.58-13.73-12.1-22.26A54.31,54.31,0,0,1,160.77,296.79Zm24.42,25.49c.33,2.61.66,4.56.89,7-.78.22-1.56.43-2.35.59l-.79.15-.51.07a14.54,14.54,0,0,1-1.47.11c-.4,0-.8,0-1.21,0l-.37,0-.39-.07a6.32,6.32,0,0,1-1-.27.58.58,0,0,1-.18-.08l.11.07c-.13-.08-.28-.14-.42-.21a2.5,2.5,0,0,1-.35-.21l-.11-.07-.2-.15c-.1-.1-.2-.19-.29-.29s-.16-.19-.25-.28h0A6.58,6.58,0,0,1,176,328l-.14-.28c-.07-.23-.16-.45-.23-.67s-.11-.42-.15-.63l-.06-.32h0v0a.82.82,0,0,1,0-.28c0-.67-.11-1.37-.11-2a2,2,0,0,0-.07-.5c-.13-.81-.17-1-.24-1.78-.07-.6-.11-1.19-.13-1.79s0-.92,0-1.37c0-.23,0-.46.05-.68s0-.17,0-.26v.12s0-.07,0-.1a7.53,7.53,0,0,1,.26-1l0-.1c.07-.12.12-.25.19-.36l0-.05,0,0,.06-.06,0-.06c.05-.09.08-.11.09-.09v0h0l.07,0,.13-.13c.05-.06.07,0,.07,0l0,0h-.06l.09,0h0c.17-.11.2-.1.17-.07l.09,0,.33-.08h0a13.73,13.73,0,0,1,1.57,0h.06l.46.09.54.11a1.81,1.81,0,0,0,.61.14l1.79.46c1.27.34,2.53.65,3.82.87A21.61,21.61,0,0,0,185.19,322.28ZM147.53,343c.05.12,0,.11,0,0Zm98.17-5.5-.1-.12S245.66,337.45,245.7,337.51Zm-7.07-4.4a20.94,20.94,0,0,1,2.58,1.08,19.87,19.87,0,0,1,2.2,1.26l.5.35.13.1c.26.23.54.45.79.69a6.77,6.77,0,0,1,.59.61l.27.3,0,0,0,.06a10,10,0,0,1,.73,1.27l.1.27a6.13,6.13,0,0,1,.18.61c0,.18.07.37.11.55s0,.11,0,.17c0,.35,0,.71,0,1.06,0,.59-.1,1.18-.1,1.77a6.26,6.26,0,0,1-.71,2.88,9.48,9.48,0,0,1-2.23,2.8,26.23,26.23,0,0,1-8,4.65c-7.65,3.07-16,4.63-24.11,5.69q-6.93.9-13.93,1.25a100.44,100.44,0,0,1-31.59-5.37c-6.14-2.16-13-5.1-17.3-10a6,6,0,0,1-1-1.28c-.13-.21-.24-.42-.36-.62l-.15-.33,0-.07c-.07-.22-.12-.43-.19-.65a.83.83,0,0,0,0-.12.34.34,0,0,0,0-.11,4,4,0,0,0,0-.5c0-.12.06-.25.1-.37v0a.29.29,0,0,1,0-.09,1.74,1.74,0,0,0,.06-.74c.06-.23.11-.46.18-.69a1.38,1.38,0,0,1,.08-.17.3.3,0,0,1-.05.07A5,5,0,0,0,148,339a13.3,13.3,0,0,1,.72-1.12l.26-.31c.19-.22.39-.44.59-.65a20,20,0,0,1,1.52-1.39l.39-.31.09-.07a.84.84,0,0,1,.15-.11c.38-.28.76-.56,1.15-.82.81-.54,1.64-1.05,2.49-1.54a63.76,63.76,0,0,1,7.36-3.53,36.35,36.35,0,0,0,17.14,15.15,30.51,30.51,0,0,0,12.51,2.37,54,54,0,0,0,24.76-4.93,35.54,35.54,0,0,0,8.22-5.52A31.91,31.91,0,0,0,238,332.74,2.35,2.35,0,0,0,238.63,333.11Z" transform="translate(-143.48 -286.26)"/></svg>