<svg id="Layer_1" data-name="Layer 1" xmlns="http://www.w3.org/2000/svg" viewBox="0 0 138.25 222.47"><defs><style>.cls-1{fill:#231f20;}</style></defs><path class="cls-1" d="M297.93,450.43l-.06.07,0,0C298.06,450.35,298,450.34,297.93,450.43Z" transform="translate(-227.41 -416.19)"/><path class="cls-1" d="M293.07,454.59h0Z" transform="translate(-227.41 -416.19)"/><polygon class="cls-1" points="65.66 38.4 65.65 38.4 65.65 38.41 65.66 38.4"/><path class="cls-1" d="M293.09,454.58h0l0,0Z" transform="translate(-227.41 -416.19)"/><path class="cls-1" d="M292.9,454.68H293l0,0v0h0l0-.05-.07.06-.08.05h0Z" transform="translate(-227.41 -416.19)"/><path class="cls-1" d="M297.5,451.18h0a.42.42,0,0,0,.13-.23A.75.75,0,0,1,297.5,451.18Z" transform="translate(-227.41 -416.19)"/><path class="cls-1" d="M298.36,450l-.12.08,0,0h0C298.39,450.08,298.42,450,298.36,450Z" transform="translate(-227.41 -416.19)"/><path class="cls-1" d="M331,446.49l0,0h0l-.11,0H331Z" transform="translate(-227.41 -416.19)"/><path class="cls-1" d="M332.48,452.87h0l-.08.09A.44.44,0,0,0,332.48,452.87Z" transform="translate(-227.41 -416.19)"/><path class="cls-1" d="M331.92,453.43l0,.05,0,0C332,453.4,332,453.34,331.92,453.43Z" transform="translate(-227.41 -416.19)"/><path class="cls-1" d="M337.75,450.25Z" transform="translate(-227.41 -416.19)"/><path class="cls-1" d="M337.81,450.14h0Z" transform="translate(-227.41 -416.19)"/><path class="cls-1" d="M337.57,458.56h0Z" transform="translate(-227.41 -416.19)"/><path class="cls-1" d="M337.35,458.53h0Z" transform="translate(-227.41 -416.19)"/><path class="cls-1" d="M338.68,459.82h0C338.91,459.74,339,459.61,338.68,459.82Z" transform="translate(-227.41 -416.19)"/><path class="cls-1" d="M344.52,466Z" transform="translate(-227.41 -416.19)"/><path class="cls-1" d="M343.41,470.33h0C342.92,470.09,343.25,470.27,343.41,470.33Z" transform="translate(-227.41 -416.19)"/><path class="cls-1" d="M344.24,470.58h0l0,0-.06,0Z" transform="translate(-227.41 -416.19)"/><path class="cls-1" d="M342.38,481.82a.39.39,0,0,0-.17,0h0Z" transform="translate(-227.41 -416.19)"/><path class="cls-1" d="M336.28,475.41l0-.06a.43.43,0,0,1,0,.07Z" transform="translate(-227.41 -416.19)"/><path class="cls-1" d="M341.11,480.62a.36.36,0,0,0-.08-.22.79.79,0,0,1,.07.22Z" transform="translate(-227.41 -416.19)"/><path class="cls-1" d="M364.52,575.8c-1.88-5.18-5.48-9.48-9.52-13.14,1.6-6.86,1.19-13.8-2.74-19.87-3.49-5.4-8.58-9.51-12.49-14.59a33.69,33.69,0,0,1-5.66-10.85c-.71-3.29-1.35-7.14-.78-10.34a8.2,8.2,0,0,1,.94-2.82,6.49,6.49,0,0,1,.39-.62c.06-.1.08-.13.08-.15l.15-.15a8.46,8.46,0,0,1,1-.93l0,0,.15-.1c.18-.12.36-.24.55-.35a12.75,12.75,0,0,1,1.22-.63l.15-.07.07,0,.54-.2c.43-.17.87-.31,1.31-.46a27.18,27.18,0,0,0,4.94-1.92,8.35,8.35,0,0,0,3.45-3.64,4.69,4.69,0,0,0,.53-1.33,1.73,1.73,0,0,0-1.35-2.24,1.7,1.7,0,0,0-2.27,1.25l-.1.32a2.13,2.13,0,0,0-.12.29h0l-.09,0c0,.11-.74,0,0,0h-1l-.13,0-.57-.11c-.4-.09-.81-.2-1.21-.31l-2.53-.75a17.31,17.31,0,0,0-6.63-.87l.13-.14.15-.14,0,0h0l.38-.23.17-.09c.3-.09.59-.16.9-.23l.72-.07c.4,0,.81,0,1.21,0,3.22.19,6.64,1.14,9.65-.54A9,9,0,0,0,350,484a2.17,2.17,0,0,0,0-.25v0a1.3,1.3,0,0,0,0-.34v0a1.57,1.57,0,0,0-.05-.3v0s0,0,0-.05a1.67,1.67,0,0,0-.08-.2,1.92,1.92,0,0,0-2.21-1.06c-.64.15-1.29.28-1.95.38l-.53,0c-.32,0-.64,0-1,0s-.41,0-.62,0l-.3,0c-.16,0-.33-.06-.49-.11a4.15,4.15,0,0,1-.42-.16c.07.05.08.1-.09,0l-.08,0h0l-.11,0-.32-.2-.11-.11c-.09-.08-.17-.18-.26-.27l-.07-.12a2.79,2.79,0,0,1-.19-.33.3.3,0,0,1,0-.08v0a.06.06,0,0,0,0,0l-.06-.13c-.07-.12-.05-.13,0-.09l-.08-.18a11.07,11.07,0,0,1-.41-1.88v0c0-.15,0-.3,0-.45,0-.31-.07-.63-.11-.94a8.68,8.68,0,0,0-1.08-3.8,5.07,5.07,0,0,0-.36-.45h.24a2,2,0,0,1,.33.08c.22.06.44.13.65.21l.23.09.09,0a12.82,12.82,0,0,0,3,1.14,3.78,3.78,0,0,0,3.92-1.57c1.23-1.72,1.37-4.2,1.51-6.22a1.73,1.73,0,0,0-.46-1.21l0,0a1.37,1.37,0,0,0-.17-.17l-.14-.12-.14-.09-.16-.09-.24-.09-.05,0h0l-.3-.05H347l-.14,0-.17,0-.16,0-.22.07-.09,0a1.78,1.78,0,0,0-1,1.19c0,.07,0,.14-.05.21s-.29-.07-.43-.12l-.35-.13a.68.68,0,0,1,.16.06l-.22-.1c-.58-.27-1.13-.58-1.69-.9-.91-.52-1.87-1.09-2.86-1.59a6,6,0,0,0,2.61-1.6,8.45,8.45,0,0,0,2-4.72h0a2.07,2.07,0,0,0,0-1,1.72,1.72,0,0,0-.36-.68,1.51,1.51,0,0,0-.95-.63l-.11,0a1.64,1.64,0,0,0-.88,0,1.79,1.79,0,0,0-.37.16,1.7,1.7,0,0,0-.8.72l-.09.09-.11.11-.17-.06,0,0c-.5-.23-1-.48-1.51-.67a3.3,3.3,0,0,0,.41-.23,3.42,3.42,0,0,0,1.29-1.45,13.6,13.6,0,0,0,1-3.06,2,2,0,0,0-.34-1.64,1.6,1.6,0,0,0-1-.66,2.14,2.14,0,0,0-1.32.14,1.68,1.68,0,0,0-1,1.17c-.05.25-.14.49-.21.74v0c-.32-.09-.64-.19-.95-.3a15.36,15.36,0,0,0-2.65-.78,2.41,2.41,0,0,0,.08-.25c.23-.85.47-1.7.72-2.54a1.91,1.91,0,0,0-.33-1.63,1.6,1.6,0,0,0-1-.67,1.93,1.93,0,0,0-1.26.12,1.71,1.71,0,0,0-1.05,1.18l-.24.87a2.25,2.25,0,0,1-.11.22l-.07.12h0l0,0h-.09a6.18,6.18,0,0,1-.86,0,7.93,7.93,0,0,0-4.7.52c.24-1.16.52-2.31.66-3.49a8.32,8.32,0,0,0-.72-4.54,10.7,10.7,0,0,0-3.94-4.1,1.68,1.68,0,0,0-.53-.31,1.51,1.51,0,0,0-.62-.14h0a.87.87,0,0,0-.28,0,1.65,1.65,0,0,0-.77.23l-.13.11-.12.09-.1.08a1.76,1.76,0,0,0-.32.4,1.83,1.83,0,0,0-.05,1.77l.05.12,0,.07c0,.07,0,.13.07.19s.1.26.14.39.14.53.2.79,0,.24,0,.37,0,.1,0,.17v0a1.05,1.05,0,0,1-.05.19c-.08.13-.14.27-.23.4h0l-.11.14-.42.44c-.08.09-.17.17-.26.26a18.16,18.16,0,0,0-1-4.77,7.92,7.92,0,0,0-3-4,8.06,8.06,0,0,0-5.31-1h0a1.83,1.83,0,0,0-1.28.54l-.19.24,0,.07h0a1.74,1.74,0,0,0-.3,1,2,2,0,0,0,.46,1.21.94.94,0,0,0,.09.12l.24.29,0,0c.13.17.26.35.38.54a11.49,11.49,0,0,1,.61,1.08c0,.08.06.15.08.23a5.18,5.18,0,0,1,.17.56c.05.19.08.38.12.57h0l0,.21a12.94,12.94,0,0,1,0,2c-3.28-4-6.44-8.1-9.85-12a31,31,0,0,0-9.77-7.63,78.92,78.92,0,0,0-9.29-3.66,1.59,1.59,0,0,0-1.94.63,1.8,1.8,0,0,0-.17,2.12c6.6,9.19,14,17.77,20.68,26.86a7.16,7.16,0,0,0-2,.85,6.47,6.47,0,0,0-2.62,3.42,15,15,0,0,0-.6,3.32c.08-.78,0,0,0,.23a5.23,5.23,0,0,1-.15.66.84.84,0,0,1-.05.17h0l0,0h.05l0,0c.11,0,.18,0,.06.06l-.07,0s0,0,0,0l0,0h0l0,0h-.08l-.09.06,0-.05h0l0,0-.84,0c.64,0,0,0-.2,0l-.43-.11a6.72,6.72,0,0,0-4.06-1.18,6.84,6.84,0,0,0-4,1.73,11.13,11.13,0,0,0-3.52,6.73,7.91,7.91,0,0,0,.27,3.81.57.57,0,0,0,0,.13c.64,3.17,2,6.61,5.09,8.16,2.55,1.29,5.5,1,8.16.24a53,53,0,0,0,8.45-3.55,32.17,32.17,0,0,1,7.12-2.84l.16-.05h.78l.48.08h0l-.08-.05.11.06c.1,0,.19.09.15.07l0,0h0l.06,0c.1.1.07.08,0,0l.09.1c-.07-.06.2.32.26.44h0v0c.06.19.12.37.17.55s.1.48.12.62l0,.12a.25.25,0,0,0,0,.07l0,.07a8.1,8.1,0,0,1-.59,1,15.36,15.36,0,0,1-1.58,1.72,48.14,48.14,0,0,1-5,4c-4.07,2.93-8.34,5.65-12.06,9a17.83,17.83,0,0,0-4.32,5.37c0,.07-.05.14-.07.2l-.12.24a7.15,7.15,0,0,1-5.37,4.68,8.1,8.1,0,0,1-1.71.24,18.1,18.1,0,0,1-2.33,0,40.7,40.7,0,0,1-4.18-.42c-5.17-.75-12.41-2.86-16.79,1.14l0,0h0l0,0-.18.05-.47.13-.37.07a19.4,19.4,0,0,1-2.75.09c-2.46,0-4.92-.28-7.37-.4-4.86-.25-10.78-.48-14.85,2.68a9.26,9.26,0,0,0-3.39,7.09,4,4,0,0,0,0,2.67,17,17,0,0,0,1.66,3.56,20,20,0,0,0,2.53,3.47,6,6,0,0,0,3.05,2,3,3,0,0,0,2.73-.75,4.55,4.55,0,0,0,1.14-2.22,2.33,2.33,0,0,0,0-.37.69.69,0,0,0,0-.13,9.06,9.06,0,0,1,.51-2.7s.16-.35.19-.4.18-.31.27-.46v0l.1-.12.39-.38.18-.11.41-.23.05,0H241c.19-.06.39-.13.59-.18l.48-.1a.9.9,0,0,1,.16,0c.39,0,.78-.06,1.18-.07,3.08,0,6.29.76,9.33,0-1.12,2-2.25,4-3.33,6a21.19,21.19,0,0,0-2.56,6.57c-.84,5.41,2.83,9.77,6.33,13.45a1.59,1.59,0,0,0,.56.53h0l.15.08a1.57,1.57,0,0,0,.83.2,5,5,0,0,0,5.54-2.6c1.21-2.32,1.3-5.17,1.36-7.73.08-3-.05-6,0-9.07q0-1.08.09-2.16c0-.3,0-.6.08-.9s0-.34.05-.52l0-.26v-.08a16.18,16.18,0,0,1,.35-1.71c.07-.29.16-.56.25-.84,0-.11.08-.22.13-.33h0l.05-.1c.14-.26.28-.5.44-.75h0l.25-.25a.9.9,0,0,1,.1-.09l.25-.16.11-.07.2-.05.13,0c-.05,0,.27-.05.38-.05a5.67,5.67,0,0,0,.65,0,10.75,10.75,0,0,1,2.05.61,3,3,0,0,0,.42.14,2.08,2.08,0,0,0,.52.11,21.39,21.39,0,0,1,12.67,5.12c3.4,3,5.72,6.87,7.81,10.93,4.47,8.68,7.69,18.36,14.81,25.36a29.71,29.71,0,0,0,13,7.41,10.51,10.51,0,0,0-1,2.2c-1.47,4.63-.95,10,.05,14.64a35.19,35.19,0,0,0,2.78,8.09c1.15,3.93,1.56,7.92.17,11.71a15.25,15.25,0,0,1-5.57,6.68,30.49,30.49,0,0,1-4,2.32c-.68.34-1.37.66-2.06,1s-.83.37-1.71.72a37.66,37.66,0,0,0-6.49,2.87,4.11,4.11,0,0,0-2.07,3.26,2.68,2.68,0,0,0-1.21,1.1,2.84,2.84,0,0,0,1,3.55,14.75,14.75,0,0,0,8.25,2.73c.35,0,.69,0,1,0h0l-.49.11-.2,0h0a20.5,20.5,0,0,1-2.22.06c-1.54-.06-3.08-.26-4.62-.29a7,7,0,0,0-4.17.91c-1.8,1.27-1.9,3.44-1.42,5.41a8.54,8.54,0,0,0,.67,2.73,17.21,17.21,0,0,0,1.81,3.35c1.42,2,3.3,4.13,5.75,4.88a4.72,4.72,0,0,0,3.37-.2,5.85,5.85,0,0,0,4.45-1.37,10.12,10.12,0,0,0,2.52-3.81c.63-1.48,1.12-3,1.71-4.52l.08-.2a.36.36,0,0,0,0-.11l.12-.21a7.82,7.82,0,0,1,.43-.81,1.43,1.43,0,0,1,.14-.2.1.1,0,0,1,0,0h0l0,0v0l0,0h.12v0c.14.08.29.15.42.24l.14.1,0,0c.37.32.71.67,1,1a1.5,1.5,0,0,0,.8.61h0l.17,0a2,2,0,0,0,1.86-.47,1.78,1.78,0,0,0,.54-1.33,1.69,1.69,0,0,0-.06-.49,15.18,15.18,0,0,1-.49-2.93,10.44,10.44,0,0,1,0-1.12v-.14l0,0c0-.16.07-.32.11-.48l.06-.17c0-.07.07-.15.09-.17a1.13,1.13,0,0,1,.12-.18l-.14.15c.09-.09.16-.19.25-.28l.19-.16h0c.22-.13.43-.26.66-.38l.27-.12.76-.3c.61-.24,1.22-.48,1.8-.77a7.69,7.69,0,0,0,3.08-2.85,12.13,12.13,0,0,0,1.46-5.84h0l.07,0,.13.13v0c.14.24.27.48.4.73a.76.76,0,0,0,0,.11c.06.16.11.33.16.49.12.36.21.73.3,1.1s.16.74.22,1.12l.09.54c0,.29,0,0,.05.36.1.9.18,1.81.22,2.71.1,1.85.1,3.7,0,5.54,0,1-.1,1.92-.19,2.88,0,.43-.08.86-.13,1.28,0,.05,0,.09,0,.13a4.67,4.67,0,0,0-.36,1.57,24.11,24.11,0,0,0-.15,3.7,11.79,11.79,0,0,0,1,4.77,3.35,3.35,0,0,0,4.77,1.51,9,9,0,0,0,2.65-2.26c.14-.16.27-.34.41-.51,0,.11.08.22.14.33a4.78,4.78,0,0,0,2.9,2.19l.38.14h0l.25.16a1.86,1.86,0,0,0,1.39.2,1.8,1.8,0,0,0,.48.06c2.92,0,5.88-.76,7.73-3.17s2.13-5.9,2-8.92a60.31,60.31,0,0,0-.83-7.47,1.55,1.55,0,0,0,0-.21.68.68,0,0,0,0-.14,1.49,1.49,0,0,0-.63-1,1.56,1.56,0,0,0-.68-.34l-.25,0h-.2a1.72,1.72,0,0,0-1.5.69,1.88,1.88,0,0,0-.36.67q-.07.27-.18.54v0a.49.49,0,0,1,0,.1l0,.05s0,0,0,.07,0,0,0,0a7.89,7.89,0,0,1-.44.81l-.18.27-.08.09a4,4,0,0,1-.36.35.83.83,0,0,1-.19.18l-.06.06,0,0-.33.2-.29.14.15-.08-.17.07-.28.07h-.58l-.3-.07-.35-.13.17.06-.13-.06a4.15,4.15,0,0,1-.41-.27,1,1,0,0,1-.2-.15l-.3-.3c-.1-.11-.19-.24-.29-.34l.06.06,0,0a6.66,6.66,0,0,1-.52-.89.47.47,0,0,0,0-.1,0,0,0,0,1,0,0,.14.14,0,0,0,0-.06l0-.06c0-.09,0-.13,0-.15a1.66,1.66,0,0,1-.11-.24,11.11,11.11,0,0,1-.31-1.13c0-.19-.07-.38-.1-.57v0a.52.52,0,0,0,0-.11v0l0-.31c0-.5-.06-1,0-1.53s0-1.07.1-1.61a2,2,0,0,1,0-.34c-.13.53,0-.08,0-.19.05-.31.11-.62.17-.92a14.68,14.68,0,0,1,2.56-3.92,16.24,16.24,0,0,1,3.33-2.79c2.36-1.56,5-2.71,7.29-4.32a10.66,10.66,0,0,0,2.13-1.6,28.29,28.29,0,0,0,4.57-5.08A20.11,20.11,0,0,0,364.52,575.8ZM338.93,472.68l0,0C339,472.65,339,472.67,338.93,472.68Zm5.21-2.07h.05s0,0,0,0l-.05,0s0,.05,0,.05S344,470.69,344.14,470.61Zm.24-.08h0Zm.62-4.1Zm-4.16-10.61-.07,0h.07Zm-3.55,2.73Zm0,0h0c-.09,0,0,0,.15,0h-.17Zm.26,0-.08,0Zm.48.19Zm-.21-.08,0,0Zm0-8.51v0h0l0,0s0,0,0,0h0Zm-.05.09,0,0h0l0,0C337.62,450.37,337.63,450.3,337.77,450.21Zm-6.93-3.67h0Zm-17.76-9.88Zm-5.6-2.25Zm-7.06,14.89h0Zm-7.5,5.42h0c-.07.09-.1.06-.08,0Zm-32.13,44.41Zm-29.23,10.21a.2.2,0,0,1,0,.08Zm3.43,5.82,0,.05,0,0s0-.07.07-.13Zm-.05.09h0l0,.06S234.92,515.27,234.94,515.25Zm16.78-8.59-.56.11H251c-.41,0-.81,0-1.22,0-.82,0-1.64,0-2.46-.11-3.31-.24-7.1-.68-9.76,1.75-1.69,1.54-2.25,3.87-2.43,6.07l-.49-.46c-.19-.2-.38-.41-.56-.63l-.23-.28a.77.77,0,0,1,.11.15,1,1,0,0,0-.12-.16v0c-.11-.13-.06-.08,0,0l0,0q-.54-.72-1-1.5c-.31-.5-.6-1-.87-1.54-.12-.24-.24-.48-.35-.72a1,1,0,0,0,0-.1c0-.06-.05-.13-.08-.19-.08-.23-.17-.46-.23-.7,0,0,0-.09,0-.13a1.59,1.59,0,0,0,.14-.56.88.88,0,0,0,0-.17v0a8.2,8.2,0,0,1,.54-2.94,5,5,0,0,1,1.51-1.86,11.8,11.8,0,0,1,5.74-1.77c4.9-.44,9.77.36,14.66.38h.8a16.36,16.36,0,0,0-.58,3.64,5.67,5.67,0,0,1-.36.63,1.83,1.83,0,0,1-.13.16l-.35.32-.25.17-.33.18s-.24.11-.34.14Zm48.5,105.6c-.06-.12,0-.11,0,0Zm-1.93,3.59h0C298.18,616,298.2,615.91,298.29,615.85Zm5.55.21h0C303.57,616,303.7,616,303.84,616.06Zm2.85,0ZM296,623.93l0-.09s0,.07,0,.11Zm.11-.2h0s0-.06.05,0Zm0,0Zm6.3,9.82h0l-.06,0Zm11.08-8.12s0,0,0,0h0S313.48,625.48,313.47,625.46Zm.39,0,0,0,0,0a.05.05,0,0,1,0,0h0Zm-.35,0,0,0Zm.18,0-.13,0h.13Zm.07,0,0,0h0l0,0h.05l0,.07h-.08Zm.16-.15h0v0Zm.5.56.05,0Zm12.85-16.3c-.11-.13-.09-.16,0,0Zm.38.69c0-.05,0,0,0,0Zm.62,17.33v.21C328.13,627.28,328.27,627.5,328.27,627.66Zm11.78,2.78v.06a.06.06,0,0,0,0,0Zm.08,7.65c-.41-.16-.17-.08,0,0Zm.06-4ZM343.53,621Zm11.89-20.32.15-.17C355.42,600.77,355.3,600.81,355.42,600.71Zm6.41-16.31c-.6,4.52-3.19,8.45-6.41,11.52-.53.5-1.08,1-1.64,1.42a3.52,3.52,0,0,0-.39.29l0,0h0c-.24.05-.27.11-.2.1h0c-2.43,1.7-5.17,2.88-7.63,4.55a19.66,19.66,0,0,0-7.07,8.13,1.58,1.58,0,0,0-.23.53c-.82,4-.84,8.63,1.89,12a6,6,0,0,0,7.84,1.38c.08,0,.14-.11.21-.16.09.94.16,1.88.18,2.83a25,25,0,0,1-.1,2.74.81.81,0,0,0,0,.17l0,.2c0,.22-.08.43-.13.65a9.44,9.44,0,0,1-.29,1c0,.06-.15.37-.15.39a2,2,0,0,1-.1.21c-.08.16-.17.32-.26.47l-.2.27c-.16.18-.33.36-.5.53l-.09.09,0,0a3.7,3.7,0,0,0-.33.21c-.15.09-.31.17-.47.25l-.1.06-.08,0a7.89,7.89,0,0,1-1,.28l-.53.11h-.05l-.17,0c-.47,0-.94.07-1.41.07a2.1,2.1,0,0,0-.37,0,8.18,8.18,0,0,0-.92-.39l-.43-.15c.32.12.09.05-.06,0l-.17-.07h0l.15.06h0a.82.82,0,0,1-.2-.12l-.07-.06a1.4,1.4,0,0,1-.1-.16.62.62,0,0,1,0,.1h0l0,0s0,0,0-.06l0,0c-.07-.14-.12-.35,0,0a5.45,5.45,0,0,1-.14-.58,12.8,12.8,0,0,1,.09-2.9,1.79,1.79,0,0,0,0-.61s0,0,0,0a1,1,0,0,0-.05-.24.86.86,0,0,0-.07-.21,1,1,0,0,0-.07-.15.36.36,0,0,0,0-.07l-.05-.06a1.71,1.71,0,0,0-.42-.47h0c-.06,0-.11-.09-.18-.13h0a1.65,1.65,0,0,0-.41-.18,1.9,1.9,0,0,0-1.44.19l-.15.11,0,0-.24.22,0,0a1.43,1.43,0,0,0-.31.43c-.45.73-.91,1.45-1.39,2.15-.21.3-.43.61-.65.9-.08.12-.17.23-.25.34a1.71,1.71,0,0,1-.11.14c-.36.45-.73.88-1.13,1.29l-.45.42-.19.17-.22.14a5.1,5.1,0,0,1-.2-.63c-.06-.27-.11-.55-.15-.82,0,0,0-.06,0-.09s0-.32,0-.49a23.23,23.23,0,0,1,0-3.73s0-.1,0-.15a1.48,1.48,0,0,0,.18-.47v0a1.63,1.63,0,0,0,.06-.45h0a54.28,54.28,0,0,0,.48-11.46,28.59,28.59,0,0,0-.88-6,6.83,6.83,0,0,0-2.47-4c-1.82-1.17-3.77-.34-5.26.93a1.57,1.57,0,0,0-.5.88v0a1.94,1.94,0,0,0,0,.24,1,1,0,0,0,0,.18,14,14,0,0,1-.27,3,12.26,12.26,0,0,1-.36,1.22v0a1,1,0,0,0-.07.15c-.1.19-.2.37-.31.55l-.17.25c.12-.17-.11.14-.18.22l-.3.29-.23.2-.15.1-.37.22c-.25.15-.52.25-.77.39h0l-.32.13c-.25.1-.51.19-.76.3a11.64,11.64,0,0,0-1.69.76,5.56,5.56,0,0,0-2.53,3.16,7.68,7.68,0,0,0-.32,2.29,3.82,3.82,0,0,0-.9-.11,4.27,4.27,0,0,0-3.55,2.53,29.12,29.12,0,0,0-1.74,4.34c-.13.33-.25.67-.38,1l-.15.35c0-.07.05-.1,0,.1h0l0,.09v0l-.12.28a17.42,17.42,0,0,1-1,1.78l-.17.19c-.13.14-.27.27-.41.4l0,0-.05,0-.29.16c.09,0,.13,0-.06,0l0,0-.1,0a0,0,0,0,1,0,0l-.17,0-.14,0h-.53s.06,0,.06,0l-.17,0h-.06l-.18,0h-.09a1.58,1.58,0,0,0-1.35.2l-.21.12s0,0-.12.07l0,0h-.35l-.24-.06-.24-.08a5.93,5.93,0,0,1-.56-.29c-.18-.11-.36-.24-.53-.36l-.29-.24a12.69,12.69,0,0,1-1.1-1.1c-.17-.19-.33-.38-.48-.58l0,0c-.08-.13-.19-.25-.27-.37a15.89,15.89,0,0,1-1.56-2.68l0-.06-.12-.33a5.88,5.88,0,0,1-.23-.71c-.05-.19-.09-.38-.13-.57s0-.17,0-.26v0a2.06,2.06,0,0,0,0-.26s0-.08,0-.11,0-.07,0-.11l-.15-.64c0-.05,0-.08,0-.11v-.08c0-.16,0-.33,0-.5,0,0,0,0,0,0s0,0,0,0l0-.12.09-.06h0l.28-.09.34-.07H297a15.43,15.43,0,0,1,2,0c3,.17,6.63.91,9.37-.8a6.33,6.33,0,0,0,2.73-5.58.88.88,0,0,0,0-.16.76.76,0,0,0,0-.15,2.06,2.06,0,0,0-.07-.29v0a1.59,1.59,0,0,0-.64-.85.1.1,0,0,1,0,0l-.1-.05a2,2,0,0,0-1.92,0l-.11,0c-.11,0-.24.1-.34.13a7.81,7.81,0,0,1-.95.25c-.12,0-.27,0-.39.07h-.1c-.32,0-.64,0-1,0s-.61,0-.91,0l-.46,0-.19,0c-.59-.14-1.2-.21-1.79-.37a15.87,15.87,0,0,1-1.61-.52l0,0a1.7,1.7,0,0,0,.54-1.3,2,2,0,0,0,0-.24s0-.06,0-.09v-.06a1.78,1.78,0,0,0-.46-.89l.13-.09.54-.32c.42-.23.85-.44,1.28-.63l.54-.24.28-.12.46-.18c1.23-.5,2.47-1,3.7-1.5,6.06-2.55,12-6.06,14.59-12.44,1.82-4.52,1.3-9.6,0-14.17a1.94,1.94,0,0,0-.17-.42v0a32.42,32.42,0,0,1-3.3-16.17,11.69,11.69,0,0,1,1.51-5.77c.18-.27-.07,0,.2-.26.12-.12.23-.23.36-.34l.37-.25.11,0h0l.45-.09H322l.31.07a8,8,0,0,1,.83.26c2.27.83,3.25-2.79,1-3.62a6.14,6.14,0,0,0-4.08-.16,26.66,26.66,0,0,1-13.45-6.56,42.38,42.38,0,0,1-8.32-11.77c-4.32-8.36-7.36-18.07-14.42-24.66a25.27,25.27,0,0,0-15.26-6.52c-2.54-1-5.44-1.53-7.71.41-2,1.7-2.52,4.54-2.81,7a72.53,72.53,0,0,0-.24,9c0,1.46,0,2.93,0,4.4q0,1-.12,2c0,.27-.05.53-.09.8,0,0-.1.66-.13.8a10.89,10.89,0,0,1-.43,1.51s-.23.46-.29.56l0,.07c0-.06,0-.1-.12.14a1.21,1.21,0,0,1-.2.19h0l0,0h0l-.07,0c-.08.06-.29.11-.18.06h0l.05,0h-.54a24.66,24.66,0,0,1-4.51-6,7.75,7.75,0,0,1-.72-2.32,8.74,8.74,0,0,1,.12-2,21.3,21.3,0,0,1,2.36-5.59c1.45-2.66,3-5.28,4.42-7.95a1.63,1.63,0,0,0,.45-1.31,18.34,18.34,0,0,1,.32-5.75,5.3,5.3,0,0,1,.55-1.49,3.17,3.17,0,0,1,.93-1.24l0,0a1.53,1.53,0,0,0,.18-.18l.17-.1a7.44,7.44,0,0,1,.78-.44h0l.4-.14c.3-.09.6-.17.91-.24l.34-.06.3,0,.86-.05a20.63,20.63,0,0,1,2.08,0c2.93.19,5.8.81,8.93,1.21a22.73,22.73,0,0,0,9-.22,11.16,11.16,0,0,0,7.23-6.63.35.35,0,0,0,.05-.08c1.78-3.79,5.82-6.49,9.14-8.89,3.92-2.83,8.14-5.42,11.65-8.76a11,11,0,0,0,3.23-4.63,1.54,1.54,0,0,0,.16-.79,1.52,1.52,0,0,1,0-.21l0-.15c-.32-2.46-1.38-4.9-4.07-5.46s-5.24.64-7.54,1.65c-1.35.59-2.67,1.24-4,1.88s-2.87,1.37-3.75,1.74a26.12,26.12,0,0,1-4.13,1.41c-.32.08-.65.14-1,.2l-.3.05-.33,0-.78,0c-.14,0-.77-.06-.81,0q-.44-.09-.87-.21l-.27-.1-.22-.1a3.51,3.51,0,0,1-1.39-1.15,7.42,7.42,0,0,1-.45-.68,9.12,9.12,0,0,1-.58-1.12,19.87,19.87,0,0,1-.82-2.91,1.56,1.56,0,0,0-.18-.5l0-.1c0-.08,0-.16-.05-.24a7.15,7.15,0,0,1,0-1.31c0-.1,0-.2.05-.3s.11-.51.17-.76.15-.48.23-.72.09-.26.14-.38h0a11,11,0,0,1,.76-1.39l.22-.33,0,0c.16-.19.32-.38.5-.56s.31-.28.47-.42l0,0,.34-.22.3-.16c.22-.07.43-.13.65-.18a2.77,2.77,0,0,1,.41,0h.08l-.07,0,.11,0h.05c.11,0,.14,0,.14,0a.58.58,0,0,1,.14,0,3.81,3.81,0,0,1,.45.13l.05,0h0a8.71,8.71,0,0,1,1,.58l.07,0,.05,0a1.48,1.48,0,0,0,.57.19,6.09,6.09,0,0,0,4.39-.15,4.22,4.22,0,0,0,2-2.86c.13-.58.19-1.17.27-1.76l0-.26.12-.76c.05-.24.1-.48.17-.71s.07-.24.1-.35l0-.06s0,0,0,0l0,0s0-.09.05-.14.08-.13.08-.08a3.66,3.66,0,0,1,.18-.39l0,0,0,0,.08-.09.06-.07.17-.19.1-.09-.05,0,.09-.05a.58.58,0,0,1,.12-.08l.18-.13c.13-.08.27-.14.4-.21l.25-.08c.21-.07.43-.13.64-.18s.34-.1.53-.13c-.05,0-.06,0,.08,0l.55-.05.9,0,.17,0h.13l.14,0a1.77,1.77,0,0,0,.51-.19,1.39,1.39,0,0,0,.36-.29,1.31,1.31,0,0,0,.11-.12l.07-.08a1.7,1.7,0,0,0,.37-.91,1.48,1.48,0,0,0-.24-1.16c-6-8.38-12.66-16.24-18.88-24.44a31.49,31.49,0,0,1,7.32,4c3.21,2.43,6.15,6.33,8.82,9.65s5.17,6.39,7.84,9.51a.69.69,0,0,0,.11.13l0,0,.05.05a.74.74,0,0,0,.13.12,1.53,1.53,0,0,0,1.92.19,1.62,1.62,0,0,0,1-1.18,25.17,25.17,0,0,0,.71-7.12,9.9,9.9,0,0,0-.46-2.07l.3.3c.08.08.3.41,0,0l.29.42c.15.25.27.5.4.75l.05.12c.07.18.13.36.19.54a15.49,15.49,0,0,1,.47,2c0,.06.06.44.06.45s0,.22,0,.32c.05.39.08.77.11,1.16.13,1.65.18,3.31.27,5a.68.68,0,0,0,0,.14,1.23,1.23,0,0,0,0,.19.31.31,0,0,1,0,.08,1.82,1.82,0,0,0,1.31,1.4h.06a2.12,2.12,0,0,0,.44.06,1.81,1.81,0,0,0,.87-.24l.1-.05.14-.1.17-.14.1-.09c0-.05.09-.1.13-.16a1.1,1.1,0,0,0,.14-.21l0-.05a1.62,1.62,0,0,0,.17-.48c0-.13.07-.26.12-.38l.09-.25c.07-.19.06-.16-.05.1-.05-.13.31-.63.38-.74a7.06,7.06,0,0,1,.42-.64l0-.05a2.2,2.2,0,0,1,.2-.23c.59-.67,1.29-1.25,1.88-1.92a6.5,6.5,0,0,0,1-1.45,5.94,5.94,0,0,1,.17.7v.08c0,.16,0,.32,0,.49,0,.33,0,.66-.06,1v0a.08.08,0,0,1,0,0c0,.17,0,.34-.08.5-.54,2.83-1.42,5.63-.43,8.48,0,.06.05.1.07.15a1.64,1.64,0,0,0,.79,1,2.36,2.36,0,0,0,.28.12,1.78,1.78,0,0,0,1.17.07l.13,0a1.54,1.54,0,0,0,1-.81,10.4,10.4,0,0,1,.54-1.05c.07-.13.15-.26.23-.38a2.55,2.55,0,0,0,.3-.43l.08-.09a3.07,3.07,0,0,1,.25-.26,2.5,2.5,0,0,1,.24-.22l.07-.05.24-.15.19-.09h0l.33-.09.13,0,.54,0c.34,0,.69,0,1,.07-.41.77-.81,1.54-1.19,2.31-.1.19-.19.38-.28.57a2.17,2.17,0,0,0-.09,1.71,1.61,1.61,0,0,0,.76.85,2.1,2.1,0,0,0,1.31.2,1.58,1.58,0,0,0,1.26-.87,9.86,9.86,0,0,1,.53-1c.07-.12.16-.24.23-.36l0,0,.07-.08v0l0,0,0-.05c.12-.14.31-.27.45-.41-.1.09-.15,0,0,0l.11-.07,0-.06a.12.12,0,0,1,0,.05l0,0,.23-.12.27-.07h.25l.24,0c.19,0,.39.07.58.13.44.12.89.29,1.34.46q-.23.27-.45.57a19.22,19.22,0,0,0-1.93,3.5,1.07,1.07,0,0,0-.07.19,1.84,1.84,0,0,0,.15,1.83,1.57,1.57,0,0,0,.59.55,2.46,2.46,0,0,0,.48.16,1.86,1.86,0,0,0,1.25-.07,1.52,1.52,0,0,0,.69-.54c.13-.13.25-.26.39-.38l.22-.19.05,0,.4-.23.15-.05h.14l.09,0h0l.08,0,.31.11.33.16c.36.17.71.33,1.07.48l.1,0,0,0c-.18.09-.35.25-.53.34a2.59,2.59,0,0,0-.29.14l.05,0c-.22.08-.45.15-.68.21-.89.23-1.82.32-2.72.52a7,7,0,0,0-3,1.45,6.56,6.56,0,0,0-2,3.95,2.57,2.57,0,0,0,0,.48,1.82,1.82,0,0,0,.38,1.19,1.53,1.53,0,0,0,.95.63l.18,0h.23a1.88,1.88,0,0,0,1.53-.62,1.36,1.36,0,0,0,.29-.49c.14-.25.3-.5.43-.75l.11-.12c.18-.17.42-.32.06-.1l.34-.22,0,0h0l.37-.1h.55c.26.09.56.12.83.2l.43.14.27.11.31.13.49.24c1.23.61,2.39,1.34,3.6,2a10.39,10.39,0,0,0,3,1.19c0,.11-.08.23-.11.34l0,.06-.16.28h0l0,0h0l-.22-.05-.59-.2.08,0c-.11-.06-.23-.1-.34-.15-.56-.25-1.12-.51-1.68-.74a6.11,6.11,0,0,0-3.55-.46,5,5,0,0,0-3.08,2.35,5.31,5.31,0,0,0-.68.1,1.89,1.89,0,0,0-1.31,2.3,1.91,1.91,0,0,0,2.31,1.31h0s0,0,.14,0h.09a1.11,1.11,0,0,1-.23,0s.16,0,.25,0a2.15,2.15,0,0,0,.67.07l.06.05,0,.05.06.13c0-.11,0-.12,0,.06a.37.37,0,0,0,.05.11.93.93,0,0,0-.05-.1s0,0,0,0c.08.26.15.52.21.79s.08.5.13.76v.07c0,.16,0,.32.05.48.35,3,.9,6.24,3.95,7.61a9,9,0,0,0,4.33.68l-.33.33-.08.08-.1.05-.54.31,0,0h-.07c-.18,0-.35.12-.52.16l-.47.1h0l-.32,0a14,14,0,0,1-2.24,0c-3.09-.26-6.61-1.13-9.33.87-2.06,1.51-2.91,4-3.26,6.42a.41.41,0,0,1,0,.11,1.91,1.91,0,0,0,.05.86,1.76,1.76,0,0,0,1.27,1.34h.09a1.62,1.62,0,0,0,1.54-.32,1.69,1.69,0,0,0,.41-.39l.16-.15.07-.07.07,0,.41-.26.38-.17a5.24,5.24,0,0,1,.8-.22l.19,0,.5,0a8.19,8.19,0,0,1,1,0l.48,0,.29.05q1.13.21,2.22.51c.9.25,1.86.59,2.85.89-.74.24-1.49.47-2.22.73-4.22,1.46-7.49,4.05-8.42,8.63-.86,4.17-.17,8.54.71,12.65a2,2,0,0,0,.16.45c2.15,6.79,6.34,12.29,11.17,17.44,4,4.24,8.37,8.52,9.85,14.34a24.44,24.44,0,0,1-.56,12.18,1.56,1.56,0,0,0,.47,1.86C357.23,569.55,362.91,576.38,361.83,584.4Z" transform="translate(-227.41 -416.19)"/><path class="cls-1" d="M341.56,617v0c0-.43,0-.26,0-.1v0A.06.06,0,0,1,341.56,617Z" transform="translate(-227.41 -416.19)"/><path class="cls-1" d="M342.77,620.28c.12.15.3.31,0,0Z" transform="translate(-227.41 -416.19)"/><path class="cls-1" d="M344,621.34c.16.06.29.09,0,0Z" transform="translate(-227.41 -416.19)"/><path class="cls-1" d="M345.55,621.35Z" transform="translate(-227.41 -416.19)"/><path class="cls-1" d="M347.36,619.2c0-.1-.08,0-.08.18v0A.69.69,0,0,1,347.36,619.2Z" transform="translate(-227.41 -416.19)"/><path class="cls-1" d="M342.16,619.24c0-.21-.06-.27-.07-.24a.83.83,0,0,1,.06.21Z" transform="translate(-227.41 -416.19)"/><path class="cls-1" d="M346,621.08l.19-.18s-.05,0-.2.19h0Z" transform="translate(-227.41 -416.19)"/><path class="cls-1" d="M340.12,633.89h0v0Z" transform="translate(-227.41 -416.19)"/><path class="cls-1" d="M340.53,634.26h.06l-.08,0Z" transform="translate(-227.41 -416.19)"/><path class="cls-1" d="M318.71,620.11Z" transform="translate(-227.41 -416.19)"/><path class="cls-1" d="M307.76,630.09l0-.1c0,.06-.06.14-.07.17Z" transform="translate(-227.41 -416.19)"/><path class="cls-1" d="M305.45,633.11l.1,0,.1-.06A.41.41,0,0,0,305.45,633.11Z" transform="translate(-227.41 -416.19)"/><path class="cls-1" d="M313.76,625.53l-.09.07h0s.08,0,.15,0l-.05,0Z" transform="translate(-227.41 -416.19)"/><path class="cls-1" d="M313.75,625.53h0Z" transform="translate(-227.41 -416.19)"/><path class="cls-1" d="M313.81,625.51h0Z" transform="translate(-227.41 -416.19)"/><path class="cls-1" d="M304.44,633.19h.17A.49.49,0,0,0,304.44,633.19Z" transform="translate(-227.41 -416.19)"/><path class="cls-1" d="M302.49,633.53l.12-.07s-.07,0-.17.09Z" transform="translate(-227.41 -416.19)"/><path class="cls-1" d="M256.23,533.47l.13,0h0Z" transform="translate(-227.41 -416.19)"/><path class="cls-1" d="M256.38,533.41h0l.06,0C257,532.92,256.39,533.4,256.38,533.41Z" transform="translate(-227.41 -416.19)"/><polygon class="cls-1" points="29.02 117.22 29.02 117.22 29.03 117.21 29.02 117.21 29.02 117.22"/><path class="cls-1" d="M288.08,457.09l-.19,0h0C288,457.11,288.07,457.11,288.08,457.09Z" transform="translate(-227.41 -416.19)"/><polygon class="cls-1" points="83.08 51.64 83.09 51.65 83.08 51.64 83.08 51.64"/><path class="cls-1" d="M310.5,467.83l.12.11-.07-.07Z" transform="translate(-227.41 -416.19)"/><path class="cls-1" d="M310.49,467.83h0C310.46,467.8,310.46,467.8,310.49,467.83Z" transform="translate(-227.41 -416.19)"/><path class="cls-1" d="M310.34,467.76l.15.07-.12-.06Z" transform="translate(-227.41 -416.19)"/><path class="cls-1" d="M257,497.19l.07,0S256.87,497.18,257,497.19Z" transform="translate(-227.41 -416.19)"/><path class="cls-1" d="M233.84,513.17h0l0,0Z" transform="translate(-227.41 -416.19)"/><path class="cls-1" d="M348.64,569.45a1.59,1.59,0,0,0-.74-.65,1.72,1.72,0,0,0-2.09.39,1.75,1.75,0,0,0-.56,1.8c0,.11,0,.22.07.33s0,.35,0,.52h0a.19.19,0,0,1,0,.07c0,.11,0,.16-.05.2l0,0-.12.19-.19.22-.26.23-.38.26c-.32.19-.64.35-1,.51-.15.08-.31.14-.46.21l-.52.22c-.89.35-1.79.68-2.67,1a15.57,15.57,0,0,0-5.66,3.52,10.72,10.72,0,0,0-2.73,7.29c-.07,4.72,1.84,9.37,3.83,13.58a1.55,1.55,0,0,0,.43.83,1.59,1.59,0,0,0,2.17.45,1.84,1.84,0,0,0,1.1-1.16c1.6-4.82,5.49-8,9.18-11.28,3.18-2.79,6.34-6.09,5.52-10.68C352.94,574.45,350.76,571.74,348.64,569.45Zm-11.06,10.9h0C337.66,580.28,337.83,580.17,337.58,580.35Zm12.19-.14a5.49,5.49,0,0,1-1,1.95,28.69,28.69,0,0,1-4.07,4,52.59,52.59,0,0,0-5,4.7,23.32,23.32,0,0,0-2.71,3.67,23.35,23.35,0,0,1-2-8.29,7.2,7.2,0,0,1,.53-3.31c0,.12.23-.48.29-.59s.24-.4.37-.6l.1-.15.11-.13a8.08,8.08,0,0,1,.57-.6,7.54,7.54,0,0,1,.59-.52l.29-.2a14.79,14.79,0,0,1,1.27-.77c.44-.24.89-.45,1.34-.65l.26-.11,0,0,.74-.3a23.49,23.49,0,0,0,5.08-2.3,6.16,6.16,0,0,0,1.45-1.43,10.32,10.32,0,0,1,1.78,3.72A4.76,4.76,0,0,1,349.77,580.21Z" transform="translate(-227.41 -416.19)"/></svg>