<svg id="Layer_1" data-name="Layer 1" xmlns="http://www.w3.org/2000/svg" viewBox="0 0 140.29 93.35"><defs><style>.cls-1{fill:#231f20;}</style></defs><path class="cls-1" d="M440.21,519.12c-2.73-13.57-9.48-27.32-23.33-32.2-8.09-2.84-16.82-2.15-25,.21-.05-6.89-.39-14.23-3.25-20.51a15.81,15.81,0,0,0-11.27-8.88,46.82,46.82,0,0,0-10.43-.93,1.82,1.82,0,0,0-1,.27,1.58,1.58,0,0,0-.9,1.61,117.59,117.59,0,0,0,2,17.24,30.8,30.8,0,0,0,3.12,9.12,12.76,12.76,0,0,0,3.93,4.3c1,.68,2.11,1.13,3.12,1.78l.25.18a1.18,1.18,0,0,1,.2.17c.12.11.23.24.35.35l.07.06,0,0c.13.21.24.43.36.64a86.49,86.49,0,0,0-14.69,9.71c-10.06,7.62-25,14.77-37.15,7.71-4.79-2.79-8.22-7.28-10.82-12.08l0-.05v0c-.06-.14-.11-.28-.17-.43-.14-.34-.26-.69-.38-1-.24-.69-.45-1.39-.62-2.1-.09-.34-.16-.68-.23-1s-.08-.39-.11-.59,0-.27-.06-.36a17.38,17.38,0,0,1-.12-2.16q0-.53.06-1.05c0-.07,0-.14,0-.21v0c0-.2.07-.39.11-.58a9.1,9.1,0,0,1,.27-1c.05-.14.1-.28.16-.41s.12-.26.16-.35c.16-.3.34-.59.53-.88a1.17,1.17,0,0,0,.1-.15l.07-.06c.13-.16.27-.31.41-.46l.4-.37.25-.2a11.29,11.29,0,0,1,1.1-.69,5,5,0,0,1,1.2-.51,13.44,13.44,0,0,1,1.73-.47,15.42,15.42,0,0,1,2-.28c-.49,6.58.85,13.89,6.05,18.32a10.69,10.69,0,0,0,7.46,2.84,9.38,9.38,0,0,0,7-4.09c2.58-3.53,3.16-8.29,3.17-12.53a2.11,2.11,0,0,0-.07-.52c-.79-5.48-2.82-11.16-7.12-14.87a18,18,0,0,0-12.74-4.23c-9.66.49-19.05,6.86-23.57,15.34a22.74,22.74,0,0,0-2.05,16.66c2.87,11,9.34,21.1,19.21,27a36.92,36.92,0,0,0,30.6,3.13,46.88,46.88,0,0,0,14-7.77q-.28,2.87-.53,5.75a32.42,32.42,0,0,0-.09,5.91c.39,3.62,2.32,6.25,4.68,8.91,2.15,2.43,4.35,4.81,6.46,7.27a1.54,1.54,0,0,0,2,.43,2,2,0,0,0,1.22-1.75c.79-7.29,2-14.57,2.37-21.9a43.06,43.06,0,0,0-2-15.6,106.11,106.11,0,0,1,13.86-9.2,51.46,51.46,0,0,1,7.64-3.38c-.52,2.6-1,5.22-1.35,7.85a18.82,18.82,0,0,0-.1,5.85c.49,2.64,2.54,3.69,4.56,5.08l.4.28.12.08a.3.3,0,0,0,.08.07c.32.27.63.54.94.83a15,15,0,0,1,2,2.39.43.43,0,0,0,.09.1,2,2,0,0,0,1,.76,1.76,1.76,0,0,0,1.79-.5,1.66,1.66,0,0,0,.65-1.18c2.86-7.42,4.87-16.22.86-23.44A21,21,0,0,1,422,499.69c7.11,4.63,11.47,12.78,14.56,20.43a1.56,1.56,0,0,0,1.49,1.35,1.87,1.87,0,0,0,.81,0A1.89,1.89,0,0,0,440.21,519.12Z" transform="translate(-300.02 -456.81)"/></svg>