<svg id="Layer_1" data-name="Layer 1" xmlns="http://www.w3.org/2000/svg" viewBox="0 0 140.29 93.35"><defs><style>.cls-1{fill:#231f20;}</style></defs><path class="cls-1" d="M300.12,519.12c2.73-13.57,9.48-27.32,23.33-32.2,8.08-2.84,16.82-2.15,25,.21,0-6.89.39-14.23,3.25-20.51A15.81,15.81,0,0,1,363,457.74a46.73,46.73,0,0,1,10.42-.93,1.88,1.88,0,0,1,1,.27,1.58,1.58,0,0,1,.9,1.61,117.59,117.59,0,0,1-2,17.24,31.08,31.08,0,0,1-3.12,9.12,12.76,12.76,0,0,1-3.93,4.3c-1,.68-2.12,1.13-3.12,1.78l-.25.18a1.18,1.18,0,0,0-.2.17c-.12.11-.23.24-.35.35l-.07.06,0,0c-.13.21-.24.43-.36.64a86.89,86.89,0,0,1,14.69,9.71c10.06,7.62,25,14.77,37.15,7.71,4.79-2.79,8.22-7.28,10.82-12.08l0-.05v0c0-.14.11-.28.17-.43.13-.34.26-.69.38-1,.24-.69.45-1.39.62-2.1.09-.34.16-.68.23-1s.08-.39.11-.59,0-.27.06-.36a17.38,17.38,0,0,0,.12-2.16q0-.53-.06-1.05c0-.07,0-.14,0-.21v0c0-.2-.07-.39-.11-.58a9.1,9.1,0,0,0-.27-1c-.05-.14-.1-.28-.16-.41s-.12-.26-.16-.35c-.16-.3-.34-.59-.53-.88l-.11-.15a.23.23,0,0,0-.06-.06c-.13-.16-.27-.31-.41-.46l-.4-.37-.25-.2a11.29,11.29,0,0,0-1.1-.69,5,5,0,0,0-1.2-.51,13.15,13.15,0,0,0-1.74-.47,15,15,0,0,0-2-.28c.49,6.58-.85,13.89-6.05,18.32a10.69,10.69,0,0,1-7.46,2.84,9.38,9.38,0,0,1-7-4.09C394.6,496,394,491.21,394,487a2.11,2.11,0,0,1,.07-.52c.79-5.48,2.82-11.16,7.12-14.87a18,18,0,0,1,12.74-4.23c9.66.49,19.05,6.86,23.57,15.34a22.74,22.74,0,0,1,2.05,16.66c-2.87,11-9.34,21.1-19.21,27a36.92,36.92,0,0,1-30.6,3.13,46.88,46.88,0,0,1-14-7.77q.28,2.87.53,5.75a32.42,32.42,0,0,1,.09,5.91c-.39,3.62-2.32,6.25-4.68,8.91-2.15,2.43-4.35,4.81-6.46,7.27a1.54,1.54,0,0,1-2,.43,2,2,0,0,1-1.22-1.75c-.79-7.29-2-14.57-2.37-21.9a43.06,43.06,0,0,1,2-15.6,106.11,106.11,0,0,0-13.86-9.2,51.46,51.46,0,0,0-7.64-3.38c.52,2.6,1,5.22,1.35,7.85a18.82,18.82,0,0,1,.1,5.85c-.49,2.64-2.54,3.69-4.56,5.08l-.4.28-.12.08-.08.07c-.32.27-.63.54-.94.83a14.49,14.49,0,0,0-2,2.39l-.09.1a2,2,0,0,1-1,.76,1.76,1.76,0,0,1-1.79-.5,1.66,1.66,0,0,1-.65-1.18c-2.86-7.42-4.87-16.22-.86-23.44a21,21,0,0,0-10.79,3.38c-7.12,4.63-11.47,12.78-14.56,20.43a1.57,1.57,0,0,1-1.49,1.35,1.87,1.87,0,0,1-.81,0A1.89,1.89,0,0,1,300.12,519.12Z" transform="translate(-300.02 -456.81)"/></svg>